<?xml version="1.0" encoding="iso-8859-1"?>
<!-- Generator: Adobe Illustrator 22.0.1, SVG Export Plug-In . SVG Version: 6.00 Build 0)  -->
<svg version="1.1" id="Capa_1" xmlns="http://www.w3.org/2000/svg" xmlns:xlink="http://www.w3.org/1999/xlink" x="0px" y="0px"
	 viewBox="0 0 3190.291 314.61" style="enable-background:new 0 0 3190.291 314.61;" xml:space="preserve">
<g>
	<path style="fill:#FFFFFF;" d="M34.246,309.136L89.042,61.644H0L12.328,4.569h242.933l-12.333,57.075h-89.042L99.548,309.136
		H34.246z"/>
	<path style="fill:#FFFFFF;" d="M404.553,309.136L368.48,200.913h-50.232l-23.74,108.223h-64.844L296.788,4.569h130.141
		c49.316,0,94.069,32.877,94.069,85.847c0,54.796-37.446,96.801-86.762,105.928l42.463,112.792H404.553z M399.073,143.833
		c33.793,0,54.338-19.634,54.338-47.027c0-20.55-18.718-35.162-38.81-35.162h-65.297l-18.265,82.189h67.576H399.073z"/>
	<path style="fill:#FFFFFF;" d="M736.96,309.136l-7.759-51.596H598.597l-30.14,51.596H491.29L675.774,4.569h81.273l50.237,304.567
		H736.96z M705.452,69.403L629.2,200.46h94.979L705.452,69.403z"/>
	<path style="fill:#FFFFFF;" d="M1045.628,309.136L945.174,107.302l-44.752,201.834h-64.839L902.706,4.569h66.661l97.727,194.06
		l43.374-194.06h64.839l-67.124,304.567H1045.628z"/>
	<path style="fill:#FFFFFF;" d="M1162.506,257.54l40.184-47.953c21.002,28.319,60.733,47.49,102.738,47.49
		c32.877,0,46.121-18.718,46.121-34.246c0-42.921-148.406-34.699-148.406-123.741c0-50.232,44.289-99.09,119.182-99.09
		c48.405,0,94.064,17.812,121.466,49.316l-40.646,46.574c-22.824-26.487-59.817-38.815-90.863-38.815
		c-23.297,0-40.646,13.696-40.646,30.14c0,39.731,148.859,34.699,148.859,122.835c0,55.701-44.742,104.56-120.088,104.56
		C1240.588,314.61,1188.077,291.323,1162.506,257.54z"/>
	<path style="fill:#FFFFFF;" d="M1442.392,309.136l67.134-304.567h139.269c48.858,0,84.936,38.357,84.936,84.468
		c0,45.215-30.593,111.423-126.035,111.423h-76.251l-24.203,108.676H1442.392z M1611.811,143.38c32.415,0,54.333-20.55,54.333-47.49
		c0-20.087-15.518-34.246-37.899-34.246h-66.208l-18.265,81.736h67.576H1611.811z"/>
	<path style="fill:#FFFFFF;" d="M1907.688,309.136l-7.759-51.596h-130.604l-30.13,51.596h-77.177L1846.502,4.569h81.273
		l50.237,304.567H1907.688z M1876.179,69.403l-76.251,131.057h94.979L1876.179,69.403z"/>
	<path style="fill:#FFFFFF;" d="M2181.194,309.136l-36.067-108.223h-50.237l-23.74,108.223h-64.839l67.124-304.567h130.141
		c49.311,0,94.063,32.877,94.063,85.847c0,54.796-37.446,96.801-86.757,105.928l42.458,112.792H2181.194z M2175.719,143.833
		c33.783,0,54.333-19.634,54.333-47.027c0-20.55-18.718-35.162-38.815-35.162h-65.292l-18.265,82.189h67.576H2175.719z"/>
	<path style="fill:#FFFFFF;" d="M2299.903,309.136l67.124-304.567h215.53l-12.791,57.075h-150.228l-14.159,63.923h147.038
		l-12.328,57.08h-147.491l-15.075,69.408h150.238l-12.338,57.08H2299.903z"/>
	<path style="fill:#FFFFFF;" d="M2776.138,309.136l-100.464-201.834l-44.742,201.834h-64.849l67.134-304.567h66.661l97.727,194.06
		l43.374-194.06h64.849l-67.134,304.567H2776.138z"/>
	<path style="fill:#FFFFFF;" d="M2969.277,309.136l54.796-247.492h-89.042l12.328-57.075h242.933l-12.328,57.075h-89.042
		l-54.343,247.492H2969.277z"/>
</g>
<g>
</g>
<g>
</g>
<g>
</g>
<g>
</g>
<g>
</g>
<g>
</g>
</svg>
