<?xml version="1.0" encoding="iso-8859-1"?>
<!-- Generator: Adobe Illustrator 22.0.1, SVG Export Plug-In . SVG Version: 6.00 Build 0)  -->
<svg version="1.1" id="Capa_1" xmlns="http://www.w3.org/2000/svg" xmlns:xlink="http://www.w3.org/1999/xlink" x="0px" y="0px"
	 viewBox="0 0 1529.897 1052.235" style="enable-background:new 0 0 1529.897 1052.235;" xml:space="preserve">
<g>
	<g style="opacity:0.2;">
		<polygon style="fill:#BEDBF1;" points="524.38,123.164 387.172,279.852 387.172,489.958 398.04,587.77 544.081,624.45 
			985.429,624.45 1142.725,489.958 1142.725,333.052 1029.033,140.628 		"/>
		<g>
			<path style="fill:#FFFFFF;" d="M539.974,210.568h-352.53c-19.132,0-34.642-15.51-34.642-34.642s15.51-34.642,34.642-34.642
				h352.53c19.132,0,34.642,15.51,34.642,34.642S559.106,210.568,539.974,210.568z"/>
		</g>
		<g>
			<path style="fill:#FFFFFF;" d="M1300.364,210.568h-352.53c-19.132,0-34.642-15.51-34.642-34.642s15.51-34.642,34.642-34.642
				h352.53c19.132,0,34.642,15.51,34.642,34.642S1319.496,210.568,1300.364,210.568z"/>
		</g>
		<g>
			<path style="fill:#FFFFFF;" d="M1439.639,349.135h-352.53c-19.132,0-34.642-15.51-34.642-34.642s15.51-34.642,34.642-34.642
				h352.53c19.132,0,34.642,15.51,34.642,34.642S1458.771,349.135,1439.639,349.135z"/>
		</g>
		<g>
			<path style="fill:#FFFFFF;" d="M387.172,349.135H34.642C15.51,349.135,0,333.625,0,314.494s15.51-34.642,34.642-34.642h352.53
				c19.132,0,34.642,15.51,34.642,34.642S406.304,349.135,387.172,349.135z"/>
		</g>
		<g>
			<path style="fill:#FFFFFF;" d="M463.578,481.698h-352.53c-19.132,0-34.642-15.51-34.642-34.642
				c0-19.132,15.51-34.642,34.642-34.642h352.53c19.132,0,34.642,15.51,34.642,34.642
				C498.22,466.188,482.71,481.698,463.578,481.698z"/>
		</g>
		<g>
			<path style="fill:#FFFFFF;" d="M1495.255,489.958h-352.53c-19.132,0-34.642-15.51-34.642-34.642s15.51-34.642,34.642-34.642
				h352.53c19.132,0,34.642,15.51,34.642,34.642S1514.387,489.958,1495.255,489.958z"/>
		</g>
		<g>
			<path style="fill:#FFFFFF;" d="M1375.781,622.412H872.417c-19.132,0-34.642-15.51-34.642-34.642
				c0-19.132,15.51-34.642,34.642-34.642h503.363c19.132,0,34.642,15.51,34.642,34.642
				C1410.422,606.902,1394.912,622.412,1375.781,622.412z"/>
		</g>
		<g>
			<path style="fill:#FFFFFF;" d="M577.712,622.412H74.349c-19.132,0-34.642-15.51-34.642-34.642
				c0-19.132,15.51-34.642,34.642-34.642h503.363c19.132,0,34.642,15.51,34.642,34.642
				C612.354,606.902,596.844,622.412,577.712,622.412z"/>
		</g>
		<g>
			<path style="fill:#BEDBF1;" d="M985.429,693.733H544.081c-19.132,0-34.642-15.51-34.642-34.642
				c0-19.132,15.51-34.642,34.642-34.642h441.347c19.132,0,34.642,15.51,34.642,34.642
				C1020.07,678.224,1004.56,693.733,985.429,693.733z"/>
		</g>
		<g>
			<path style="fill:#BEDBF1;" d="M1212.009,559.242H770.661c-19.132,0-34.642-15.51-34.642-34.642
				c0-19.132,15.51-34.642,34.642-34.642h441.347c19.132,0,34.642,15.51,34.642,34.642
				C1246.65,543.732,1231.14,559.242,1212.009,559.242z"/>
		</g>
		<g>
			<path style="fill:#BEDBF1;" d="M1284.349,419.076H843.001c-19.132,0-34.642-15.51-34.642-34.642s15.51-34.642,34.642-34.642
				h441.347c19.132,0,34.642,15.51,34.642,34.642S1303.48,419.076,1284.349,419.076z"/>
		</g>
		<g>
			<path style="fill:#BEDBF1;" d="M1029.033,140.628H483.339c-19.132,0-34.642-15.51-34.642-34.642s15.51-34.642,34.642-34.642
				h545.694c19.132,0,34.642,15.51,34.642,34.642S1048.165,140.628,1029.033,140.628z"/>
		</g>
		<g>
			<path style="fill:#BEDBF1;" d="M824.068,279.852H278.374c-19.132,0-34.642-15.51-34.642-34.642s15.51-34.642,34.642-34.642
				h545.694c19.132,0,34.642,15.51,34.642,34.642S843.2,279.852,824.068,279.852z"/>
		</g>
		<g>
			<path style="fill:#BEDBF1;" d="M824.068,415.471H278.374c-19.132,0-34.642-15.51-34.642-34.642s15.51-34.642,34.642-34.642
				h545.694c19.132,0,34.642,15.51,34.642,34.642S843.2,415.471,824.068,415.471z"/>
		</g>
		<g>
			<path style="fill:#BEDBF1;" d="M895.39,551.091H349.695c-19.132,0-34.642-15.51-34.642-34.642
				c0-19.132,15.51-34.642,34.642-34.642H895.39c19.132,0,34.642,15.51,34.642,34.642
				C930.031,535.581,914.521,551.091,895.39,551.091z"/>
		</g>
		<g>
			<path style="fill:#BEDBF1;" d="M1150.705,279.852H709.358c-19.132,0-34.642-15.51-34.642-34.642s15.51-34.642,34.642-34.642
				h441.347c19.132,0,34.642,15.51,34.642,34.642S1169.837,279.852,1150.705,279.852z"/>
		</g>
	</g>
	<g>
		<rect x="502.383" y="193.454" style="fill:#F9F9F9;" width="533.215" height="857.781"/>
		<rect x="502.63" y="179.059" style="opacity:0.09;" width="533.215" height="116.925"/>
		<rect x="473.651" y="174.135" style="fill:#D2D8D8;" width="591.174" height="38.639"/>
		<rect x="483.054" y="234.025" style="fill:#D2D8D8;" width="572.368" height="38.639"/>
		<rect x="539.09" y="386.889" style="fill:#F4F4F4;" width="26.081" height="19.802"/>
		<rect x="629.891" y="720.874" style="fill:#F4F4F4;" width="42.986" height="21.251"/>
		<rect x="964.6" y="799.117" style="fill:#F4F4F4;" width="34.775" height="21.251"/>
		<rect x="1009.764" y="534.441" style="fill:#F4F4F4;" width="26.081" height="20.285"/>
		
			<rect x="555.995" y="830.028" style="fill:#B5B5B5;stroke:#E2E2E2;stroke-width:14;stroke-miterlimit:10;" width="116.882" height="189.33"/>
		<rect x="547.301" y="1019.358" style="fill:#D2D8D8;" width="134.27" height="31.877"/>
		<rect x="502.63" y="915.034" style="fill:#F4F4F4;" width="43.469" height="21.251"/>
		<circle style="fill:#939393;" cx="641.483" cy="958.019" r="9.177"/>
		<g>
			
				<rect x="577.729" y="322.894" style="fill:#BBF2EA;stroke:#D2D8D8;stroke-width:14;stroke-miterlimit:10;" width="85.005" height="141.998"/>
			
				<line style="fill:none;stroke:#D2D8D8;stroke-width:14;stroke-miterlimit:10;" x1="578.212" y1="368.295" x2="663.217" y2="368.295"/>
			
				<line style="fill:none;stroke:#D2D8D8;stroke-width:14;stroke-miterlimit:10;" x1="620.715" y1="322.894" x2="620.715" y2="470.687"/>
			<rect x="567.586" y="443.64" style="fill:#FFFFFF;" width="105.291" height="21.251"/>
			<rect x="567.586" y="450.202" style="opacity:0.09;" width="105.291" height="14.69"/>
		</g>
		<g>
			
				<rect x="722.625" y="322.894" style="fill:#BBF2EA;stroke:#D2D8D8;stroke-width:14;stroke-miterlimit:10;" width="85.005" height="141.998"/>
			
				<line style="fill:none;stroke:#D2D8D8;stroke-width:14;stroke-miterlimit:10;" x1="723.108" y1="368.295" x2="808.113" y2="368.295"/>
			
				<line style="fill:none;stroke:#D2D8D8;stroke-width:14;stroke-miterlimit:10;" x1="765.61" y1="322.894" x2="765.61" y2="470.687"/>
			<rect x="712.482" y="443.64" style="fill:#FFFFFF;" width="105.291" height="21.251"/>
			<rect x="712.482" y="450.202" style="opacity:0.09;" width="105.291" height="14.69"/>
		</g>
		<g>
			
				<rect x="867.52" y="322.894" style="fill:#BBF2EA;stroke:#D2D8D8;stroke-width:14;stroke-miterlimit:10;" width="85.005" height="141.998"/>
			
				<line style="fill:none;stroke:#D2D8D8;stroke-width:14;stroke-miterlimit:10;" x1="868.003" y1="368.295" x2="953.008" y2="368.295"/>
			
				<line style="fill:none;stroke:#D2D8D8;stroke-width:14;stroke-miterlimit:10;" x1="910.506" y1="322.894" x2="910.506" y2="470.687"/>
			<rect x="857.377" y="443.64" style="fill:#FFFFFF;" width="105.291" height="21.251"/>
			<rect x="857.377" y="450.202" style="opacity:0.09;" width="105.291" height="14.69"/>
		</g>
		<g>
			
				<rect x="577.729" y="525.748" style="fill:#BBF2EA;stroke:#D2D8D8;stroke-width:14;stroke-miterlimit:10;" width="85.005" height="141.998"/>
			
				<line style="fill:none;stroke:#D2D8D8;stroke-width:14;stroke-miterlimit:10;" x1="578.212" y1="571.148" x2="663.217" y2="571.148"/>
			
				<line style="fill:none;stroke:#D2D8D8;stroke-width:14;stroke-miterlimit:10;" x1="620.715" y1="525.748" x2="620.715" y2="673.541"/>
			<rect x="567.586" y="646.494" style="fill:#FFFFFF;" width="105.291" height="21.251"/>
			<rect x="567.586" y="653.056" style="opacity:0.09;" width="105.291" height="14.69"/>
		</g>
		<g>
			
				<rect x="722.625" y="525.748" style="fill:#BBF2EA;stroke:#D2D8D8;stroke-width:14;stroke-miterlimit:10;" width="85.005" height="141.998"/>
			
				<line style="fill:none;stroke:#D2D8D8;stroke-width:14;stroke-miterlimit:10;" x1="723.108" y1="571.148" x2="808.113" y2="571.148"/>
			
				<line style="fill:none;stroke:#D2D8D8;stroke-width:14;stroke-miterlimit:10;" x1="765.61" y1="525.748" x2="765.61" y2="673.541"/>
			<rect x="712.482" y="646.494" style="fill:#FFFFFF;" width="105.291" height="21.251"/>
			<rect x="712.482" y="653.056" style="opacity:0.09;" width="105.291" height="14.69"/>
		</g>
		<g>
			
				<rect x="867.52" y="525.748" style="fill:#BBF2EA;stroke:#D2D8D8;stroke-width:14;stroke-miterlimit:10;" width="85.005" height="141.998"/>
			
				<line style="fill:none;stroke:#D2D8D8;stroke-width:14;stroke-miterlimit:10;" x1="868.003" y1="571.148" x2="953.008" y2="571.148"/>
			
				<line style="fill:none;stroke:#D2D8D8;stroke-width:14;stroke-miterlimit:10;" x1="910.506" y1="525.748" x2="910.506" y2="673.541"/>
			<rect x="857.377" y="646.494" style="fill:#FFFFFF;" width="105.291" height="21.251"/>
			<rect x="857.377" y="653.056" style="opacity:0.09;" width="105.291" height="14.69"/>
		</g>
		<g>
			
				<rect x="722.625" y="738.261" style="fill:#BBF2EA;stroke:#D2D8D8;stroke-width:14;stroke-miterlimit:10;" width="85.005" height="141.998"/>
			
				<line style="fill:none;stroke:#D2D8D8;stroke-width:14;stroke-miterlimit:10;" x1="723.108" y1="783.662" x2="808.113" y2="783.662"/>
			
				<line style="fill:none;stroke:#D2D8D8;stroke-width:14;stroke-miterlimit:10;" x1="765.61" y1="738.261" x2="765.61" y2="886.054"/>
			<rect x="712.482" y="859.007" style="fill:#FFFFFF;" width="105.291" height="21.251"/>
			<rect x="712.482" y="865.569" style="opacity:0.09;" width="105.291" height="14.69"/>
		</g>
		<g>
			
				<rect x="867.52" y="738.261" style="fill:#BBF2EA;stroke:#D2D8D8;stroke-width:14;stroke-miterlimit:10;" width="85.005" height="141.998"/>
			
				<line style="fill:none;stroke:#D2D8D8;stroke-width:14;stroke-miterlimit:10;" x1="868.003" y1="783.662" x2="953.008" y2="783.662"/>
			
				<line style="fill:none;stroke:#D2D8D8;stroke-width:14;stroke-miterlimit:10;" x1="910.506" y1="738.261" x2="910.506" y2="886.054"/>
			<rect x="857.377" y="859.007" style="fill:#FFFFFF;" width="105.291" height="21.251"/>
			<rect x="857.377" y="865.569" style="opacity:0.09;" width="105.291" height="14.69"/>
		</g>
	</g>
	
		<line style="fill:none;stroke:#E0E0E0;stroke-width:2;stroke-miterlimit:10;" x1="335.009" y1="1051.235" x2="1203.466" y2="1051.235"/>
	<path style="opacity:0.2;fill:#BEDBF1;" d="M386.143,71.345h-43.988c-19.619,0-35.671-16.052-35.671-35.671v-0.002
		C306.484,16.052,322.536,0,342.155,0l43.988,0c19.619,0,35.671,16.052,35.671,35.671v0.002
		C421.814,55.293,405.762,71.345,386.143,71.345z"/>
	<polygon style="opacity:0.07;" points="1064.824,212.773 1064.824,174.135 764.755,174.135 764.755,1051.235 1035.599,1051.235 
		1035.599,554.727 1035.845,554.727 1035.845,534.441 1035.599,534.441 1035.599,295.984 1035.845,295.984 1035.845,272.664 
		1055.421,272.664 1055.421,234.025 1035.845,234.025 1035.845,212.773 	"/>
</g>
</svg>
