<?xml version="1.0" encoding="iso-8859-1"?>
<!-- Generator: Adobe Illustrator 22.0.1, SVG Export Plug-In . SVG Version: 6.00 Build 0)  -->
<svg version="1.1" id="Capa_1" xmlns="http://www.w3.org/2000/svg" xmlns:xlink="http://www.w3.org/1999/xlink" x="0px" y="0px"
	 viewBox="0 0 1529.897 923.788" style="enable-background:new 0 0 1529.897 923.788;" xml:space="preserve">
<g>
	<g style="opacity:0.2;">
		<polygon style="fill:#BEDBF1;" points="524.38,123.164 387.172,279.852 387.172,489.958 398.04,587.77 544.081,624.45 
			985.429,624.45 1142.725,489.958 1142.725,333.052 1029.033,140.628 		"/>
		<g>
			<path style="fill:#FFFFFF;" d="M539.974,210.568h-352.53c-19.132,0-34.642-15.51-34.642-34.642s15.51-34.642,34.642-34.642
				h352.53c19.132,0,34.642,15.51,34.642,34.642S559.106,210.568,539.974,210.568z"/>
		</g>
		<g>
			<path style="fill:#FFFFFF;" d="M1300.364,210.568h-352.53c-19.132,0-34.642-15.51-34.642-34.642s15.51-34.642,34.642-34.642
				h352.53c19.132,0,34.642,15.51,34.642,34.642S1319.496,210.568,1300.364,210.568z"/>
		</g>
		<g>
			<path style="fill:#FFFFFF;" d="M1439.639,349.135h-352.53c-19.132,0-34.642-15.51-34.642-34.642s15.51-34.642,34.642-34.642
				h352.53c19.132,0,34.642,15.51,34.642,34.642S1458.771,349.135,1439.639,349.135z"/>
		</g>
		<g>
			<path style="fill:#FFFFFF;" d="M387.172,349.135H34.642C15.51,349.135,0,333.625,0,314.494s15.51-34.642,34.642-34.642h352.53
				c19.132,0,34.642,15.51,34.642,34.642S406.304,349.135,387.172,349.135z"/>
		</g>
		<g>
			<path style="fill:#FFFFFF;" d="M463.578,481.698h-352.53c-19.132,0-34.642-15.51-34.642-34.642
				c0-19.132,15.51-34.642,34.642-34.642h352.53c19.132,0,34.642,15.51,34.642,34.642
				C498.22,466.188,482.71,481.698,463.578,481.698z"/>
		</g>
		<g>
			<path style="fill:#FFFFFF;" d="M1495.255,489.958h-352.53c-19.132,0-34.642-15.51-34.642-34.642s15.51-34.642,34.642-34.642
				h352.53c19.132,0,34.642,15.51,34.642,34.642S1514.387,489.958,1495.255,489.958z"/>
		</g>
		<g>
			<path style="fill:#FFFFFF;" d="M1375.781,622.412H872.417c-19.132,0-34.642-15.51-34.642-34.642
				c0-19.132,15.51-34.642,34.642-34.642h503.363c19.132,0,34.642,15.51,34.642,34.642
				C1410.422,606.902,1394.912,622.412,1375.781,622.412z"/>
		</g>
		<g>
			<path style="fill:#FFFFFF;" d="M577.712,622.412H74.349c-19.132,0-34.642-15.51-34.642-34.642
				c0-19.132,15.51-34.642,34.642-34.642h503.363c19.132,0,34.642,15.51,34.642,34.642
				C612.354,606.902,596.844,622.412,577.712,622.412z"/>
		</g>
		<g>
			<path style="fill:#BEDBF1;" d="M985.429,693.733H544.081c-19.132,0-34.642-15.51-34.642-34.642
				c0-19.132,15.51-34.642,34.642-34.642h441.347c19.132,0,34.642,15.51,34.642,34.642
				C1020.07,678.224,1004.56,693.733,985.429,693.733z"/>
		</g>
		<g>
			<path style="fill:#BEDBF1;" d="M1212.009,559.242H770.661c-19.132,0-34.642-15.51-34.642-34.642
				c0-19.132,15.51-34.642,34.642-34.642h441.347c19.132,0,34.642,15.51,34.642,34.642
				C1246.65,543.732,1231.14,559.242,1212.009,559.242z"/>
		</g>
		<g>
			<path style="fill:#BEDBF1;" d="M1284.349,419.076H843.001c-19.132,0-34.642-15.51-34.642-34.642s15.51-34.642,34.642-34.642
				h441.347c19.132,0,34.642,15.51,34.642,34.642S1303.48,419.076,1284.349,419.076z"/>
		</g>
		<g>
			<path style="fill:#BEDBF1;" d="M1029.033,140.628H483.339c-19.132,0-34.642-15.51-34.642-34.642s15.51-34.642,34.642-34.642
				h545.694c19.132,0,34.642,15.51,34.642,34.642S1048.165,140.628,1029.033,140.628z"/>
		</g>
		<g>
			<path style="fill:#BEDBF1;" d="M824.068,279.852H278.374c-19.132,0-34.642-15.51-34.642-34.642s15.51-34.642,34.642-34.642
				h545.694c19.132,0,34.642,15.51,34.642,34.642S843.2,279.852,824.068,279.852z"/>
		</g>
		<g>
			<path style="fill:#BEDBF1;" d="M824.068,415.471H278.374c-19.132,0-34.642-15.51-34.642-34.642s15.51-34.642,34.642-34.642
				h545.694c19.132,0,34.642,15.51,34.642,34.642S843.2,415.471,824.068,415.471z"/>
		</g>
		<g>
			<path style="fill:#BEDBF1;" d="M895.39,551.091H349.695c-19.132,0-34.642-15.51-34.642-34.642
				c0-19.132,15.51-34.642,34.642-34.642H895.39c19.132,0,34.642,15.51,34.642,34.642
				C930.031,535.581,914.521,551.091,895.39,551.091z"/>
		</g>
		<g>
			<path style="fill:#BEDBF1;" d="M1150.705,279.852H709.358c-19.132,0-34.642-15.51-34.642-34.642s15.51-34.642,34.642-34.642
				h441.347c19.132,0,34.642,15.51,34.642,34.642S1169.837,279.852,1150.705,279.852z"/>
		</g>
	</g>
	<line style="fill:none;stroke:#E0E0E0;stroke-miterlimit:10;" x1="322.956" y1="923.288" x2="1191.412" y2="923.288"/>
	<path style="opacity:0.2;fill:#BEDBF1;" d="M309.307,71.345h-43.988c-19.619,0-35.671-16.052-35.671-35.671v-0.002
		C229.648,16.052,245.7,0,265.319,0l43.988,0c19.619,0,35.671,16.052,35.671,35.671v0.002
		C344.978,55.293,328.926,71.345,309.307,71.345z"/>
	<g>
		<path style="fill:#02315E;" d="M864.907,291.324c0,0,20.481-2.276,49.609,10.468c29.128,12.744,53.705,3.186,53.705,3.186
			s-11.075,14.412-41.417,11.833c0,0,15.93,7.737,45.058,2.731c0,0-29.049,16.97-60.532,7.434
			c-31.556-9.558-46.423-5.765-46.423-5.765V291.324z"/>
		<g>
			<rect x="861.569" y="291.167" style="fill:#D2D8D8;" width="3.338" height="90.122"/>
			<path style="fill:#D2D8D8;" d="M866.386,288.725c0,1.738-1.409,3.148-3.148,3.148c-1.738,0-3.147-1.409-3.147-3.148
				c0-1.738,1.409-3.147,3.147-3.147C864.976,285.578,866.386,286.987,866.386,288.725z"/>
		</g>
		<path style="fill:#02315E;" d="M674.069,291.324c0,0-20.481-2.276-49.609,10.468c-29.128,12.744-53.705,3.186-53.705,3.186
			s11.075,14.412,41.417,11.833c0,0-15.93,7.737-45.058,2.731c0,0,29.049,16.97,60.532,7.434
			c31.556-9.558,46.423-5.765,46.423-5.765V291.324z"/>
		<g>
			
				<rect x="674.069" y="291.167" transform="matrix(-1 -1.224647e-16 1.224647e-16 -1 1351.4758 672.4548)" style="fill:#D2D8D8;" width="3.338" height="90.122"/>
			<path style="fill:#D2D8D8;" d="M672.59,288.725c0,1.738,1.409,3.148,3.147,3.148c1.738,0,3.148-1.409,3.148-3.148
				c0-1.738-1.409-3.147-3.148-3.147C674,285.578,672.59,286.987,672.59,288.725z"/>
		</g>
		<rect x="703.271" y="255.748" style="fill:#F9F9F9;" width="130.551" height="142.779"/>
		<g>
			<g>
				<g>
					<path style="fill:#BBF2EA;" d="M781.052,317.236c-0.717-19.966-6.009-31.765-12.434-31.765c-6.425,0-11.717,11.8-12.434,31.765
						h-0.086v29.039h25.039v-29.039H781.052z"/>
					<g>
						<path style="opacity:0.35;fill:#F4F4F4;" d="M703.217,307.749h18.966c1.975,0,3.59,1.616,3.59,3.591v9.066
							c0,1.975-1.616,3.59-3.59,3.59h-18.966V307.749z"/>
						<g>
							<path style="opacity:0.35;fill:#F4F4F4;" d="M833.964,336.227h-18.966c-1.975,0-3.591-1.616-3.591-3.59v-9.066
								c0-1.975,1.616-3.591,3.591-3.591h18.966V336.227z"/>
							<path style="opacity:0.35;fill:#F4F4F4;" d="M799.069,352.474h34.896v-16.192c0-0.03-0.025-0.055-0.055-0.055h-34.84
								c-0.66,0-1.2,0.54-1.2,1.2v13.846C797.869,351.934,798.409,352.474,799.069,352.474z"/>
						</g>
					</g>
				</g>
				<g>
					<rect x="703.271" y="264.301" style="opacity:0.05;" width="130.693" height="15.75"/>
					<g>
						<rect x="721.668" y="264.301" style="opacity:0.5;fill:#737F86;" width="3.7" height="15.75"/>
						<rect x="751.583" y="264.301" style="opacity:0.5;fill:#737F86;" width="3.7" height="15.75"/>
						<rect x="781.498" y="264.301" style="opacity:0.5;fill:#737F86;" width="3.7" height="15.75"/>
						<rect x="811.412" y="264.301" style="opacity:0.5;fill:#737F86;" width="3.7" height="15.75"/>
					</g>
				</g>
			</g>
			<rect x="703.271" y="361.32" style="opacity:0.25;fill:#97A7B3;" width="130.551" height="10.179"/>
		</g>
		<path style="fill:#02315E;" d="M769.364,100.772c0,0,20.481-2.276,49.609,10.468c29.129,12.744,53.706,3.186,53.706,3.186
			s-11.075,14.413-41.417,11.833c0,0,15.93,7.737,45.058,2.731c0,0-29.049,16.969-60.532,7.434
			c-31.556-9.558-46.423-5.765-46.423-5.765V100.772z"/>
		<g>
			<rect x="766.026" y="100.614" style="fill:#D2D8D8;" width="3.338" height="90.122"/>
			<circle style="fill:#D2D8D8;" cx="767.695" cy="98.173" r="3.147"/>
		</g>
		<path style="fill:#C1C1C1;" d="M691.856,260.444l71.904-111.04c2.47-3.003,7.067-3.003,9.537,0l71.951,111.097
			c1.247,1.516,0.168,3.8-1.795,3.8H693.677C691.685,264.301,690.59,261.983,691.856,260.444z"/>
		<g>
			<rect x="668.356" y="371.617" style="fill:#F9F9F9;" width="200.382" height="168.053"/>
			<g>
				<defs>
					<rect id="SVGID_1_" x="668.356" y="407.514" width="200.382" height="147.621"/>
				</defs>
				<use xlink:href="#SVGID_1_"  style="overflow:visible;fill:#F9F9F9;"/>
				<clipPath id="SVGID_2_">
					<use xlink:href="#SVGID_1_"  style="overflow:visible;"/>
				</clipPath>
				<path style="opacity:0.24;clip-path:url(#SVGID_2_);fill:#F9F9F9;" d="M940.227,491.345H915.89
					c-2.189,0-3.963,1.774-3.963,3.963v23.683c0,2.189-1.774,3.963-3.963,3.963h-26.955c-2.189,0-3.963-1.774-3.963-3.963v-23.683
					c0-2.189-1.774-3.963-3.963-3.963h-24.338c-2.189,0-3.963,1.774-3.963,3.963v23.683c0,2.189-1.774,3.963-3.963,3.963h-26.955
					c-2.189,0-3.963-1.774-3.963-3.963v-23.683c0-2.189-1.774-3.963-3.963-3.963H781.6c-2.189,0-3.963,1.774-3.963,3.963v23.683
					c0,2.189-1.774,3.963-3.963,3.963h-26.955c-2.189,0-3.963-1.774-3.963-3.963v-23.683c0-2.189-1.774-3.963-3.963-3.963h-24.338
					c-2.189,0-3.963,1.774-3.963,3.963v23.683c0,2.189-1.774,3.963-3.963,3.963h-26.955c-2.189,0-3.963-1.774-3.963-3.963v-23.683
					c0-2.189-1.774-3.963-3.963-3.963h-24.338c-2.189,0-3.963,1.774-3.963,3.963v27.646v0.655v67.182
					c0,2.189,1.774,3.963,3.963,3.963h292.911c2.189,0,3.963-1.774,3.963-3.963v-67.182h0.006v-28.301
					C944.19,493.119,942.416,491.345,940.227,491.345z"/>
			</g>
		</g>
		<g>
			<g>
				<path style="opacity:0.35;fill:#F4F4F4;" d="M868.738,447.491h-14.542c-1.975,0-3.59-1.616-3.59-3.59v-9.066
					c0-1.975,1.616-3.591,3.59-3.591h14.542V447.491z"/>
				<g>
					<g>
						<path style="fill:#BBF2EA;" d="M690.505,479.425h0.08c0.665-18.531,5.577-33.212,11.54-33.212
							c5.964,0,10.875,14.682,11.541,33.212H690.505z"/>
						<path style="fill:#BBF2EA;" d="M755.079,479.425h0.08c0.665-18.531,5.577-33.212,11.54-33.212
							c5.964,0,10.875,14.682,11.541,33.212H755.079z"/>
						<path style="fill:#BBF2EA;" d="M819.421,479.425h0.079c0.666-18.531,5.577-33.212,11.541-33.212s10.875,14.682,11.54,33.212
							H819.421z"/>
					</g>
				</g>
			</g>
			<g>
				<rect x="668.356" y="407.514" style="opacity:0.05;" width="200.382" height="15.75"/>
				<g>
					<rect x="676.953" y="407.514" style="opacity:0.5;fill:#D2D8D8;" width="3.7" height="15.75"/>
					<rect x="706.868" y="407.514" style="opacity:0.5;fill:#D2D8D8;" width="3.7" height="15.75"/>
					<rect x="736.782" y="407.514" style="opacity:0.5;fill:#D2D8D8;" width="3.7" height="15.75"/>
					<rect x="766.697" y="407.514" style="opacity:0.5;fill:#D2D8D8;" width="3.7" height="15.75"/>
					<rect x="796.612" y="407.514" style="opacity:0.5;fill:#D2D8D8;" width="3.7" height="15.75"/>
					<rect x="826.527" y="407.514" style="opacity:0.5;fill:#D2D8D8;" width="3.7" height="15.75"/>
					<rect x="856.441" y="407.514" style="opacity:0.5;fill:#D2D8D8;" width="3.7" height="15.75"/>
				</g>
			</g>
		</g>
		<path style="fill:#D2D8D8;" d="M882.223,407.514H654.871v-35.039c0-0.539,0.437-0.976,0.976-0.976h225.395
			c0.542,0,0.981,0.439,0.981,0.981V407.514z"/>
		<rect x="634.258" y="594.966" style="fill:#F9F9F9;" width="268.579" height="260.308"/>
		<g>
			<g>
				<path style="opacity:0.35;fill:#F4F4F4;" d="M634.203,747.292h18.966c1.975,0,3.59-1.616,3.59-3.59v-9.066
					c0-1.975-1.616-3.591-3.59-3.591h-18.966V747.292z"/>
				<path style="opacity:0.35;fill:#F4F4F4;" d="M669.098,763.539h-34.895v-16.247h34.895c0.66,0,1.2,0.54,1.2,1.2v13.847
					C670.299,762.999,669.759,763.539,669.098,763.539z"/>
			</g>
			<path style="opacity:0.35;fill:#F4F4F4;" d="M878.417,698.807h-33.695c-0.66,0-1.2-0.54-1.2-1.2v-13.846c0-0.66,0.54-1.2,1.2-1.2
				h33.695c0.66,0,1.2,0.54,1.2,1.2v13.846C879.617,698.267,879.077,698.807,878.417,698.807z"/>
			<g>
				<path style="opacity:0.35;fill:#F4F4F4;" d="M676.875,666.313H643.18c-0.66,0-1.2-0.54-1.2-1.2v-13.846c0-0.66,0.54-1.2,1.2-1.2
					h33.695c0.66,0,1.2,0.54,1.2,1.2v13.846C678.075,665.773,677.535,666.313,676.875,666.313z"/>
				<path style="opacity:0.35;fill:#F4F4F4;" d="M694.922,682.56h-33.695c-0.66,0-1.2-0.54-1.2-1.2v-13.846c0-0.66,0.54-1.2,1.2-1.2
					h33.695c0.66,0,1.2,0.54,1.2,1.2v13.847C696.123,682.02,695.582,682.56,694.922,682.56z"/>
				<path style="opacity:0.35;fill:#F4F4F4;" d="M634.203,682.56h22.233c1.975,0,3.591-1.616,3.591-3.59v-9.066
					c0-1.975-1.616-3.591-3.591-3.591h-22.233V682.56z"/>
			</g>
		</g>
		<path style="fill:#95554B;" d="M678.304,855.275H858.79c0,0-7.247-129.103-90.243-168.612
			C768.547,686.662,691.273,708.785,678.304,855.275z"/>
		<g>
			<defs>
				<path id="SVGID_3_" d="M678.304,855.275H858.79c0,0-7.247-129.103-90.243-168.612
					C768.547,686.662,691.273,708.785,678.304,855.275z"/>
			</defs>
			<use xlink:href="#SVGID_3_"  style="overflow:visible;fill:#B5B5B5;"/>
			<clipPath id="SVGID_4_">
				<use xlink:href="#SVGID_3_"  style="overflow:visible;"/>
			</clipPath>
			<g style="clip-path:url(#SVGID_4_);">
				
					<line style="opacity:0.39;fill:#B5B5B5;stroke:#DBDDDD;stroke-width:6;stroke-miterlimit:10;" x1="768.547" y1="686.662" x2="768.547" y2="855.275"/>
				
					<line style="opacity:0.39;fill:#B5B5B5;stroke:#DBDDDD;stroke-width:6;stroke-miterlimit:10;" x1="786.496" y1="686.662" x2="786.496" y2="855.275"/>
				
					<line style="opacity:0.39;fill:#B5B5B5;stroke:#DBDDDD;stroke-width:6;stroke-miterlimit:10;" x1="804.445" y1="686.662" x2="804.445" y2="855.275"/>
				
					<line style="opacity:0.39;fill:#B5B5B5;stroke:#DBDDDD;stroke-width:6;stroke-miterlimit:10;" x1="822.394" y1="686.662" x2="822.394" y2="855.275"/>
				
					<line style="opacity:0.39;fill:#B5B5B5;stroke:#DBDDDD;stroke-width:6;stroke-miterlimit:10;" x1="840.342" y1="686.662" x2="840.342" y2="855.275"/>
				
					<line style="opacity:0.39;fill:#B5B5B5;stroke:#DBDDDD;stroke-width:6;stroke-miterlimit:10;" x1="696.752" y1="686.662" x2="696.752" y2="855.275"/>
				
					<line style="opacity:0.39;fill:#B5B5B5;stroke:#DBDDDD;stroke-width:6;stroke-miterlimit:10;" x1="714.701" y1="686.662" x2="714.701" y2="855.275"/>
				
					<line style="opacity:0.39;fill:#B5B5B5;stroke:#DBDDDD;stroke-width:6;stroke-miterlimit:10;" x1="732.649" y1="686.662" x2="732.649" y2="855.275"/>
				
					<line style="opacity:0.39;fill:#B5B5B5;stroke:#DBDDDD;stroke-width:6;stroke-miterlimit:10;" x1="750.598" y1="686.662" x2="750.598" y2="855.275"/>
			</g>
			<use xlink:href="#SVGID_3_"  style="overflow:visible;fill:none;stroke:#DBDDDD;stroke-width:6;stroke-miterlimit:10;"/>
		</g>
		<g>
			<g>
				<g>
					<path style="fill:#4A3634;" d="M770.551,706.356c0,1.107-0.897,2.003-2.004,2.003c-1.107,0-2.004-0.897-2.004-2.003
						c0-1.107,0.897-2.004,2.004-2.004C769.654,704.353,770.551,705.25,770.551,706.356z"/>
					<path style="fill:#4A3634;" d="M770.551,736.271c0,1.107-0.897,2.003-2.004,2.003c-1.107,0-2.004-0.897-2.004-2.003
						c0-1.107,0.897-2.004,2.004-2.004C769.654,734.268,770.551,735.165,770.551,736.271z"/>
					<path style="fill:#4A3634;" d="M770.551,766.186c0,1.107-0.897,2.003-2.004,2.003c-1.107,0-2.004-0.897-2.004-2.003
						c0-1.107,0.897-2.004,2.004-2.004C769.654,764.182,770.551,765.079,770.551,766.186z"/>
					<path style="fill:#4A3634;" d="M770.551,796.101c0,1.107-0.897,2.003-2.004,2.003c-1.107,0-2.004-0.897-2.004-2.003
						c0-1.107,0.897-2.004,2.004-2.004C769.654,794.097,770.551,794.994,770.551,796.101z"/>
					<path style="fill:#4A3634;" d="M770.551,826.015c0,1.107-0.897,2.003-2.004,2.003c-1.107,0-2.004-0.897-2.004-2.003
						c0-1.107,0.897-2.004,2.004-2.004C769.654,824.012,770.551,824.909,770.551,826.015z"/>
				</g>
				<g>
					<path style="fill:#4A3634;" d="M788.294,706.356c0,1.107-0.897,2.003-2.004,2.003s-2.004-0.897-2.004-2.003
						c0-1.107,0.897-2.004,2.004-2.004S788.294,705.25,788.294,706.356z"/>
					<path style="fill:#4A3634;" d="M788.294,736.271c0,1.107-0.897,2.003-2.004,2.003s-2.004-0.897-2.004-2.003
						c0-1.107,0.897-2.004,2.004-2.004S788.294,735.165,788.294,736.271z"/>
					<path style="fill:#4A3634;" d="M788.294,766.186c0,1.107-0.897,2.003-2.004,2.003s-2.004-0.897-2.004-2.003
						c0-1.107,0.897-2.004,2.004-2.004S788.294,765.079,788.294,766.186z"/>
					<path style="fill:#4A3634;" d="M788.294,796.101c0,1.107-0.897,2.003-2.004,2.003s-2.004-0.897-2.004-2.003
						c0-1.107,0.897-2.004,2.004-2.004S788.294,794.994,788.294,796.101z"/>
					<path style="fill:#4A3634;" d="M788.294,826.015c0,1.107-0.897,2.003-2.004,2.003s-2.004-0.897-2.004-2.003
						c0-1.107,0.897-2.004,2.004-2.004S788.294,824.909,788.294,826.015z"/>
				</g>
				<g>
					<path style="fill:#4A3634;" d="M752.397,706.356c0,1.107-0.897,2.003-2.004,2.003c-1.107,0-2.004-0.897-2.004-2.003
						c0-1.107,0.897-2.004,2.004-2.004C751.5,704.353,752.397,705.25,752.397,706.356z"/>
					<path style="fill:#4A3634;" d="M752.397,736.271c0,1.107-0.897,2.003-2.004,2.003c-1.107,0-2.004-0.897-2.004-2.003
						c0-1.107,0.897-2.004,2.004-2.004C751.5,734.268,752.397,735.165,752.397,736.271z"/>
					<path style="fill:#4A3634;" d="M752.397,766.186c0,1.107-0.897,2.003-2.004,2.003c-1.107,0-2.004-0.897-2.004-2.003
						c0-1.107,0.897-2.004,2.004-2.004C751.5,764.182,752.397,765.079,752.397,766.186z"/>
					<path style="fill:#4A3634;" d="M752.397,796.101c0,1.107-0.897,2.003-2.004,2.003c-1.107,0-2.004-0.897-2.004-2.003
						c0-1.107,0.897-2.004,2.004-2.004C751.5,794.097,752.397,794.994,752.397,796.101z"/>
					<path style="fill:#4A3634;" d="M752.397,826.015c0,1.107-0.897,2.003-2.004,2.003c-1.107,0-2.004-0.897-2.004-2.003
						c0-1.107,0.897-2.004,2.004-2.004C751.5,824.012,752.397,824.909,752.397,826.015z"/>
				</g>
				<g>
					<path style="fill:#4A3634;" d="M734.681,736.271c0,1.107-0.897,2.003-2.004,2.003c-1.107,0-2.004-0.897-2.004-2.003
						c0-1.107,0.897-2.004,2.004-2.004C733.783,734.268,734.681,735.165,734.681,736.271z"/>
					<path style="fill:#4A3634;" d="M734.681,766.186c0,1.107-0.897,2.003-2.004,2.003c-1.107,0-2.004-0.897-2.004-2.003
						c0-1.107,0.897-2.004,2.004-2.004C733.783,764.182,734.681,765.079,734.681,766.186z"/>
					<path style="fill:#4A3634;" d="M734.681,796.101c0,1.107-0.897,2.003-2.004,2.003c-1.107,0-2.004-0.897-2.004-2.003
						c0-1.107,0.897-2.004,2.004-2.004C733.783,794.097,734.681,794.994,734.681,796.101z"/>
					<path style="fill:#4A3634;" d="M734.681,826.015c0,1.107-0.897,2.003-2.004,2.003c-1.107,0-2.004-0.897-2.004-2.003
						c0-1.107,0.897-2.004,2.004-2.004C733.783,824.012,734.681,824.909,734.681,826.015z"/>
				</g>
				<g>
					<path style="fill:#4A3634;" d="M716.499,766.186c0,1.107-0.897,2.003-2.004,2.003c-1.107,0-2.004-0.897-2.004-2.003
						c0-1.107,0.897-2.004,2.004-2.004C715.602,764.182,716.499,765.079,716.499,766.186z"/>
					<path style="fill:#4A3634;" d="M716.499,796.101c0,1.107-0.897,2.003-2.004,2.003c-1.107,0-2.004-0.897-2.004-2.003
						c0-1.107,0.897-2.004,2.004-2.004C715.602,794.097,716.499,794.994,716.499,796.101z"/>
					<path style="fill:#4A3634;" d="M716.499,826.015c0,1.107-0.897,2.003-2.004,2.003c-1.107,0-2.004-0.897-2.004-2.003
						c0-1.107,0.897-2.004,2.004-2.004C715.602,824.012,716.499,824.909,716.499,826.015z"/>
				</g>
				<g>
					<path style="fill:#4A3634;" d="M806.492,736.271c0,1.107-0.897,2.003-2.004,2.003c-1.107,0-2.003-0.897-2.003-2.003
						c0-1.107,0.897-2.004,2.003-2.004C805.595,734.268,806.492,735.165,806.492,736.271z"/>
					<path style="fill:#4A3634;" d="M806.492,766.186c0,1.107-0.897,2.003-2.004,2.003c-1.107,0-2.003-0.897-2.003-2.003
						c0-1.107,0.897-2.004,2.003-2.004C805.595,764.182,806.492,765.079,806.492,766.186z"/>
					<path style="fill:#4A3634;" d="M806.492,796.101c0,1.107-0.897,2.003-2.004,2.003c-1.107,0-2.003-0.897-2.003-2.003
						c0-1.107,0.897-2.004,2.003-2.004C805.595,794.097,806.492,794.994,806.492,796.101z"/>
					<path style="fill:#4A3634;" d="M806.492,826.015c0,1.107-0.897,2.003-2.004,2.003c-1.107,0-2.003-0.897-2.003-2.003
						c0-1.107,0.897-2.004,2.003-2.004C805.595,824.012,806.492,824.909,806.492,826.015z"/>
				</g>
				<g>
					<path style="fill:#4A3634;" d="M824.441,766.186c0,1.107-0.897,2.003-2.004,2.003c-1.107,0-2.003-0.897-2.003-2.003
						c0-1.107,0.897-2.004,2.003-2.004C823.544,764.182,824.441,765.079,824.441,766.186z"/>
					<path style="fill:#4A3634;" d="M824.441,796.101c0,1.107-0.897,2.003-2.004,2.003c-1.107,0-2.003-0.897-2.003-2.003
						c0-1.107,0.897-2.004,2.003-2.004C823.544,794.097,824.441,794.994,824.441,796.101z"/>
					<path style="fill:#4A3634;" d="M824.441,826.015c0,1.107-0.897,2.003-2.004,2.003c-1.107,0-2.003-0.897-2.003-2.003
						c0-1.107,0.897-2.004,2.003-2.004C823.544,824.012,824.441,824.909,824.441,826.015z"/>
				</g>
				<g>
					<path style="fill:#4A3634;" d="M842.39,796.101c0,1.107-0.897,2.003-2.004,2.003s-2.003-0.897-2.003-2.003
						c0-1.107,0.897-2.004,2.003-2.004S842.39,794.994,842.39,796.101z"/>
					<path style="fill:#4A3634;" d="M842.39,826.015c0,1.107-0.897,2.003-2.004,2.003s-2.003-0.897-2.003-2.003
						c0-1.107,0.897-2.004,2.003-2.004S842.39,824.909,842.39,826.015z"/>
				</g>
				<g>
					<path style="fill:#4A3634;" d="M698.55,796.101c0,1.107-0.897,2.003-2.004,2.003s-2.004-0.897-2.004-2.003
						c0-1.107,0.897-2.004,2.004-2.004S698.55,794.994,698.55,796.101z"/>
					<path style="fill:#4A3634;" d="M698.55,826.015c0,1.107-0.897,2.003-2.004,2.003s-2.004-0.897-2.004-2.003
						c0-1.107,0.897-2.004,2.004-2.004S698.55,824.909,698.55,826.015z"/>
				</g>
			</g>
			<path style="fill:none;stroke:#4A3634;stroke-miterlimit:10;" d="M774.16,811.806c0,3.186-2.583,5.769-5.769,5.769
				c-3.186,0-5.769-2.583-5.769-5.769c0-3.187,2.583-5.77,5.769-5.77C771.577,806.036,774.16,808.619,774.16,811.806z"/>
		</g>
		<g>
			<rect x="634.203" y="608.952" style="opacity:0.05;" width="268.374" height="15.75"/>
			<g style="opacity:0.5;">
				<rect x="647.038" y="608.952" style="opacity:0.5;fill:#D2D8D8;" width="3.7" height="15.75"/>
				<rect x="676.953" y="608.952" style="opacity:0.5;fill:#D2D8D8;" width="3.7" height="15.75"/>
				<rect x="706.868" y="608.952" style="opacity:0.5;fill:#D2D8D8;" width="3.7" height="15.75"/>
				<rect x="736.782" y="608.952" style="opacity:0.5;fill:#D2D8D8;" width="3.7" height="15.75"/>
				<rect x="766.697" y="608.952" style="opacity:0.5;fill:#D2D8D8;" width="3.7" height="15.75"/>
				<rect x="796.612" y="608.952" style="opacity:0.5;fill:#D2D8D8;" width="3.7" height="15.75"/>
				<rect x="826.527" y="608.952" style="opacity:0.5;fill:#D2D8D8;" width="3.7" height="15.75"/>
				<rect x="856.441" y="608.952" style="opacity:0.5;fill:#D2D8D8;" width="3.7" height="15.75"/>
				<rect x="886.356" y="608.952" style="opacity:0.5;fill:#D2D8D8;" width="3.7" height="15.75"/>
			</g>
		</g>
		<path style="fill:#D2D8D8;" d="M634.258,690.077h-30.685c-2.318,0-4.196-1.879-4.196-4.196v-23.217
			c0-2.318-1.879-4.196-4.196-4.196h-23.871c-2.318,0-4.196,1.879-4.196,4.196v23.217c0,2.317-1.879,4.196-4.196,4.196h-26.489
			c-2.317,0-4.196-1.879-4.196-4.196v-23.217c0-2.318-1.879-4.196-4.196-4.196h-28.067v31.609v0.655v164.105
			c0,0.242,0.196,0.438,0.437,0.438h133.852V690.077z"/>
		<rect x="499.969" y="658.468" style="opacity:0.05;" width="10.359" height="195.545"/>
		<rect x="623.899" y="689.995" style="opacity:0.05;" width="10.359" height="164.018"/>
		<path style="opacity:0.05;" d="M572.732,837.529h-11.237c-0.35,0-0.637-0.286-0.637-0.637V712.228c0-0.35,0.286-0.637,0.637-0.637
			h11.237c0.35,0,0.637,0.286,0.637,0.637v124.664C573.368,837.242,573.082,837.529,572.732,837.529z"/>
		<path style="fill:#D2D8D8;" d="M902.836,690.077h31.2c2.033,0,3.681-1.648,3.681-3.681v-24.247c0-2.033,1.648-3.681,3.681-3.681
			H966.3c2.033,0,3.681,1.648,3.681,3.681v24.247c0,2.033,1.648,3.681,3.681,3.681h27.519c2.033,0,3.681-1.648,3.681-3.681v-24.247
			c0-2.033,1.648-3.681,3.681-3.681h28.583v31.609v0.655v164.543H902.836V690.077z"/>
		<rect x="1026.767" y="658.468" style="opacity:0.3;fill:#D2D8D8;" width="10.359" height="195.545"/>
		<rect x="902.836" y="690.162" style="opacity:0.3;fill:#D2D8D8;" width="10.359" height="163.85"/>
		<path style="opacity:0.3;fill:#D2D8D8;" d="M975.599,837.529h-11.237c-0.35,0-0.637-0.286-0.637-0.637V712.228
			c0-0.35,0.286-0.637,0.637-0.637h11.237c0.35,0,0.637,0.286,0.637,0.637v124.664C976.236,837.242,975.95,837.529,975.599,837.529z
			"/>
		<path style="fill:#7EE5AF;" d="M439.693,363.178c0,0-20.481-2.276-49.609,10.468c-29.129,12.744-53.706,3.186-53.706,3.186
			s11.075,14.412,41.417,11.833c0,0-15.93,7.737-45.058,2.731c0,0,29.049,16.97,60.532,7.434
			c31.556-9.558,46.423-5.765,46.423-5.765V363.178z"/>
		<g>
			
				<rect x="439.693" y="363.021" transform="matrix(-1 -1.224647e-16 1.224647e-16 -1 882.7239 816.1635)" style="fill:#D2D8D8;" width="3.338" height="90.122"/>
			<path style="fill:#D2D8D8;" d="M438.214,360.579c0,1.738,1.409,3.148,3.147,3.148c1.738,0,3.147-1.409,3.147-3.148
				c0-1.738-1.409-3.147-3.147-3.147C439.623,357.432,438.214,358.841,438.214,360.579z"/>
		</g>
		<g>
			<path style="fill:#C1C1C1;" d="M363.967,537.089l71.904-111.04c2.47-3.003,7.067-3.003,9.537,0l71.951,111.097
				c1.247,1.516,0.168,3.8-1.795,3.8H365.788C363.796,540.946,362.701,538.628,363.967,537.089z"/>
			<g>
				<defs>
					<path id="SVGID_5_" d="M363.967,537.089l71.904-111.04c2.47-3.003,7.067-3.003,9.537,0l71.951,111.097
						c1.247,1.516,0.168,3.8-1.795,3.8H365.788C363.796,540.946,362.701,538.628,363.967,537.089z"/>
				</defs>
				<use xlink:href="#SVGID_5_"  style="overflow:visible;fill:#C1C1C1;"/>
				<clipPath id="SVGID_6_">
					<use xlink:href="#SVGID_5_"  style="overflow:visible;"/>
				</clipPath>
				<path style="opacity:0.24;clip-path:url(#SVGID_6_);fill:#C1C1C1;" d="M531.476,490.669h-23.414
					c-2.444,0-4.425,1.981-4.425,4.425v22.759c0,2.444-1.981,4.425-4.425,4.425h-26.031c-2.444,0-4.425-1.981-4.425-4.425v-22.759
					c0-2.444-1.981-4.425-4.425-4.425h-23.414c-2.444,0-4.425,1.981-4.425,4.425v22.759c0,2.444-1.981,4.425-4.425,4.425h-26.032
					c-2.444,0-4.425-1.981-4.425-4.425v-22.759c0-2.444-1.981-4.425-4.425-4.425h-23.414c-2.444,0-4.425,1.981-4.425,4.425v27.184
					v0.655v66.554c0,2.444,1.981,4.425,4.425,4.425h157.703c2.444,0,4.425-1.981,4.425-4.425v-94.393
					C535.901,492.65,533.919,490.669,531.476,490.669z"/>
			</g>
		</g>
		<rect x="381.348" y="594.229" style="fill:#F9F9F9;" width="118.621" height="261.046"/>
		<g>
			<path style="opacity:0.35;fill:#F4F4F4;" d="M381.348,722.921h18.966c1.975,0,3.59,1.616,3.59,3.59v9.066
				c0,1.975-1.616,3.591-3.59,3.591h-18.966V722.921z"/>
			<g>
				<path style="opacity:0.45;fill:#F4F4F4;" d="M473.053,806.036h-33.695c-0.66,0-1.2-0.54-1.2-1.2V790.99c0-0.66,0.54-1.2,1.2-1.2
					h33.695c0.66,0,1.2,0.54,1.2,1.2v13.847C474.253,805.496,473.713,806.036,473.053,806.036z"/>
				<path style="opacity:0.45;fill:#F4F4F4;" d="M486.592,822.283h-33.695c-0.66,0-1.2-0.54-1.2-1.2v-13.846
					c0-0.66,0.54-1.2,1.2-1.2h33.695c0.66,0,1.2,0.54,1.2,1.2v13.847C487.792,821.743,487.252,822.283,486.592,822.283z"/>
			</g>
		</g>
		<path style="fill:#BBF2EA;" d="M453.092,667.677c-0.717-19.966-6.009-31.766-12.434-31.766s-11.717,11.8-12.434,31.766h-0.086
			v29.039h25.04v-29.039H453.092z"/>
		<g>
			<rect x="381.323" y="608.952" style="opacity:0.05;" width="118.671" height="15.75"/>
			<g style="opacity:0.5;">
				<rect x="393.936" y="608.952" style="opacity:0.5;fill:#D2D8D8;" width="3.7" height="15.75"/>
				<rect x="423.851" y="608.952" style="opacity:0.5;fill:#D2D8D8;" width="3.7" height="15.75"/>
				<rect x="453.766" y="608.952" style="opacity:0.5;fill:#D2D8D8;" width="3.7" height="15.75"/>
				<rect x="483.68" y="608.952" style="opacity:0.5;fill:#D2D8D8;" width="3.7" height="15.75"/>
			</g>
		</g>
		<path style="fill:#D2D8D8;" d="M519.51,505.626h-23.414c-2.444,0-4.425,1.981-4.425,4.425v22.759c0,2.444-1.981,4.425-4.425,4.425
			h-26.031c-2.444,0-4.425-1.981-4.425-4.425v-22.759c0-2.444-1.981-4.425-4.425-4.425h-23.414c-2.444,0-4.425,1.981-4.425,4.425
			v22.759c0,2.444-1.981,4.425-4.425,4.425H394.07c-2.444,0-4.425-1.981-4.425-4.425v-22.759c0-2.444-1.981-4.425-4.425-4.425
			h-23.414c-2.444,0-4.425,1.981-4.425,4.425v27.184v0.655v66.554c0,2.444,1.981,4.425,4.425,4.425H519.51
			c2.444,0,4.425-1.981,4.425-4.425v-94.393C523.935,507.607,521.954,505.626,519.51,505.626z"/>
		<path style="fill:#7EE5AF;" d="M1096.9,363.178c0,0,20.481-2.276,49.609,10.468c29.129,12.744,53.706,3.186,53.706,3.186
			s-11.075,14.412-41.417,11.833c0,0,15.93,7.737,45.058,2.731c0,0-29.049,16.97-60.532,7.434
			c-31.556-9.558-46.423-5.765-46.423-5.765V363.178z"/>
		<g>
			<rect x="1093.563" y="363.021" style="fill:#D2D8D8;" width="3.338" height="90.122"/>
			<path style="fill:#D2D8D8;" d="M1098.379,360.579c0,1.738-1.409,3.148-3.147,3.148c-1.738,0-3.147-1.409-3.147-3.148
				c0-1.738,1.409-3.147,3.147-3.147C1096.97,357.432,1098.379,358.841,1098.379,360.579z"/>
		</g>
		<g>
			<path style="fill:#C1C1C1;" d="M1019.744,537.089l71.904-111.04c2.47-3.003,7.067-3.003,9.537,0l71.951,111.097
				c1.247,1.516,0.168,3.8-1.795,3.8h-149.774C1019.574,540.946,1018.479,538.628,1019.744,537.089z"/>
			<g>
				<defs>
					<path id="SVGID_7_" d="M1019.769,537.089l71.904-111.04c2.469-3.003,7.067-3.003,9.537,0l71.951,111.097
						c1.247,1.516,0.168,3.8-1.795,3.8h-149.774C1019.599,540.946,1018.504,538.628,1019.769,537.089z"/>
				</defs>
				<use xlink:href="#SVGID_7_"  style="overflow:visible;fill:#C1C1C1;"/>
				<clipPath id="SVGID_8_">
					<use xlink:href="#SVGID_7_"  style="overflow:visible;"/>
				</clipPath>
				<path style="opacity:0.24;clip-path:url(#SVGID_8_);fill:#C1C1C1;" d="M1187.279,490.669h-23.414
					c-2.444,0-4.425,1.981-4.425,4.425v22.759c0,2.444-1.981,4.425-4.425,4.425h-26.031c-2.444,0-4.425-1.981-4.425-4.425v-22.759
					c0-2.444-1.981-4.425-4.425-4.425h-23.414c-2.444,0-4.425,1.981-4.425,4.425v22.759c0,2.444-1.981,4.425-4.425,4.425h-26.031
					c-2.444,0-4.425-1.981-4.425-4.425v-22.759c0-2.444-1.981-4.425-4.425-4.425h-23.414c-2.444,0-4.425,1.981-4.425,4.425v27.184
					v0.655v66.554c0,2.444,1.981,4.425,4.425,4.425h157.703c2.444,0,4.425-1.981,4.425-4.425v-94.393
					C1191.703,492.65,1189.722,490.669,1187.279,490.669z"/>
			</g>
		</g>
		<rect x="1037.126" y="597.069" style="fill:#F9F9F9;" width="118.621" height="258.206"/>
		<g>
			<g>
				<g>
					<path style="opacity:0.35;fill:#F4F4F4;" d="M1113.075,777.85h33.695c0.66,0,1.2-0.54,1.2-1.2v-13.846c0-0.66-0.54-1.2-1.2-1.2
						h-33.695c-0.66,0-1.2,0.54-1.2,1.2v13.846C1111.875,777.31,1112.415,777.85,1113.075,777.85z"/>
					<path style="opacity:0.35;fill:#F4F4F4;" d="M1095.027,794.097h33.695c0.66,0,1.2-0.54,1.2-1.2V779.05c0-0.66-0.54-1.2-1.2-1.2
						h-33.695c-0.66,0-1.2,0.54-1.2,1.2v13.846C1093.827,793.557,1094.367,794.097,1095.027,794.097z"/>
					<path style="opacity:0.35;fill:#F4F4F4;" d="M1155.746,794.097h-22.234c-1.975,0-3.59-1.616-3.59-3.591v-9.066
						c0-1.975,1.616-3.59,3.59-3.59h22.234V794.097z"/>
				</g>
				<path style="opacity:0.45;fill:#F4F4F4;" d="M1037.126,739.844h14.542c1.975,0,3.59,1.616,3.59,3.591v9.066
					c0,1.975-1.616,3.59-3.59,3.59h-14.542V739.844z"/>
			</g>
			<path style="fill:#BBF2EA;" d="M1108.87,667.677c-0.717-19.966-6.009-31.766-12.434-31.766c-6.425,0-11.717,11.8-12.434,31.766
				h-0.086v29.039h25.04v-29.039H1108.87z"/>
			<g>
				<rect x="1037.126" y="608.952" style="opacity:0.05;" width="118.671" height="15.75"/>
				<g style="opacity:0.5;">
					<rect x="1049.56" y="608.952" style="opacity:0.5;fill:#D2D8D8;" width="3.7" height="15.75"/>
					<rect x="1079.475" y="608.952" style="opacity:0.5;fill:#D2D8D8;" width="3.7" height="15.75"/>
					<rect x="1109.39" y="608.952" style="opacity:0.5;fill:#D2D8D8;" width="3.7" height="15.75"/>
					<rect x="1139.304" y="608.952" style="opacity:0.5;fill:#D2D8D8;" width="3.7" height="15.75"/>
				</g>
			</g>
		</g>
		<path style="fill:#D2D8D8;" d="M1174.293,505.626h-21.425c-2.993,0-5.419,2.426-5.419,5.419v20.771
			c0,2.993-2.426,5.419-5.419,5.419h-24.043c-2.993,0-5.419-2.426-5.419-5.419v-20.771c0-2.993-2.427-5.419-5.419-5.419h-21.426
			c-2.993,0-5.419,2.426-5.419,5.419v20.771c0,2.993-2.426,5.419-5.419,5.419h-24.043c-2.993,0-5.419-2.426-5.419-5.419v-20.771
			c0-2.993-2.426-5.419-5.419-5.419h-21.425c-2.993,0-5.419,2.426-5.419,5.419v26.19v0.655v65.559c0,2.993,2.426,5.419,5.419,5.419
			h155.714c2.993,0,5.419-2.426,5.419-5.419v-92.404C1179.712,508.053,1177.286,505.626,1174.293,505.626z"/>
		<rect x="381.348" y="844.443" style="opacity:0.05;" width="774.448" height="10.832"/>
		<path style="fill:#D2D8D8;" d="M1217.736,877.389H319.358c-6.429,0-11.689-5.26-11.689-11.688l0,0
			c0-6.429,5.26-11.688,11.689-11.688h898.379c6.428,0,11.688,5.26,11.688,11.688l0,0
			C1229.425,872.13,1224.165,877.389,1217.736,877.389z"/>
		<path style="fill:#F4F4F4;" d="M1266.789,900.486H269.992c-6.429,0-11.689-5.26-11.689-11.688l0,0
			c0-6.429,5.26-11.688,11.689-11.688h996.797c6.429,0,11.688,5.26,11.688,11.688l0,0
			C1278.477,895.227,1273.218,900.486,1266.789,900.486z"/>
		<path style="fill:#F9F9F9;" d="M1314.492,923.583H218.595c-6.429,0-11.688-5.26-11.688-11.688l0,0
			c0-6.429,5.26-11.688,11.688-11.688h1095.897c6.428,0,11.688,5.26,11.688,11.688l0,0
			C1326.18,918.324,1320.92,923.583,1314.492,923.583z"/>
		<g>
			<g>
				<rect x="668.356" y="371.617" style="fill:none;" width="200.382" height="168.053"/>
				<g>
					<defs>
						<rect id="SVGID_9_" x="668.356" y="407.514" width="200.382" height="147.621"/>
					</defs>
					<clipPath id="SVGID_10_">
						<use xlink:href="#SVGID_9_"  style="overflow:visible;"/>
					</clipPath>
					<path style="clip-path:url(#SVGID_10_);fill:none;" d="M940.227,491.345H915.89c-2.189,0-3.963,1.774-3.963,3.963v23.683
						c0,2.189-1.774,3.963-3.963,3.963h-26.955c-2.189,0-3.963-1.774-3.963-3.963v-23.683c0-2.189-1.774-3.963-3.963-3.963h-24.338
						c-2.189,0-3.963,1.774-3.963,3.963v23.683c0,2.189-1.774,3.963-3.963,3.963h-26.955c-2.189,0-3.963-1.774-3.963-3.963v-23.683
						c0-2.189-1.774-3.963-3.963-3.963H781.6c-2.189,0-3.963,1.774-3.963,3.963v23.683c0,2.189-1.774,3.963-3.963,3.963h-26.955
						c-2.189,0-3.963-1.774-3.963-3.963v-23.683c0-2.189-1.774-3.963-3.963-3.963h-24.338c-2.189,0-3.963,1.774-3.963,3.963v23.683
						c0,2.189-1.774,3.963-3.963,3.963h-26.955c-2.189,0-3.963-1.774-3.963-3.963v-23.683c0-2.189-1.774-3.963-3.963-3.963h-24.338
						c-2.189,0-3.963,1.774-3.963,3.963v27.646v0.655v67.182c0,2.189,1.774,3.963,3.963,3.963h292.911
						c2.189,0,3.963-1.774,3.963-3.963v-67.182h0.006v-28.301C944.19,493.119,942.416,491.345,940.227,491.345z"/>
				</g>
			</g>
		</g>
		<g>
			<defs>
				<rect id="SVGID_11_" x="669.173" y="492.198" width="200.382" height="97.495"/>
			</defs>
			<clipPath id="SVGID_12_">
				<use xlink:href="#SVGID_11_"  style="overflow:visible;"/>
			</clipPath>
			<path style="opacity:0.24;clip-path:url(#SVGID_12_);fill:#C1C1C1;" d="M926.737,496.198h-24.338
				c-2.189,0-3.963,1.774-3.963,3.963v23.683c0,2.189-1.774,3.963-3.963,3.963h-26.955c-2.189,0-3.963-1.774-3.963-3.963v-23.683
				c0-2.189-1.774-3.963-3.963-3.963h-24.338c-2.189,0-3.963,1.774-3.963,3.963v23.683c0,2.189-1.774,3.963-3.963,3.963h-26.955
				c-2.189,0-3.963-1.774-3.963-3.963v-23.683c0-2.189-1.774-3.963-3.963-3.963H768.11c-2.189,0-3.963,1.774-3.963,3.963v23.683
				c0,2.189-1.774,3.963-3.963,3.963h-26.955c-2.189,0-3.963-1.774-3.963-3.963v-23.683c0-2.189-1.774-3.963-3.963-3.963h-24.338
				c-2.189,0-3.963,1.774-3.963,3.963v23.683c0,2.189-1.774,3.963-3.963,3.963h-26.955c-2.189,0-3.963-1.774-3.963-3.963v-23.683
				c0-2.189-1.774-3.963-3.963-3.963h-24.338c-2.189,0-3.963,1.774-3.963,3.963v27.646v0.655v67.183
				c0,2.189,1.774,3.963,3.963,3.963h292.911c2.189,0,3.963-1.774,3.963-3.963v-67.183h0.005v-28.301
				C930.7,497.973,928.926,496.198,926.737,496.198z"/>
		</g>
		<rect x="418.805" y="692.843" style="fill:#FFFFFF;" width="45.748" height="12.542"/>
		<rect x="418.805" y="696.716" style="opacity:0.09;" width="45.748" height="8.67"/>
		<rect x="1073.961" y="692.843" style="fill:#FFFFFF;" width="45.748" height="12.542"/>
		<rect x="1073.961" y="696.716" style="opacity:0.09;" width="45.748" height="8.67"/>
		<rect x="685.641" y="475.347" style="fill:#FFFFFF;" width="32.3" height="8.855"/>
		<rect x="685.641" y="478.081" style="opacity:0.09;" width="32.3" height="6.121"/>
		<rect x="750.111" y="475.347" style="fill:#FFFFFF;" width="32.3" height="8.855"/>
		<rect x="750.111" y="478.081" style="opacity:0.09;" width="32.3" height="6.121"/>
		<rect x="814.581" y="475.347" style="fill:#FFFFFF;" width="32.3" height="8.855"/>
		<rect x="814.581" y="478.081" style="opacity:0.09;" width="32.3" height="6.121"/>
		<path style="fill:#D2D8D8;" d="M915.005,505.543h-24.338c-2.189,0-3.963,1.774-3.963,3.963v23.683
			c0,2.189-1.774,3.963-3.963,3.963h-26.955c-2.189,0-3.963-1.774-3.963-3.963v-23.683c0-2.189-1.774-3.963-3.963-3.963h-24.338
			c-2.189,0-3.963,1.774-3.963,3.963v23.683c0,2.189-1.774,3.963-3.963,3.963h-26.955c-2.189,0-3.963-1.774-3.963-3.963v-23.683
			c0-2.189-1.774-3.963-3.963-3.963h-24.338c-2.189,0-3.963,1.774-3.963,3.963v23.683c0,2.189-1.774,3.963-3.963,3.963h-26.955
			c-2.189,0-3.963-1.774-3.963-3.963v-23.683c0-2.189-1.774-3.963-3.963-3.963h-24.338c-2.189,0-3.963,1.774-3.963,3.963v23.683
			c0,2.189-1.774,3.963-3.963,3.963h-26.955c-2.189,0-3.963-1.774-3.963-3.963v-23.683c0-2.189-1.774-3.963-3.963-3.963h-24.338
			c-2.189,0-3.963,1.774-3.963,3.963v27.646v0.655v67.183c0,2.189,1.774,3.963,3.963,3.963H915c2.189,0,3.963-1.774,3.963-3.963
			v-67.183h0.005v-28.301C918.968,507.317,917.194,505.543,915.005,505.543z"/>
	</g>
	<path style="opacity:0.07;" d="M1325.953,910.668c-0.593-6.044-5.922-10.525-11.996-10.525h-44.832
		c5.493-1.213,9.571-6.314,9.153-12.243c-0.436-6.188-5.852-10.854-12.056-10.854h-46.15c5.494-1.213,9.571-6.314,9.153-12.243
		c-0.436-6.188-5.852-10.854-12.055-10.854h-61.544v-9.569h-0.05v-50.346v-16.247V624.638h0.05v-15.75h-0.05v-0.083h18.547
		c2.993,0,5.419-2.426,5.419-5.419v-92.404c0-2.993-2.426-5.419-5.419-5.419h-21.425c-0.04,0-0.078,0.005-0.117,0.006
		l-51.542-79.584c-1.128-1.371-2.7-2.109-4.31-2.228v-30.755c0,0,14.868-3.793,46.423,5.765c31.483,9.536,60.532-7.434,60.532-7.434
		c-29.128,5.007-45.058-2.731-45.058-2.731c30.342,2.579,41.417-11.833,41.417-11.833s-24.577,9.558-53.706-3.186
		c-27.92-12.215-47.882-10.632-49.491-10.48c0.987-0.683,1.568-1.914,1.292-3.256c-0.251-1.218-1.26-2.201-2.484-2.425
		c-2-0.366-3.742,1.16-3.742,3.093c0,1.123,0.593,2.103,1.479,2.659v61.263c-0.711,0.371-1.367,0.88-1.915,1.547l-51.534,79.583
		c-0.037-0.001-0.073-0.006-0.11-0.006h-21.425c-2.993,0-5.419,2.426-5.419,5.419v26.19v0.655v65.559
		c0,2.993,2.426,5.419,5.419,5.419h18.547v0.083v15.75v33.766h0h-10.359h-18.223c-2.033,0-3.681,1.648-3.681,3.681v24.247
		c0,2.033-1.648,3.681-3.681,3.681h-27.519c-2.033,0-3.681-1.648-3.681-3.681v-24.247c0-2.033-1.648-3.681-3.681-3.681h-24.901
		c-2.033,0-3.681,1.648-3.681,3.681v24.247c0,2.033-1.648,3.681-3.681,3.681h-31.2v-81.125h12.163c1.846,0,3.383-1.267,3.824-2.975
		V509.74c0-2.223-1.802-4.025-4.025-4.025h-25.435c-1.545,0.541-2.66,1.996-2.66,3.726l0.543,22.218
		c-0.373,1.529-0.224,1.849-0.642,2.643c-0.95,1.806-2.912,2.849-4.953,2.849h-11.928l-0.987-45.871v-43.854V431.18v-7.98v-15.75
		h13.485v-35.034c0-0.542-0.439-0.981-0.981-0.981h-16.335v-50.288c0,0,14.868-3.793,46.424,5.765
		c31.483,9.536,60.532-7.434,60.532-7.434c-29.128,5.007-45.058-2.731-45.058-2.731c30.342,2.579,41.417-11.833,41.417-11.833
		s-24.577,9.558-53.706-3.186c-27.919-12.215-47.881-10.632-49.491-10.48c0.987-0.683,1.568-1.913,1.292-3.254
		c-0.25-1.218-1.26-2.201-2.483-2.426c-2-0.367-3.743,1.159-3.743,3.092c0,1.123,0.593,2.102,1.479,2.659v80.115h-27.747v-10.179
		v-8.846h0.142v-16.192c0-0.03-0.025-0.055-0.055-0.055h0.055v-16.247h-0.142v-39.93h0.142v-15.75h9.487
		c1.963,0,3.042-2.284,1.795-3.8l-71.951-111.097c-1.039-1.264-2.456-1.989-3.932-2.189v-16.556c0,0,14.868-3.793,46.423,5.765
		c31.483,9.536,60.532-7.434,60.532-7.434c-29.128,5.007-45.058-2.731-45.058-2.731c30.342,2.579,41.417-11.833,41.417-11.833
		s-24.577,9.558-53.706-3.186c-27.919-12.215-47.881-10.632-49.491-10.48c0.971-0.672,1.548-1.871,1.305-3.186
		c-0.221-1.198-1.171-2.192-2.357-2.465c-0.677-0.156-1.318-0.072-1.887,0.154v828.321h547.948
		C1321.134,923.519,1326.634,917.613,1325.953,910.668z"/>
</g>
</svg>
