<?xml version="1.0" encoding="iso-8859-1"?>
<!-- Generator: Adobe Illustrator 22.0.1, SVG Export Plug-In . SVG Version: 6.00 Build 0)  -->
<svg version="1.1" id="Capa_1" xmlns="http://www.w3.org/2000/svg" xmlns:xlink="http://www.w3.org/1999/xlink" x="0px" y="0px"
	 viewBox="0 0 1529.897 902.943" style="enable-background:new 0 0 1529.897 902.943;" xml:space="preserve">
<g>
	<g style="opacity:0.2;">
		<polygon style="fill:#BEDBF1;" points="524.38,51.819 387.172,208.507 387.172,418.614 398.04,516.426 544.081,553.105 
			985.429,553.105 1142.725,418.614 1142.725,261.707 1029.033,69.283 		"/>
		<g>
			<path style="fill:#FFFFFF;" d="M539.974,139.224h-352.53c-19.132,0-34.642-15.51-34.642-34.642s15.51-34.642,34.642-34.642
				h352.53c19.132,0,34.642,15.51,34.642,34.642S559.106,139.224,539.974,139.224z"/>
		</g>
		<g>
			<path style="fill:#FFFFFF;" d="M1300.364,139.224h-352.53c-19.132,0-34.642-15.51-34.642-34.642s15.51-34.642,34.642-34.642
				h352.53c19.132,0,34.642,15.51,34.642,34.642S1319.496,139.224,1300.364,139.224z"/>
		</g>
		<g>
			<path style="fill:#FFFFFF;" d="M1439.639,277.791h-352.53c-19.132,0-34.642-15.51-34.642-34.642s15.51-34.642,34.642-34.642
				h352.53c19.132,0,34.642,15.51,34.642,34.642S1458.771,277.791,1439.639,277.791z"/>
		</g>
		<g>
			<path style="fill:#FFFFFF;" d="M387.172,277.791H34.642C15.51,277.791,0,262.281,0,243.149s15.51-34.642,34.642-34.642h352.53
				c19.132,0,34.642,15.51,34.642,34.642S406.304,277.791,387.172,277.791z"/>
		</g>
		<g>
			<path style="fill:#FFFFFF;" d="M463.578,410.354h-352.53c-19.132,0-34.642-15.51-34.642-34.642s15.51-34.642,34.642-34.642
				h352.53c19.132,0,34.642,15.51,34.642,34.642S482.71,410.354,463.578,410.354z"/>
		</g>
		<g>
			<path style="fill:#FFFFFF;" d="M1495.255,418.614h-352.53c-19.132,0-34.642-15.51-34.642-34.642s15.51-34.642,34.642-34.642
				h352.53c19.132,0,34.642,15.51,34.642,34.642S1514.387,418.614,1495.255,418.614z"/>
		</g>
		<g>
			<path style="fill:#FFFFFF;" d="M1375.781,551.067H872.417c-19.132,0-34.642-15.51-34.642-34.642
				c0-19.132,15.51-34.642,34.642-34.642h503.363c19.132,0,34.642,15.51,34.642,34.642
				C1410.422,535.557,1394.912,551.067,1375.781,551.067z"/>
		</g>
		<g>
			<path style="fill:#FFFFFF;" d="M577.712,551.067H74.349c-19.132,0-34.642-15.51-34.642-34.642
				c0-19.132,15.51-34.642,34.642-34.642h503.363c19.132,0,34.642,15.51,34.642,34.642
				C612.354,535.557,596.844,551.067,577.712,551.067z"/>
		</g>
		<g>
			<path style="fill:#BEDBF1;" d="M985.429,622.389H544.081c-19.132,0-34.642-15.51-34.642-34.642
				c0-19.132,15.51-34.642,34.642-34.642h441.347c19.132,0,34.642,15.51,34.642,34.642
				C1020.07,606.879,1004.56,622.389,985.429,622.389z"/>
		</g>
		<g>
			<path style="fill:#BEDBF1;" d="M1212.009,487.897H770.661c-19.132,0-34.642-15.51-34.642-34.642s15.51-34.642,34.642-34.642
				h441.347c19.132,0,34.642,15.51,34.642,34.642S1231.14,487.897,1212.009,487.897z"/>
		</g>
		<g>
			<path style="fill:#BEDBF1;" d="M1284.349,347.731H843.001c-19.132,0-34.642-15.51-34.642-34.642s15.51-34.642,34.642-34.642
				h441.347c19.132,0,34.642,15.51,34.642,34.642S1303.48,347.731,1284.349,347.731z"/>
		</g>
		<g>
			<path style="fill:#BEDBF1;" d="M1029.033,69.283H483.339c-19.132,0-34.642-15.51-34.642-34.642S464.207,0,483.339,0h545.694
				c19.132,0,34.642,15.51,34.642,34.642S1048.165,69.283,1029.033,69.283z"/>
		</g>
		<g>
			<path style="fill:#BEDBF1;" d="M824.068,208.507H278.374c-19.132,0-34.642-15.51-34.642-34.642s15.51-34.642,34.642-34.642
				h545.694c19.132,0,34.642,15.51,34.642,34.642S843.2,208.507,824.068,208.507z"/>
		</g>
		<g>
			<path style="fill:#BEDBF1;" d="M824.068,344.127H278.374c-19.132,0-34.642-15.51-34.642-34.642
				c0-19.132,15.51-34.642,34.642-34.642h545.694c19.132,0,34.642,15.51,34.642,34.642
				C858.71,328.617,843.2,344.127,824.068,344.127z"/>
		</g>
		<g>
			<path style="fill:#BEDBF1;" d="M895.39,479.746H349.695c-19.132,0-34.642-15.51-34.642-34.642s15.51-34.642,34.642-34.642H895.39
				c19.132,0,34.642,15.51,34.642,34.642S914.521,479.746,895.39,479.746z"/>
		</g>
		<g>
			<path style="fill:#BEDBF1;" d="M1150.705,208.507H709.358c-19.132,0-34.642-15.51-34.642-34.642s15.51-34.642,34.642-34.642
				h441.347c19.132,0,34.642,15.51,34.642,34.642S1169.837,208.507,1150.705,208.507z"/>
		</g>
	</g>
	
		<line style="fill:none;stroke:#E0E0E0;stroke-width:2;stroke-miterlimit:10;" x1="322.956" y1="901.943" x2="1191.412" y2="901.943"/>
	<path style="opacity:0.2;fill:#BEDBF1;" d="M1225.46,677.52h-43.988c-19.619,0-35.671-16.052-35.671-35.671v-0.002
		c0-19.619,16.052-35.671,35.671-35.671h43.988c19.619,0,35.671,16.052,35.671,35.671v0.002
		C1261.131,661.468,1245.079,677.52,1225.46,677.52z"/>
	<g>
		<rect x="474.869" y="542.738" style="fill:#F9F9F9;" width="597.853" height="359.206"/>
		<rect x="554.65" y="208.424" style="fill:#D2D8D8;" width="38.09" height="118.519"/>
		<rect x="540.916" y="228.938" style="fill:#F9F9F9;" width="65.559" height="22.791"/>
		<path style="fill:#F4F4F4;" d="M1080.624,569.613H466.965c-2.862,0-5.182-2.32-5.182-5.182V302.355
			c0-2.862,2.32-5.182,5.182-5.182h613.659c2.862,0,5.181,2.32,5.181,5.181v262.076
			C1085.806,567.293,1083.486,569.613,1080.624,569.613z"/>
		<polygon style="fill:#F9F9F9;" points="648.1,579.266 648.1,444.436 774.001,301.011 903.226,448.222 903.226,579.266 		"/>
		<path style="fill:#D2D8D8;" d="M639.997,448.018L639.997,448.018c3.398,0,6.656-1.35,9.059-3.753l114.827-114.827
			c5.004-5.003,13.116-5.003,18.118,0l118.3,118.3c2.402,2.404,5.662,3.753,9.06,3.753h1.967c11.414,0,17.13-13.799,9.06-21.87
			L783.69,292.923c-4.985-4.984-13.059-5.005-18.07-0.047L630.986,426.1C622.85,434.151,628.551,448.018,639.997,448.018z"/>
		<rect x="446.257" y="549.698" style="fill:#D2D8D8;" width="214.602" height="29.567"/>
		<rect x="878.507" y="554.829" style="fill:#D2D8D8;" width="214.602" height="29.567"/>
		<rect x="541.271" y="662.741" style="opacity:0.05;" width="95.865" height="132.059"/>
		<rect x="553.009" y="674.48" style="fill:#BBF2EA;" width="72.388" height="109.56"/>
		<rect x="682.824" y="663.09" style="opacity:0.05;" width="95.865" height="132.058"/>
		<rect x="694.562" y="674.829" style="fill:#BBF2EA;" width="72.388" height="109.559"/>
		<rect x="680.918" y="440.138" style="opacity:0.05;" width="189.49" height="97.003"/>
		<rect x="691.342" y="450.214" style="fill:#BBF2EA;" width="50.777" height="76.852"/>
		<rect x="750.275" y="450.214" style="fill:#BBF2EA;" width="50.777" height="76.852"/>
		<rect x="807.92" y="450.214" style="fill:#BBF2EA;" width="50.777" height="76.852"/>
		<path style="fill:#B5B5B5;stroke:#DBDDDD;stroke-width:6;stroke-miterlimit:10;" d="M961.524,899.509H823.552V693.294
			c0-38.1,30.886-68.986,68.986-68.986l0,0c38.099,0,68.985,30.886,68.985,68.986V899.509z"/>
		<path style="fill:#EFF0EE;" d="M940.471,780.031h-95.865v-84.126c0-26.473,21.46-47.932,47.933-47.932l0,0
			c26.471,0,47.932,21.459,47.932,47.932V780.031z"/>
		<path style="fill:#BBF2EA;" d="M928.732,769.271h-72.388v-73.366c0-19.989,16.204-36.194,36.194-36.194l0,0
			c19.989,0,36.193,16.206,36.193,36.194V769.271z"/>
		<rect x="878.507" y="584.397" style="opacity:0.05;" width="194.215" height="15.242"/>
		<rect x="474.869" y="579.266" style="opacity:0.05;" width="185.99" height="15.242"/>
		<rect x="524.604" y="785.037" style="fill:#FFFFFF;" width="118.437" height="17.899"/>
		<rect x="524.604" y="790.564" style="opacity:0.09;" width="118.437" height="12.373"/>
		<rect x="669.427" y="785.037" style="fill:#FFFFFF;" width="118.437" height="17.899"/>
		<rect x="669.427" y="790.564" style="opacity:0.09;" width="118.437" height="12.373"/>
		<g>
			<path style="fill:#F4F4F4;" d="M510.272,722.82h-28.964c-0.241,0-0.436-0.195-0.436-0.436V709.83
				c0-0.241,0.195-0.436,0.436-0.436h28.964c0.241,0,0.436,0.195,0.436,0.436v12.554C510.708,722.625,510.513,722.82,510.272,722.82
				z"/>
			<path style="fill:#F4F4F4;" d="M545.706,860.4h-28.964c-0.241,0-0.436-0.195-0.436-0.436v-12.555
				c0-0.241,0.195-0.436,0.436-0.436h28.964c0.241,0,0.436,0.195,0.436,0.436v12.554C546.143,860.205,545.947,860.4,545.706,860.4z"
				/>
			<path style="fill:#F4F4F4;" d="M525.191,837.525h-28.965c-0.241,0-0.436-0.195-0.436-0.436v-12.555
				c0-0.241,0.195-0.436,0.436-0.436h28.965c0.241,0,0.436,0.195,0.436,0.436v12.555
				C525.627,837.33,525.432,837.525,525.191,837.525z"/>
			<path style="fill:#F4F4F4;" d="M754.758,837.525h-28.964c-0.241,0-0.436-0.195-0.436-0.436v-12.554
				c0-0.241,0.195-0.436,0.436-0.436h28.964c0.241,0,0.436,0.195,0.436,0.436v12.555
				C755.195,837.33,754.999,837.525,754.758,837.525z"/>
			<path style="fill:#F4F4F4;" d="M786.584,837.525H757.62c-0.241,0-0.436-0.195-0.436-0.436v-12.555
				c0-0.241,0.195-0.436,0.436-0.436h28.964c0.241,0,0.436,0.195,0.436,0.436v12.555
				C787.021,837.33,786.825,837.525,786.584,837.525z"/>
			<path style="fill:#F4F4F4;" d="M769.677,853.686h-28.964c-0.241,0-0.436-0.195-0.436-0.436v-12.553
				c0-0.241,0.195-0.436,0.436-0.436h28.964c0.241,0,0.436,0.195,0.436,0.436v12.553
				C770.113,853.491,769.918,853.686,769.677,853.686z"/>
			<path style="fill:#F4F4F4;" d="M657.523,635.338h-28.964c-0.241,0-0.436-0.195-0.436-0.436v-12.555
				c0-0.241,0.195-0.436,0.436-0.436h28.964c0.241,0,0.436,0.195,0.436,0.436v12.555
				C657.96,635.143,657.764,635.338,657.523,635.338z"/>
			<path style="fill:#F4F4F4;" d="M1072.285,830.811h-28.964c-0.241,0-0.436-0.195-0.436-0.436v-12.555
				c0-0.241,0.195-0.436,0.436-0.436h28.964c0.241,0,0.436,0.195,0.436,0.436v12.555
				C1072.722,830.616,1072.526,830.811,1072.285,830.811z"/>
			<path style="fill:#F4F4F4;" d="M1072.285,635.423h-28.964c-0.241,0-0.436-0.195-0.436-0.436v-12.553
				c0-0.241,0.195-0.436,0.436-0.436h28.964c0.241,0,0.436,0.195,0.436,0.436v12.553
				C1072.722,635.228,1072.526,635.423,1072.285,635.423z"/>
			<path style="fill:#F4F4F4;" d="M1057.367,651.584h-28.964c-0.241,0-0.436-0.195-0.436-0.436v-12.553
				c0-0.241,0.195-0.436,0.436-0.436h28.964c0.241,0,0.436,0.195,0.436,0.436v12.554
				C1057.803,651.389,1057.608,651.584,1057.367,651.584z"/>
			<path style="fill:#F4F4F4;" d="M770.459,393.613h-28.964c-0.241,0-0.436-0.195-0.436-0.436v-12.554
				c0-0.241,0.195-0.436,0.436-0.436h28.964c0.241,0,0.436,0.195,0.436,0.436v12.555C770.895,393.418,770.7,393.613,770.459,393.613
				z"/>
			<path style="fill:#F4F4F4;" d="M802.285,393.613H773.32c-0.241,0-0.436-0.195-0.436-0.436v-12.555
				c0-0.241,0.195-0.436,0.436-0.436h28.964c0.241,0,0.436,0.195,0.436,0.436v12.555
				C802.721,393.418,802.525,393.613,802.285,393.613z"/>
			<path style="fill:#F4F4F4;" d="M785.377,409.774h-28.964c-0.241,0-0.436-0.195-0.436-0.436v-12.553
				c0-0.241,0.195-0.436,0.436-0.436h28.964c0.241,0,0.436,0.195,0.436,0.436v12.553
				C785.813,409.579,785.618,409.774,785.377,409.774z"/>
		</g>
	</g>
	<path style="opacity:0.07;" d="M1085.805,554.829V302.355c0-2.862-2.319-5.181-5.181-5.181H787.941l-4.251-4.251
		c-2.713-2.714-6.342-3.944-9.895-3.713v612.733h298.926v-71.568v-12.555V634.987v-12.553v-22.794v-15.242h20.388v-29.567H1085.805z
		"/>
</g>
</svg>
