<?xml version="1.0" encoding="iso-8859-1"?>
<!-- Generator: Adobe Illustrator 22.0.1, SVG Export Plug-In . SVG Version: 6.00 Build 0)  -->
<svg version="1.1" id="Capa_1" xmlns="http://www.w3.org/2000/svg" xmlns:xlink="http://www.w3.org/1999/xlink" x="0px" y="0px"
	 viewBox="0 0 1529.897 748.891" style="enable-background:new 0 0 1529.897 748.891;" xml:space="preserve">
<g>
	<path style="opacity:0.4;fill:#7EE5AF;" d="M514.749,695.461c10.867-17.927,30.562-29.907,53.056-29.907
		c34.241,0,61.999,27.758,61.999,61.999c0,6.98-1.154,13.689-3.281,19.95h-76.811c0.232-1.913,0.366-3.857,0.366-5.833
		C550.078,719.57,535.102,700.978,514.749,695.461z"/>
	<path style="opacity:0.4;fill:#7EE5AF;" d="M550.078,741.67c0-26.445-21.438-47.882-47.882-47.882s-47.882,21.438-47.882,47.882
		c0,1.976,0.134,3.92,0.367,5.833h95.031C549.944,745.59,550.078,743.646,550.078,741.67z"/>
	<path style="opacity:0.4;fill:#7EE5AF;" d="M1036.368,695.461c-10.867-17.927-30.562-29.907-53.056-29.907
		c-34.241,0-61.999,27.758-61.999,61.999c0,6.98,1.154,13.689,3.281,19.95h76.811c-0.232-1.913-0.366-3.857-0.366-5.833
		C1001.039,719.57,1016.015,700.978,1036.368,695.461z"/>
	<g style="opacity:0.2;">
		<polygon style="fill:#BEDBF1;" points="524.38,51.819 387.172,208.507 387.172,418.614 398.04,516.426 544.081,553.105 
			985.429,553.105 1142.725,418.614 1142.725,261.707 1029.033,69.283 		"/>
		<g>
			<path style="fill:#FFFFFF;" d="M539.974,139.224h-352.53c-19.132,0-34.642-15.51-34.642-34.642s15.51-34.642,34.642-34.642
				h352.53c19.132,0,34.642,15.51,34.642,34.642S559.106,139.224,539.974,139.224z"/>
		</g>
		<g>
			<path style="fill:#FFFFFF;" d="M1300.364,139.224h-352.53c-19.132,0-34.642-15.51-34.642-34.642s15.51-34.642,34.642-34.642
				h352.53c19.132,0,34.642,15.51,34.642,34.642S1319.496,139.224,1300.364,139.224z"/>
		</g>
		<g>
			<path style="fill:#FFFFFF;" d="M1439.639,277.791h-352.53c-19.132,0-34.642-15.51-34.642-34.642s15.51-34.642,34.642-34.642
				h352.53c19.132,0,34.642,15.51,34.642,34.642S1458.771,277.791,1439.639,277.791z"/>
		</g>
		<g>
			<path style="fill:#FFFFFF;" d="M387.172,277.791H34.642C15.51,277.791,0,262.281,0,243.149s15.51-34.642,34.642-34.642h352.53
				c19.132,0,34.642,15.51,34.642,34.642S406.304,277.791,387.172,277.791z"/>
		</g>
		<g>
			<path style="fill:#FFFFFF;" d="M463.578,410.354h-352.53c-19.132,0-34.642-15.51-34.642-34.642s15.51-34.642,34.642-34.642
				h352.53c19.132,0,34.642,15.51,34.642,34.642S482.71,410.354,463.578,410.354z"/>
		</g>
		<g>
			<path style="fill:#FFFFFF;" d="M1495.255,418.614h-352.53c-19.132,0-34.642-15.51-34.642-34.642s15.51-34.642,34.642-34.642
				h352.53c19.132,0,34.642,15.51,34.642,34.642S1514.387,418.614,1495.255,418.614z"/>
		</g>
		<g>
			<path style="fill:#FFFFFF;" d="M1375.781,551.067H872.417c-19.132,0-34.642-15.51-34.642-34.642
				c0-19.132,15.51-34.642,34.642-34.642h503.363c19.132,0,34.642,15.51,34.642,34.642
				C1410.422,535.557,1394.912,551.067,1375.781,551.067z"/>
		</g>
		<g>
			<path style="fill:#FFFFFF;" d="M577.712,551.067H74.349c-19.132,0-34.642-15.51-34.642-34.642
				c0-19.132,15.51-34.642,34.642-34.642h503.363c19.132,0,34.642,15.51,34.642,34.642
				C612.354,535.557,596.844,551.067,577.712,551.067z"/>
		</g>
		<g>
			<path style="fill:#BEDBF1;" d="M985.429,622.389H544.081c-19.132,0-34.642-15.51-34.642-34.642
				c0-19.132,15.51-34.642,34.642-34.642h441.347c19.132,0,34.642,15.51,34.642,34.642
				C1020.07,606.879,1004.56,622.389,985.429,622.389z"/>
		</g>
		<g>
			<path style="fill:#BEDBF1;" d="M1212.009,487.897H770.661c-19.132,0-34.642-15.51-34.642-34.642s15.51-34.642,34.642-34.642
				h441.347c19.132,0,34.642,15.51,34.642,34.642S1231.14,487.897,1212.009,487.897z"/>
		</g>
		<g>
			<path style="fill:#BEDBF1;" d="M1284.349,347.731H843.001c-19.132,0-34.642-15.51-34.642-34.642s15.51-34.642,34.642-34.642
				h441.347c19.132,0,34.642,15.51,34.642,34.642S1303.48,347.731,1284.349,347.731z"/>
		</g>
		<g>
			<path style="fill:#BEDBF1;" d="M1029.033,69.283H483.339c-19.132,0-34.642-15.51-34.642-34.642S464.207,0,483.339,0h545.694
				c19.132,0,34.642,15.51,34.642,34.642S1048.165,69.283,1029.033,69.283z"/>
		</g>
		<g>
			<path style="fill:#BEDBF1;" d="M824.068,208.507H278.374c-19.132,0-34.642-15.51-34.642-34.642s15.51-34.642,34.642-34.642
				h545.694c19.132,0,34.642,15.51,34.642,34.642S843.2,208.507,824.068,208.507z"/>
		</g>
		<g>
			<path style="fill:#BEDBF1;" d="M824.068,344.127H278.374c-19.132,0-34.642-15.51-34.642-34.642
				c0-19.132,15.51-34.642,34.642-34.642h545.694c19.132,0,34.642,15.51,34.642,34.642
				C858.71,328.617,843.2,344.127,824.068,344.127z"/>
		</g>
		<g>
			<path style="fill:#BEDBF1;" d="M895.39,479.746H349.695c-19.132,0-34.642-15.51-34.642-34.642s15.51-34.642,34.642-34.642H895.39
				c19.132,0,34.642,15.51,34.642,34.642S914.521,479.746,895.39,479.746z"/>
		</g>
		<g>
			<path style="fill:#BEDBF1;" d="M1150.705,208.507H709.358c-19.132,0-34.642-15.51-34.642-34.642s15.51-34.642,34.642-34.642
				h441.347c19.132,0,34.642,15.51,34.642,34.642S1169.837,208.507,1150.705,208.507z"/>
		</g>
	</g>
	
		<line style="fill:none;stroke:#E0E0E0;stroke-width:2;stroke-miterlimit:10;" x1="335.009" y1="747.891" x2="1203.466" y2="747.891"/>
	<path style="opacity:0.2;fill:#BEDBF1;" d="M299.338,640.633H255.35c-19.619,0-35.671-16.052-35.671-35.671v-0.002
		c0-19.619,16.052-35.671,35.671-35.671h43.988c19.619,0,35.671,16.052,35.671,35.671v0.002
		C335.009,624.581,318.957,640.633,299.338,640.633z"/>
	<rect x="581.813" y="163.92" style="fill:#D2D8D8;" width="68.226" height="209.569"/>
	<polygon style="fill:#F9F9F9;" points="568.521,394.891 568.521,719.236 981.852,719.236 981.852,398.977 766.486,181.362 	"/>
	<g>
		<path style="fill:#F4F4F4;" d="M619.532,376.593h-27.007c-0.241,0-0.436-0.195-0.436-0.436v-11.674
			c0-0.241,0.195-0.436,0.436-0.436h27.007c0.241,0,0.436,0.195,0.436,0.436v11.674
			C619.968,376.398,619.772,376.593,619.532,376.593z"/>
		<path style="fill:#F4F4F4;" d="M673.432,422.594h-27.007c-0.241,0-0.436-0.195-0.436-0.436v-11.674
			c0-0.241,0.195-0.436,0.436-0.436h27.007c0.241,0,0.436,0.195,0.436,0.436v11.674
			C673.868,422.399,673.673,422.594,673.432,422.594z"/>
		<path style="fill:#F4F4F4;" d="M673.432,344.764h-27.007c-0.241,0-0.436-0.195-0.436-0.436v-11.674
			c0-0.241,0.195-0.436,0.436-0.436h27.007c0.241,0,0.436,0.195,0.436,0.436v11.674
			C673.868,344.569,673.673,344.764,673.432,344.764z"/>
		<path style="fill:#F4F4F4;" d="M645.553,453.959h-27.007c-0.241,0-0.436-0.195-0.436-0.436v-11.674
			c0-0.241,0.195-0.436,0.436-0.436h27.007c0.241,0,0.436,0.195,0.436,0.436v11.674
			C645.989,453.763,645.794,453.959,645.553,453.959z"/>
		<path style="fill:#F4F4F4;" d="M697.595,374.037h-27.007c-0.241,0-0.436-0.195-0.436-0.436v-11.673
			c0-0.241,0.195-0.436,0.436-0.436h27.007c0.241,0,0.436,0.195,0.436,0.436v11.673
			C698.031,373.841,697.835,374.037,697.595,374.037z"/>
		<path style="fill:#F4F4F4;" d="M727.333,374.037h-27.007c-0.241,0-0.436-0.195-0.436-0.436v-11.673
			c0-0.241,0.195-0.436,0.436-0.436h27.007c0.241,0,0.436,0.195,0.436,0.436v11.673
			C727.769,373.841,727.574,374.037,727.333,374.037z"/>
		<path style="fill:#F4F4F4;" d="M711.535,389.139h-27.008c-0.241,0-0.436-0.195-0.436-0.436v-11.674
			c0-0.241,0.195-0.436,0.436-0.436h27.008c0.241,0,0.436,0.195,0.436,0.436v11.674
			C711.971,388.944,711.776,389.139,711.535,389.139z"/>
		<path style="fill:#F4F4F4;" d="M692.949,321.298h-27.008c-0.241,0-0.436-0.195-0.436-0.436v-11.673
			c0-0.241,0.195-0.436,0.436-0.436h27.008c0.241,0,0.436,0.195,0.436,0.436v11.673C693.385,321.103,693.19,321.298,692.949,321.298
			z"/>
		<path style="fill:#F4F4F4;" d="M755.213,324.086h-27.008c-0.241,0-0.436-0.195-0.436-0.436v-11.673
			c0-0.241,0.195-0.436,0.436-0.436h27.008c0.241,0,0.436,0.195,0.436,0.436v11.673
			C755.649,323.891,755.454,324.086,755.213,324.086z"/>
		<path style="fill:#F4F4F4;" d="M793.182,296.207h-27.008c-0.241,0-0.436-0.195-0.436-0.436v-11.674
			c0-0.241,0.195-0.436,0.436-0.436h27.008c0.241,0,0.436,0.195,0.436,0.436v11.674
			C793.619,296.011,793.423,296.207,793.182,296.207z"/>
		<path style="fill:#F4F4F4;" d="M842.436,324.086h-27.007c-0.241,0-0.436-0.195-0.436-0.436v-11.673
			c0-0.241,0.195-0.436,0.436-0.436h27.007c0.241,0,0.436,0.195,0.436,0.436v11.673
			C842.872,323.891,842.677,324.086,842.436,324.086z"/>
		<path style="fill:#F4F4F4;" d="M908.417,347.319h-27.007c-0.241,0-0.436-0.195-0.436-0.436v-11.674
			c0-0.241,0.195-0.436,0.436-0.436h27.007c0.241,0,0.436,0.195,0.436,0.436v11.674
			C908.854,347.124,908.658,347.319,908.417,347.319z"/>
		<path style="fill:#F4F4F4;" d="M866.134,367.765h-27.008c-0.241,0-0.436-0.195-0.436-0.436v-11.674
			c0-0.241,0.195-0.436,0.436-0.436h27.008c0.241,0,0.436,0.195,0.436,0.436v11.674C866.57,367.569,866.375,367.765,866.134,367.765
			z"/>
		<path style="fill:#F4F4F4;" d="M852.194,382.866h-27.008c-0.241,0-0.436-0.195-0.436-0.436v-11.674
			c0-0.241,0.195-0.436,0.436-0.436h27.008c0.241,0,0.436,0.195,0.436,0.436v11.674
			C852.631,382.671,852.435,382.866,852.194,382.866z"/>
	</g>
	<g>
		<path style="fill:#F4F4F4;" d="M660.723,504.808h-27.008c-0.241,0-0.436-0.195-0.436-0.436v-11.673
			c0-0.241,0.195-0.436,0.436-0.436h27.008c0.241,0,0.436,0.195,0.436,0.436v11.673
			C661.159,504.613,660.964,504.808,660.723,504.808z"/>
		<path style="fill:#F4F4F4;" d="M714.624,550.809h-27.008c-0.241,0-0.436-0.195-0.436-0.436V538.7c0-0.241,0.195-0.436,0.436-0.436
			h27.008c0.241,0,0.436,0.195,0.436,0.436v11.673C715.06,550.614,714.865,550.809,714.624,550.809z"/>
		<path style="fill:#F4F4F4;" d="M714.624,472.979h-27.008c-0.241,0-0.436-0.195-0.436-0.436v-11.674
			c0-0.241,0.195-0.436,0.436-0.436h27.008c0.241,0,0.436,0.195,0.436,0.436v11.674C715.06,472.784,714.865,472.979,714.624,472.979
			z"/>
		<path style="fill:#F4F4F4;" d="M686.743,582.175h-27.007c-0.241,0-0.436-0.195-0.436-0.436v-11.674
			c0-0.241,0.195-0.436,0.436-0.436h27.007c0.241,0,0.436,0.195,0.436,0.436v11.674C687.18,581.979,686.984,582.175,686.743,582.175
			z"/>
		<path style="fill:#F4F4F4;" d="M738.786,502.253h-27.008c-0.241,0-0.436-0.195-0.436-0.436v-11.674
			c0-0.241,0.195-0.436,0.436-0.436h27.008c0.241,0,0.436,0.195,0.436,0.436v11.674
			C739.222,502.058,739.027,502.253,738.786,502.253z"/>
		<path style="fill:#F4F4F4;" d="M768.524,502.253h-27.008c-0.241,0-0.436-0.195-0.436-0.436v-11.674
			c0-0.241,0.195-0.436,0.436-0.436h27.008c0.241,0,0.436,0.195,0.436,0.436v11.674C768.96,502.058,768.765,502.253,768.524,502.253
			z"/>
		<path style="fill:#F4F4F4;" d="M752.726,517.354h-27.008c-0.241,0-0.436-0.195-0.436-0.436v-11.674
			c0-0.241,0.195-0.436,0.436-0.436h27.008c0.241,0,0.436,0.195,0.436,0.436v11.674
			C753.162,517.159,752.967,517.354,752.726,517.354z"/>
		<path style="fill:#F4F4F4;" d="M734.139,449.514h-27.007c-0.241,0-0.436-0.195-0.436-0.436v-11.674
			c0-0.241,0.195-0.436,0.436-0.436h27.007c0.241,0,0.436,0.195,0.436,0.436v11.674C734.575,449.319,734.38,449.514,734.139,449.514
			z"/>
		<path style="fill:#F4F4F4;" d="M796.403,452.302h-27.007c-0.241,0-0.436-0.195-0.436-0.436v-11.674
			c0-0.241,0.195-0.436,0.436-0.436h27.007c0.241,0,0.436,0.195,0.436,0.436v11.674C796.84,452.107,796.644,452.302,796.403,452.302
			z"/>
		<path style="fill:#F4F4F4;" d="M834.373,424.422h-27.008c-0.241,0-0.436-0.195-0.436-0.436v-11.673
			c0-0.241,0.195-0.436,0.436-0.436h27.008c0.241,0,0.436,0.195,0.436,0.436v11.673
			C834.809,424.226,834.614,424.422,834.373,424.422z"/>
		<path style="fill:#F4F4F4;" d="M883.627,452.302H856.62c-0.241,0-0.436-0.195-0.436-0.436v-11.674
			c0-0.241,0.195-0.436,0.436-0.436h27.007c0.241,0,0.436,0.195,0.436,0.436v11.674
			C884.063,452.107,883.867,452.302,883.627,452.302z"/>
		<path style="fill:#F4F4F4;" d="M949.609,475.534h-27.008c-0.241,0-0.436-0.195-0.436-0.436v-11.673
			c0-0.241,0.195-0.436,0.436-0.436h27.008c0.241,0,0.436,0.195,0.436,0.436v11.673C950.045,475.339,949.85,475.534,949.609,475.534
			z"/>
		<path style="fill:#F4F4F4;" d="M907.325,495.98h-27.007c-0.241,0-0.436-0.195-0.436-0.436V483.87c0-0.241,0.195-0.436,0.436-0.436
			h27.007c0.241,0,0.436,0.195,0.436,0.436v11.674C907.761,495.785,907.565,495.98,907.325,495.98z"/>
		<path style="fill:#F4F4F4;" d="M893.385,511.081h-27.008c-0.241,0-0.436-0.195-0.436-0.436v-11.673
			c0-0.241,0.195-0.436,0.436-0.436h27.008c0.241,0,0.436,0.195,0.436,0.436v11.673
			C893.821,510.886,893.626,511.081,893.385,511.081z"/>
	</g>
	<g>
		<path style="fill:#F4F4F4;" d="M606.803,666.11h-27.007c-0.241,0-0.436-0.195-0.436-0.436V654c0-0.241,0.195-0.436,0.436-0.436
			h27.007c0.241,0,0.436,0.195,0.436,0.436v11.674C607.239,665.915,607.044,666.11,606.803,666.11z"/>
		<path style="fill:#F4F4F4;" d="M660.704,712.111h-27.007c-0.241,0-0.436-0.195-0.436-0.436v-11.674
			c0-0.241,0.195-0.436,0.436-0.436h27.007c0.241,0,0.436,0.195,0.436,0.436v11.674C661.14,711.916,660.945,712.111,660.704,712.111
			z"/>
		<path style="fill:#F4F4F4;" d="M660.704,634.28h-27.007c-0.241,0-0.436-0.195-0.436-0.436v-11.673
			c0-0.241,0.195-0.436,0.436-0.436h27.007c0.241,0,0.436,0.195,0.436,0.436v11.673C661.14,634.085,660.945,634.28,660.704,634.28z"
			/>
		<path style="fill:#F4F4F4;" d="M632.825,743.476h-27.008c-0.241,0-0.436-0.195-0.436-0.436v-11.674
			c0-0.241,0.195-0.436,0.436-0.436h27.008c0.241,0,0.436,0.195,0.436,0.436v11.674
			C633.261,743.281,633.065,743.476,632.825,743.476z"/>
		<path style="fill:#F4F4F4;" d="M684.866,663.554h-27.007c-0.241,0-0.436-0.195-0.436-0.436v-11.674
			c0-0.241,0.195-0.436,0.436-0.436h27.007c0.241,0,0.436,0.195,0.436,0.436v11.674
			C685.302,663.359,685.107,663.554,684.866,663.554z"/>
		<path style="fill:#F4F4F4;" d="M714.604,663.554h-27.007c-0.241,0-0.436-0.195-0.436-0.436v-11.674
			c0-0.241,0.195-0.436,0.436-0.436h27.007c0.241,0,0.436,0.195,0.436,0.436v11.674
			C715.041,663.359,714.845,663.554,714.604,663.554z"/>
		<path style="fill:#F4F4F4;" d="M698.806,678.655h-27.007c-0.241,0-0.436-0.195-0.436-0.436v-11.673
			c0-0.241,0.195-0.436,0.436-0.436h27.007c0.241,0,0.436,0.195,0.436,0.436v11.673C699.242,678.46,699.047,678.655,698.806,678.655
			z"/>
		<path style="fill:#F4F4F4;" d="M680.219,610.815h-27.007c-0.241,0-0.436-0.195-0.436-0.436v-11.674
			c0-0.241,0.195-0.436,0.436-0.436h27.007c0.241,0,0.436,0.195,0.436,0.436v11.674C680.656,610.62,680.46,610.815,680.219,610.815z
			"/>
		<path style="fill:#F4F4F4;" d="M742.484,613.603h-27.007c-0.241,0-0.436-0.195-0.436-0.436v-11.674
			c0-0.241,0.195-0.436,0.436-0.436h27.007c0.241,0,0.436,0.195,0.436,0.436v11.674C742.92,613.408,742.725,613.603,742.484,613.603
			z"/>
		<path style="fill:#F4F4F4;" d="M780.453,585.724h-27.007c-0.241,0-0.436-0.195-0.436-0.436v-11.674
			c0-0.241,0.195-0.436,0.436-0.436h27.007c0.241,0,0.436,0.195,0.436,0.436v11.674
			C780.889,585.529,780.694,585.724,780.453,585.724z"/>
		<path style="fill:#F4F4F4;" d="M829.708,613.603H802.7c-0.241,0-0.436-0.195-0.436-0.436v-11.674c0-0.241,0.195-0.436,0.436-0.436
			h27.008c0.241,0,0.436,0.195,0.436,0.436v11.674C830.144,613.408,829.949,613.603,829.708,613.603z"/>
		<path style="fill:#F4F4F4;" d="M895.689,636.836h-27.007c-0.241,0-0.436-0.195-0.436-0.436v-11.674
			c0-0.241,0.195-0.436,0.436-0.436h27.007c0.241,0,0.436,0.195,0.436,0.436V636.4C896.125,636.641,895.93,636.836,895.689,636.836z
			"/>
		<path style="fill:#F4F4F4;" d="M853.405,657.281h-27.007c-0.241,0-0.436-0.195-0.436-0.436v-11.673
			c0-0.241,0.195-0.436,0.436-0.436h27.007c0.241,0,0.436,0.195,0.436,0.436v11.673
			C853.841,657.086,853.646,657.281,853.405,657.281z"/>
		<path style="fill:#F4F4F4;" d="M839.465,672.382h-27.007c-0.241,0-0.436-0.195-0.436-0.436v-11.673
			c0-0.241,0.195-0.436,0.436-0.436h27.007c0.241,0,0.436,0.195,0.436,0.436v11.673
			C839.901,672.187,839.706,672.382,839.465,672.382z"/>
	</g>
	<rect x="695.258" y="534.858" style="fill:#D2D8D8;" width="52.359" height="107.86"/>
	<path style="fill:#D2D8D8;" d="M558.875,398.977L558.875,398.977c3.636,0,7.116-1.474,9.646-4.086l187.864-194.008
		c5.291-5.464,14.058-5.446,19.327,0.037l186.31,193.932c2.532,2.635,6.028,4.125,9.682,4.125h7.902
		c11.958,0,17.95-14.456,9.498-22.916L778.74,165.484c-5.244-5.249-13.752-5.249-18.997,0L549.377,376.062
		C540.925,384.522,546.917,398.977,558.875,398.977z"/>
	<rect x="672.252" y="257.147" style="fill:#D2D8D8;" width="188.195" height="23.115"/>
	<rect x="559.6" y="468.546" style="fill:#D2D8D8;" width="433.46" height="20.626"/>
	<rect x="801.96" y="534.858" style="fill:#D2D8D8;" width="52.359" height="107.86"/>
	<g>
		<path style="fill:#ECEAEC;" d="M800.74,415.766h-62.997v-69.268c0-17.395,14.102-31.498,31.499-31.498l0,0
			c17.395,0,31.498,14.103,31.498,31.498V415.766z"/>
		<path style="fill:#BBF2EA;" d="M792.947,403.299h-47.411v-52.129c0-13.093,10.613-23.706,23.706-23.706l0,0
			c13.092,0,23.705,10.613,23.705,23.706V403.299z"/>
		<rect x="733.521" y="408.671" style="fill:#D2D8D8;" width="71.441" height="14.189"/>
	</g>
	<g>
		<rect x="743.688" y="534.858" style="fill:#ECEAEC;" width="62.997" height="100.766"/>
		<rect x="751.481" y="547.324" style="fill:#BBF2EA;" width="47.411" height="75.834"/>
		<rect x="739.466" y="628.53" style="fill:#DADEDD;" width="71.441" height="14.188"/>
	</g>
	<rect x="568.521" y="719.236" style="fill:#D2D8D8;" width="413.33" height="28.559"/>
	<rect x="569.914" y="181.362" style="fill:#F9F9F9;" width="92.025" height="21.437"/>
	<path style="opacity:0.4;fill:#7EE5AF;" d="M1001.039,741.67c0-26.445,21.438-47.882,47.882-47.882
		c26.445,0,47.882,21.438,47.882,47.882c0,1.976-0.134,3.92-0.366,5.833h-95.032C1001.173,745.59,1001.039,743.646,1001.039,741.67z
		"/>
	<path style="opacity:0.07;" d="M980.582,469.019V399.45l-0.154-0.155c10.535-1.565,15.351-14.81,7.407-22.76L777.47,165.957
		c-2.622-2.625-6.06-3.937-9.499-3.937v586.248h212.611v-28.559V489.644h11.208v-20.626H980.582z"/>
</g>
</svg>
