<?xml version="1.0" encoding="iso-8859-1"?>
<!-- Generator: Adobe Illustrator 22.0.1, SVG Export Plug-In . SVG Version: 6.00 Build 0)  -->
<svg version="1.1" id="Capa_1" xmlns="http://www.w3.org/2000/svg" xmlns:xlink="http://www.w3.org/1999/xlink" x="0px" y="0px"
	 viewBox="0 0 1529.897 727.35" style="enable-background:new 0 0 1529.897 727.35;" xml:space="preserve">
<g>
	<g style="opacity:0.2;">
		<polygon style="fill:#BEDBF1;" points="524.38,51.819 387.172,208.507 387.172,418.614 398.04,516.426 544.081,553.105 
			985.429,553.105 1142.725,418.614 1142.725,261.707 1029.033,69.283 		"/>
		<g>
			<path style="fill:#FFFFFF;" d="M539.974,139.224h-352.53c-19.132,0-34.642-15.51-34.642-34.642s15.51-34.642,34.642-34.642
				h352.53c19.132,0,34.642,15.51,34.642,34.642S559.106,139.224,539.974,139.224z"/>
		</g>
		<g>
			<path style="fill:#FFFFFF;" d="M1300.364,139.224h-352.53c-19.132,0-34.642-15.51-34.642-34.642s15.51-34.642,34.642-34.642
				h352.53c19.132,0,34.642,15.51,34.642,34.642S1319.496,139.224,1300.364,139.224z"/>
		</g>
		<g>
			<path style="fill:#FFFFFF;" d="M1439.639,277.791h-352.53c-19.132,0-34.642-15.51-34.642-34.642s15.51-34.642,34.642-34.642
				h352.53c19.132,0,34.642,15.51,34.642,34.642S1458.771,277.791,1439.639,277.791z"/>
		</g>
		<g>
			<path style="fill:#FFFFFF;" d="M387.172,277.791H34.642C15.51,277.791,0,262.281,0,243.149s15.51-34.642,34.642-34.642h352.53
				c19.132,0,34.642,15.51,34.642,34.642S406.304,277.791,387.172,277.791z"/>
		</g>
		<g>
			<path style="fill:#FFFFFF;" d="M463.578,410.354h-352.53c-19.132,0-34.642-15.51-34.642-34.642s15.51-34.642,34.642-34.642
				h352.53c19.132,0,34.642,15.51,34.642,34.642S482.71,410.354,463.578,410.354z"/>
		</g>
		<g>
			<path style="fill:#FFFFFF;" d="M1495.255,418.614h-352.53c-19.132,0-34.642-15.51-34.642-34.642s15.51-34.642,34.642-34.642
				h352.53c19.132,0,34.642,15.51,34.642,34.642S1514.387,418.614,1495.255,418.614z"/>
		</g>
		<g>
			<path style="fill:#FFFFFF;" d="M1375.781,551.067H872.417c-19.132,0-34.642-15.51-34.642-34.642
				c0-19.132,15.51-34.642,34.642-34.642h503.363c19.132,0,34.642,15.51,34.642,34.642
				C1410.422,535.557,1394.912,551.067,1375.781,551.067z"/>
		</g>
		<g>
			<path style="fill:#FFFFFF;" d="M577.712,551.067H74.349c-19.132,0-34.642-15.51-34.642-34.642
				c0-19.132,15.51-34.642,34.642-34.642h503.363c19.132,0,34.642,15.51,34.642,34.642
				C612.354,535.557,596.844,551.067,577.712,551.067z"/>
		</g>
		<g>
			<path style="fill:#BEDBF1;" d="M985.429,622.389H544.081c-19.132,0-34.642-15.51-34.642-34.642
				c0-19.132,15.51-34.642,34.642-34.642h441.347c19.132,0,34.642,15.51,34.642,34.642
				C1020.07,606.879,1004.56,622.389,985.429,622.389z"/>
		</g>
		<g>
			<path style="fill:#BEDBF1;" d="M1212.009,487.897H770.661c-19.132,0-34.642-15.51-34.642-34.642s15.51-34.642,34.642-34.642
				h441.347c19.132,0,34.642,15.51,34.642,34.642S1231.14,487.897,1212.009,487.897z"/>
		</g>
		<g>
			<path style="fill:#BEDBF1;" d="M1284.349,347.731H843.001c-19.132,0-34.642-15.51-34.642-34.642s15.51-34.642,34.642-34.642
				h441.347c19.132,0,34.642,15.51,34.642,34.642S1303.48,347.731,1284.349,347.731z"/>
		</g>
		<g>
			<path style="fill:#BEDBF1;" d="M1029.033,69.283H483.339c-19.132,0-34.642-15.51-34.642-34.642S464.207,0,483.339,0h545.694
				c19.132,0,34.642,15.51,34.642,34.642S1048.165,69.283,1029.033,69.283z"/>
		</g>
		<g>
			<path style="fill:#BEDBF1;" d="M824.068,208.507H278.374c-19.132,0-34.642-15.51-34.642-34.642s15.51-34.642,34.642-34.642
				h545.694c19.132,0,34.642,15.51,34.642,34.642S843.2,208.507,824.068,208.507z"/>
		</g>
		<g>
			<path style="fill:#BEDBF1;" d="M824.068,344.127H278.374c-19.132,0-34.642-15.51-34.642-34.642
				c0-19.132,15.51-34.642,34.642-34.642h545.694c19.132,0,34.642,15.51,34.642,34.642
				C858.71,328.617,843.2,344.127,824.068,344.127z"/>
		</g>
		<g>
			<path style="fill:#BEDBF1;" d="M895.39,479.746H349.695c-19.132,0-34.642-15.51-34.642-34.642s15.51-34.642,34.642-34.642H895.39
				c19.132,0,34.642,15.51,34.642,34.642S914.521,479.746,895.39,479.746z"/>
		</g>
		<g>
			<path style="fill:#BEDBF1;" d="M1150.705,208.507H709.358c-19.132,0-34.642-15.51-34.642-34.642s15.51-34.642,34.642-34.642
				h441.347c19.132,0,34.642,15.51,34.642,34.642S1169.837,208.507,1150.705,208.507z"/>
		</g>
	</g>
	<line style="fill:none;stroke:#E0E0E0;stroke-miterlimit:10;" x1="335.009" y1="725.891" x2="1203.466" y2="725.891"/>
	<path style="opacity:0.2;fill:#BEDBF1;" d="M1326.309,120.254h-43.988c-19.619,0-35.671-16.052-35.671-35.671v-0.002
		c0-19.619,16.052-35.671,35.671-35.671h43.988c19.619,0,35.671,16.052,35.671,35.671v0.002
		C1361.98,104.202,1345.928,120.254,1326.309,120.254z"/>
	<rect x="760.481" y="113.939" style="fill:#F9F9F9;" width="4.883" height="10.846"/>
	<path style="fill:#D2D8D8;" d="M1178.713,407.5H345.636v-88.382c0-4.781,3.876-8.657,8.657-8.657h815.762
		c4.781,0,8.657,3.876,8.657,8.657V407.5z"/>
	<path style="fill:#F4F4F4;" d="M517.744,725.167H316.341v-81.855c0-3.836,3.11-6.945,6.945-6.945h194.458V725.167z"/>
	<path style="fill:#F4F4F4;" d="M1208.008,725.167h-201.403v-88.8h194.448c3.841,0,6.955,3.114,6.955,6.955V725.167z"/>
	<path style="fill:#F4F4F4;" d="M345.636,407.5h833.077v18.039c0,3.183-2.58,5.763-5.763,5.763H351.399
		c-3.183,0-5.763-2.58-5.763-5.763V407.5z"/>
	<rect x="1006.604" y="431.302" style="fill:#F4F4F4;" width="131.828" height="205.065"/>
	<rect x="385.917" y="431.302" style="fill:#F4F4F4;" width="131.828" height="205.065"/>
	<rect x="360.283" y="447.78" style="fill:#E8E8E8;" width="25.633" height="173.939"/>
	<rect x="629.264" y="191.449" style="fill:#F4F4F4;" width="267.317" height="64.083"/>
	<rect x="736.373" y="132.859" style="fill:#F4F4F4;" width="53.097" height="20.14"/>
	<path style="fill:#BBF2EA;stroke:#D2D8D8;stroke-width:9;stroke-miterlimit:10;" d="M484.786,598.372h-65.91V487.296
		c0-9.941,8.058-17.999,17.999-17.999h29.912c9.941,0,17.999,8.058,17.999,17.999V598.372z"/>
	<path style="fill:#BBF2EA;stroke:#D2D8D8;stroke-width:9;stroke-miterlimit:10;" d="M1105.473,598.826h-65.91V487.751
		c0-9.941,8.058-17.999,17.999-17.999h29.912c9.941,0,17.999,8.058,17.999,17.999V598.826z"/>
	<path style="fill:#D2D8D8;" d="M1019.465,296.507l-153.445-86.84c-0.709-0.401-1.541-0.489-2.317-0.244
		c-27.472,8.668-62.6,13.872-100.888,13.872c-37.241,0-71.49-4.924-98.615-13.17c-0.76-0.231-1.57-0.145-2.265,0.24l-155.532,86.128
		c-2.665,1.476-1.617,5.532,1.429,5.532h510.18C1021.044,302.025,1022.104,298,1019.465,296.507z"/>
	<rect x="517.744" y="301.305" style="fill:#F9F9F9;" width="488.86" height="364.357"/>
	<rect x="352.96" y="431.302" style="fill:#F4F4F4;" width="36.619" height="20.14"/>
	<rect x="352.96" y="616.227" style="fill:#F4F4F4;" width="36.619" height="20.14"/>
	<rect x="517.744" y="301.305" style="opacity:0.05;" width="488.86" height="34.788"/>
	<path style="fill:#D2D8D8;" d="M762.922,124.035c-11.347,0-21.221,3.565-26.331,8.824h52.662
		C784.143,127.6,774.269,124.035,762.922,124.035z"/>
	<rect x="629.264" y="190.062" style="opacity:0.05;" width="267.317" height="14.65"/>
	<path style="fill:#D2D8D8;" d="M762.922,146.007c-58.437,0-109.289,18.358-135.605,45.442h271.209
		C872.211,164.364,821.359,146.007,762.922,146.007z"/>
	<rect x="388.91" y="430.997" style="opacity:0.05;" width="128.834" height="10.986"/>
	<rect x="1006.604" y="427.64" style="opacity:0.05;" width="125.904" height="10.986"/>
	<path style="fill:#D2D8D8;" d="M1025.829,725.167h-527.31v-54.654c0-2.679,2.172-4.852,4.852-4.852h517.607
		c2.679,0,4.852,2.172,4.852,4.852V725.167z"/>
	<rect x="409.8" y="598.372" style="fill:#D2D8D8;" width="84.061" height="10.495"/>
	<rect x="1030.488" y="598.372" style="fill:#D2D8D8;" width="84.061" height="10.495"/>
	<path style="fill:#D2D8D8;" d="M749.497,314.385l-176.191,93.835c-2.418,1.288-1.503,4.953,1.237,4.953h376.758
		c2.724,0,3.652-3.632,1.262-4.939L781.259,314.56C771.377,309.156,759.438,309.09,749.497,314.385z"/>
	<rect x="587.762" y="413.173" style="opacity:0.05;" width="350.319" height="15.258"/>
	<rect x="595.086" y="623.73" style="fill:#F4F4F4;" width="40.281" height="98.871"/>
	<rect x="635.367" y="689.644" style="fill:#F4F4F4;" width="256.331" height="32.957"/>
	<rect x="635.367" y="656.687" style="fill:#F4F4F4;" width="256.331" height="32.957"/>
	<rect x="635.367" y="626.938" style="fill:#F4F4F4;" width="256.331" height="29.749"/>
	<rect x="592.645" y="612.87" style="fill:#F4F4F4;" width="45.163" height="13.427"/>
	<rect x="592.645" y="428.43" style="fill:#F4F4F4;" width="45.163" height="13.427"/>
	<rect x="598.984" y="441.857" style="fill:#E8E8E8;" width="32.484" height="171.013"/>
	<rect x="635.367" y="626.241" style="opacity:0.05;" width="256.331" height="14.76"/>
	<rect x="635.367" y="659.877" style="opacity:0.05;" width="256.331" height="11.57"/>
	<rect x="635.367" y="692.834" style="opacity:0.05;" width="256.331" height="11.57"/>
	<rect x="389.244" y="625.609" style="opacity:0.05;" width="128.166" height="10.986"/>
	<rect x="1006.333" y="628.128" style="opacity:0.05;" width="125.841" height="10.986"/>
	
		<rect x="657.811" y="469.752" style="fill:#B5B5B5;stroke:#DBDDDD;stroke-width:6;stroke-miterlimit:10;" width="213.609" height="157.641"/>
	
		<line style="fill:none;stroke:#DBDDDD;stroke-width:3;stroke-miterlimit:10;" x1="764.616" y1="469.752" x2="764.616" y2="628.128"/>
	<circle style="fill:#DBDDDD;" cx="749.968" cy="562.717" r="4.548"/>
	<circle style="fill:#DBDDDD;" cx="779.263" cy="562.717" r="4.548"/>
	<line style="opacity:0.1;fill:none;stroke:#DBDDDD;stroke-miterlimit:10;" x1="676.731" y1="469.752" x2="676.731" y2="627.392"/>
	<line style="opacity:0.1;fill:none;stroke:#DBDDDD;stroke-miterlimit:10;" x1="695.04" y1="469.752" x2="695.04" y2="627.392"/>
	<line style="opacity:0.1;fill:none;stroke:#DBDDDD;stroke-miterlimit:10;" x1="713.349" y1="469.752" x2="713.349" y2="627.392"/>
	<line style="opacity:0.1;fill:none;stroke:#DBDDDD;stroke-miterlimit:10;" x1="731.659" y1="469.752" x2="731.659" y2="627.392"/>
	<line style="opacity:0.1;fill:none;stroke:#DBDDDD;stroke-miterlimit:10;" x1="749.968" y1="469.752" x2="749.968" y2="627.392"/>
	<line style="opacity:0.1;fill:none;stroke:#DBDDDD;stroke-miterlimit:10;" x1="852.501" y1="469.752" x2="852.501" y2="627.392"/>
	<line style="opacity:0.1;fill:none;stroke:#DBDDDD;stroke-miterlimit:10;" x1="834.191" y1="469.752" x2="834.191" y2="627.392"/>
	<line style="opacity:0.1;fill:none;stroke:#DBDDDD;stroke-miterlimit:10;" x1="815.882" y1="469.752" x2="815.882" y2="627.392"/>
	<line style="opacity:0.1;fill:none;stroke:#DBDDDD;stroke-miterlimit:10;" x1="797.572" y1="469.752" x2="797.572" y2="627.392"/>
	<line style="opacity:0.1;fill:none;stroke:#DBDDDD;stroke-miterlimit:10;" x1="779.263" y1="469.752" x2="779.263" y2="627.392"/>
	<rect x="659.055" y="470.993" style="opacity:0.05;" width="211.121" height="15.258"/>
	<rect x="734.735" y="440.914" style="fill:#F4F4F4;" width="57.594" height="13.732"/>
	<g>
		<path style="fill:#F4F4F4;" d="M545.68,421.275h-27.5c-0.241,0-0.436-0.195-0.436-0.436v-11.896c0-0.241,0.195-0.436,0.436-0.436
			h27.5c0.241,0,0.436,0.195,0.436,0.436v11.895C546.116,421.08,545.921,421.275,545.68,421.275z"/>
		<path style="fill:#F4F4F4;" d="M608.836,377.771h-27.5c-0.241,0-0.436-0.195-0.436-0.436V365.44c0-0.241,0.195-0.436,0.436-0.436
			h27.5c0.241,0,0.436,0.195,0.436,0.436v11.895C609.272,377.575,609.077,377.771,608.836,377.771z"/>
		<path style="fill:#F4F4F4;" d="M585.658,650.255h-27.501c-0.241,0-0.436-0.195-0.436-0.436v-11.896
			c0-0.241,0.195-0.436,0.436-0.436h27.501c0.241,0,0.436,0.195,0.436,0.436v11.896
			C586.094,650.059,585.899,650.255,585.658,650.255z"/>
		<path style="fill:#F4F4F4;" d="M969.13,611.57h-27.5c-0.241,0-0.436-0.195-0.436-0.436v-11.895c0-0.241,0.195-0.436,0.436-0.436
			h27.5c0.241,0,0.436,0.195,0.436,0.436v11.896C969.566,611.374,969.371,611.57,969.13,611.57z"/>
		<path style="fill:#F4F4F4;" d="M999.394,611.57h-27.5c-0.241,0-0.436-0.195-0.436-0.436v-11.896c0-0.241,0.195-0.436,0.436-0.436
			h27.5c0.241,0,0.436,0.195,0.436,0.436v11.896C999.83,611.374,999.635,611.57,999.394,611.57z"/>
		<path style="fill:#F4F4F4;" d="M983.316,626.938h-27.5c-0.241,0-0.436-0.195-0.436-0.436v-11.894c0-0.241,0.195-0.436,0.436-0.436
			h27.5c0.241,0,0.436,0.195,0.436,0.436v11.894C983.752,626.743,983.557,626.938,983.316,626.938z"/>
		<path style="fill:#F4F4F4;" d="M962.356,371.387h-27.5c-0.241,0-0.436-0.195-0.436-0.436v-11.896c0-0.241,0.195-0.436,0.436-0.436
			h27.5c0.241,0,0.436,0.195,0.436,0.436v11.896C962.792,371.192,962.597,371.387,962.356,371.387z"/>
		<path style="fill:#F4F4F4;" d="M1006.487,407.805h-27.5c-0.241,0-0.436-0.195-0.436-0.436v-11.895
			c0-0.241,0.195-0.436,0.436-0.436h27.5c0.241,0,0.436,0.195,0.436,0.436v11.895
			C1006.923,407.61,1006.728,407.805,1006.487,407.805z"/>
		<path style="fill:#F4F4F4;" d="M992.301,461.848h-27.5c-0.241,0-0.436-0.195-0.436-0.436v-11.895c0-0.241,0.195-0.436,0.436-0.436
			h27.5c0.241,0,0.436,0.195,0.436,0.436v11.895C992.737,461.653,992.542,461.848,992.301,461.848z"/>
	</g>
	<rect x="360.283" y="451.442" style="opacity:0.05;" width="25.684" height="7.415"/>
	<rect x="353.294" y="426.752" style="opacity:0.05;" width="35.95" height="3.357"/>
	<rect x="352.96" y="636.812" style="opacity:0.05;" width="35.95" height="3.357"/>
	<rect x="598.984" y="441.372" style="opacity:0.05;" width="32.484" height="7.415"/>
	<rect x="595.086" y="626.449" style="opacity:0.05;" width="40.281" height="3.357"/>
	
		<rect x="561.913" y="691.994" transform="matrix(6.123234e-17 -1 1 6.123234e-17 -103.7342 1287.0806)" style="opacity:0.05;" width="59.52" height="6.826"/>
	<rect x="891.806" y="623.73" style="fill:#F4F4F4;" width="40.281" height="98.871"/>
	<rect x="889.365" y="612.87" style="fill:#F4F4F4;" width="45.163" height="13.427"/>
	<rect x="889.365" y="428.43" style="fill:#F4F4F4;" width="45.163" height="13.427"/>
	<rect x="895.705" y="441.857" style="fill:#E8E8E8;" width="32.484" height="171.013"/>
	<rect x="895.705" y="441.372" style="opacity:0.05;" width="32.484" height="7.415"/>
	<rect x="891.806" y="626.449" style="opacity:0.05;" width="40.281" height="3.357"/>
	
		<rect x="904.909" y="692.002" transform="matrix(6.123234e-17 -1 1 6.123234e-17 239.2543 1630.0835)" style="opacity:0.05;" width="59.52" height="6.826"/>
	<rect x="1138.325" y="447.568" style="fill:#E8E8E8;" width="25.633" height="173.939"/>
	<rect x="1132.174" y="427.64" style="fill:#F4F4F4;" width="36.619" height="20.14"/>
	<rect x="1132.174" y="618.057" style="fill:#F4F4F4;" width="36.619" height="20.14"/>
	<rect x="1138.299" y="447.568" style="opacity:0.05;" width="25.684" height="7.415"/>
	<rect x="1132.508" y="424.33" style="opacity:0.05;" width="35.95" height="3.357"/>
	<rect x="1132.174" y="638.864" style="opacity:0.05;" width="35.95" height="3.357"/>
	<g style="opacity:0.4;">
		<path style="fill:#AF6E5A;" d="M230.311,686.55v37.053c0,3.375,6.109,3.747,6.109,3.747v-40.408
			C234.35,686.942,232.313,686.798,230.311,686.55L230.311,686.55z M230.311,686.55"/>
		<path style="fill:#965A50;" d="M236.42,727.35c0,0,6.11-0.372,6.11-3.747V686.55c-2.002,0.248-4.039,0.392-6.11,0.392V727.35z
			 M236.42,727.35"/>
		<path style="fill:#7CDAAF;" d="M243.88,456.142c-0.551-1.941-1.085-3.808-1.586-5.567c-0.052-0.182-0.11-0.354-0.176-0.525
			c0.066,0.171,0.124,0.343,0.176,0.525C242.795,452.335,243.326,454.201,243.88,456.142L243.88,456.142z M243.88,456.142"/>
		<path style="fill:#7CDAAF;" d="M242.114,450.038c-0.589-1.557-1.673-2.647-2.954-3.271
			C240.442,447.391,241.526,448.481,242.114,450.038L242.114,450.038z M242.114,450.038"/>
		<path style="fill:#7EE5AF;" d="M236.42,644.172V446.144c-2.512,0-5.027,1.477-5.873,4.431
			c-12.987,45.4-43.006,153.969-43.006,187.488c0,24.926,18.661,45.479,42.77,48.487c2.002,0.248,4.039,0.392,6.109,0.392V644.172z
			 M236.42,644.172"/>
		<path style="fill:#08D9C7;" d="M285.107,632.87c-2.478-36.804-28.208-130.926-41.227-176.728
			c-0.551-1.941-1.085-3.808-1.586-5.567c-0.052-0.182-0.11-0.354-0.176-0.525c0-0.006,0-0.009-0.003-0.012
			c-0.589-1.557-1.673-2.647-2.954-3.271c-0.285-0.139-0.58-0.254-0.882-0.346c-0.3-0.092-0.608-0.162-0.917-0.208
			c-0.312-0.047-0.626-0.069-0.941-0.069v240.798c2.071,0,4.108-0.144,6.11-0.395c0.444-0.055,0.891-0.101,1.333-0.168
			c6.473-0.99,12.527-3.248,17.902-6.513c0.672-0.41,1.335-0.834,1.984-1.272c5.85-3.951,10.8-9.138,14.475-15.184
			c1.223-2.017,2.308-4.128,3.234-6.32c0.62-1.462,1.168-2.962,1.644-4.491c1.428-4.593,2.198-9.473,2.198-14.535
			C285.3,636.491,285.234,634.754,285.107,632.87L285.107,632.87z M285.107,632.87"/>
	</g>
	<g style="opacity:0.4;">
		<path style="fill:#AF6E5A;" d="M1272.42,686.55v37.053c0,3.375,6.109,3.747,6.109,3.747v-40.408
			C1276.459,686.942,1274.422,686.798,1272.42,686.55L1272.42,686.55z M1272.42,686.55"/>
		<path style="fill:#965A50;" d="M1278.53,727.35c0,0,6.11-0.372,6.11-3.747V686.55c-2.002,0.248-4.039,0.392-6.11,0.392V727.35z
			 M1278.53,727.35"/>
		<path style="fill:#7CDAAF;" d="M1285.99,456.142c-0.551-1.941-1.085-3.808-1.586-5.567c-0.052-0.182-0.11-0.354-0.177-0.525
			c0.067,0.171,0.124,0.343,0.177,0.525C1284.905,452.335,1285.436,454.201,1285.99,456.142L1285.99,456.142z M1285.99,456.142"/>
		<path style="fill:#7CDAAF;" d="M1284.224,450.038c-0.589-1.557-1.673-2.647-2.954-3.271
			C1282.551,447.391,1283.635,448.481,1284.224,450.038L1284.224,450.038z M1284.224,450.038"/>
		<path style="fill:#7EE5AF;" d="M1278.53,644.172V446.144c-2.512,0-5.027,1.477-5.873,4.431
			c-12.987,45.4-43.006,153.969-43.006,187.488c0,24.926,18.661,45.479,42.77,48.487c2.002,0.248,4.039,0.392,6.109,0.392V644.172z
			 M1278.53,644.172"/>
		<path style="fill:#08D9C7;" d="M1327.216,632.87c-2.478-36.804-28.208-130.926-41.227-176.728
			c-0.551-1.941-1.085-3.808-1.586-5.567c-0.052-0.182-0.11-0.354-0.177-0.525c0-0.006,0-0.009-0.003-0.012
			c-0.589-1.557-1.673-2.647-2.954-3.271c-0.285-0.139-0.58-0.254-0.882-0.346c-0.3-0.092-0.608-0.162-0.917-0.208
			c-0.312-0.047-0.626-0.069-0.941-0.069v240.798c2.071,0,4.108-0.144,6.11-0.395c0.444-0.055,0.891-0.101,1.333-0.168
			c6.473-0.99,12.527-3.248,17.902-6.513c0.672-0.41,1.335-0.834,1.984-1.272c5.85-3.951,10.8-9.138,14.475-15.184
			c1.223-2.017,2.308-4.128,3.234-6.32c0.62-1.462,1.168-2.962,1.644-4.491c1.428-4.593,2.198-9.473,2.198-14.535
			C1327.41,636.491,1327.343,634.754,1327.216,632.87L1327.216,632.87z M1327.216,632.87"/>
	</g>
	<path style="opacity:0.07;" d="M1200.909,635.872l-32.26,0.073l-0.041-18.309l-4.834,0.011l-0.367-163.074l0.025,0l-0.016-7.203
		l4.809-0.011l-0.037-16.478l4.157-0.009c3.183-0.007,5.757-2.593,5.75-5.776l-0.041-18.039l-0.199-88.382
		c-0.011-4.781-3.895-8.648-8.677-8.638l-163.45,0.368l-0.019-8.435l11.407-0.026c3.032-0.007,4.083-4.034,1.441-5.522
		l-123.041-69.268l-0.05-22.251l-0.03-13.262l1.946-0.004c-22.29-22.839-62.091-39.403-109.155-43.909l-0.032-14.435l-0.218,0
		c-4.75-4.867-13.598-8.262-23.909-8.709l-0.023-10.157l-4.605,0.01l1.375,611.226l170.498-0.383v0.007l6.826-0.015l0-0.007
		l68.523-0.154l19.224-0.043l182.178-0.41l-0.184-81.845C1207.871,638.97,1204.75,635.863,1200.909,635.872z"/>
</g>
</svg>
