<?xml version="1.0" encoding="iso-8859-1"?>
<!-- Generator: Adobe Illustrator 22.0.1, SVG Export Plug-In . SVG Version: 6.00 Build 0)  -->
<svg version="1.1" id="Capa_1" xmlns="http://www.w3.org/2000/svg" xmlns:xlink="http://www.w3.org/1999/xlink" x="0px" y="0px"
	 viewBox="0 0 64.66 64.66" style="enable-background:new 0 0 64.66 64.66;" xml:space="preserve">
<path style="fill:#FFFFFF;stroke:#DDDDDD;stroke-width:3;stroke-miterlimit:10;" d="M51.16,63.16H13.5c-6.6,0-12-5.4-12-12V13.5
	c0-6.6,5.4-12,12-12h37.66c6.6,0,12,5.4,12,12v37.66C63.16,57.76,57.76,63.16,51.16,63.16z"/>
<g>
	<path style="fill:#DDDDDD;" d="M16.442,22.017c0-2.23,1.792-4.022,4.022-4.022c2.23,0,4.021,1.792,4.021,4.022
		s-1.792,4.022-4.021,4.022C18.234,26.039,16.442,24.247,16.442,22.017z M16.88,46.665V27.432h7.168v19.233H16.88z"/>
	<path style="fill:#DDDDDD;" d="M41.05,46.665V36.034c0-1.992-1.075-2.748-2.787-2.748c-1.632,0-2.469,0.836-3.066,1.514v11.866
		h-7.168V27.432h7.168v2.19c1.115-1.275,3.225-2.669,6.61-2.669c4.46,0,6.411,2.708,6.411,6.053v13.658H41.05z"/>
</g>
<g>
</g>
<g>
</g>
<g>
</g>
<g>
</g>
<g>
</g>
<g>
</g>
</svg>
