<?xml version="1.0" encoding="iso-8859-1"?>
<!-- Generator: Adobe Illustrator 22.0.1, SVG Export Plug-In . SVG Version: 6.00 Build 0)  -->
<svg version="1.1" id="Capa_1" xmlns="http://www.w3.org/2000/svg" xmlns:xlink="http://www.w3.org/1999/xlink" x="0px" y="0px"
	 viewBox="0 0 174.881 174.881" style="enable-background:new 0 0 174.881 174.881;" xml:space="preserve">
<circle style="opacity:0.1;fill:#AAD0F5;" cx="87.441" cy="87.441" r="87.441"/>
<linearGradient id="SVGID_1_" gradientUnits="userSpaceOnUse" x1="87.4405" y1="43.8768" x2="87.4405" y2="131.0043">
	<stop  offset="0" style="stop-color:#08D8CB"/>
	<stop  offset="1" style="stop-color:#7EE5AF"/>
</linearGradient>
<path style="fill:url(#SVGID_1_);" d="M87.27,43.877c-24.186,0-43.394,19.954-43.394,43.734c0,23.984,19.408,43.394,43.394,43.394
	c23.807,0,43.734-19.235,43.734-43.394C131.004,63.735,111.339,43.877,87.27,43.877z M125.813,85.058h-12.722
	c-0.465-13.606-4.625-25.563-10.806-33.038C115.404,57.575,124.837,70.181,125.813,85.058z M84.718,49.297v35.761h-17.82
	C67.561,66.863,75.241,51.649,84.718,49.297z M84.718,90.163v35.425c-4.241-1.031-8.241-4.615-11.467-10.35
	c-3.791-6.739-6.016-15.564-6.354-25.075H84.718z M89.823,125.592V90.129h18.16C107.318,108.219,99.404,123.293,89.823,125.592z
	 M89.823,85.058v-35.75c9.451,2.389,17.486,17.318,18.16,35.75H89.823z M72.319,52.05c-7.07,8.749-10.154,21.678-10.531,33.009
	H49.068C50.033,70.207,59.352,57.62,72.319,52.05z M49.069,90.163h12.72c0.378,11.303,3.449,24.028,10.423,32.648
	C59.307,117.27,50.04,104.833,49.069,90.163z M102.432,122.825c7.139-8.691,10.272-21.466,10.659-32.696h12.72
	C124.831,104.81,115.467,117.29,102.432,122.825z"/>
<g>
</g>
<g>
</g>
<g>
</g>
<g>
</g>
<g>
</g>
<g>
</g>
</svg>
