<?xml version="1.0" encoding="iso-8859-1"?>
<!-- Generator: Adobe Illustrator 22.0.1, SVG Export Plug-In . SVG Version: 6.00 Build 0)  -->
<svg version="1.1" id="Capa_1" xmlns="http://www.w3.org/2000/svg" xmlns:xlink="http://www.w3.org/1999/xlink" x="0px" y="0px"
	 viewBox="0 0 174.881 174.881" style="enable-background:new 0 0 174.881 174.881;" xml:space="preserve">
<circle style="opacity:0.1;fill:#AAD0F5;" cx="87.441" cy="87.441" r="87.441"/>
<path style="fill:#7EE5AF;" d="M62.695,97.596c1.091-0.179,26.235-6.031,45.617-25.466v7.212c0,2.04,1.682,3.722,3.722,3.722
	c2.04,0,3.723-1.682,3.723-3.902V62.967c0-2.04-1.682-3.723-3.723-3.723H95.66c-2.04,0-3.723,1.682-3.723,3.723
	s1.682,3.722,3.723,3.722h7.678C85.549,84.979,61.209,90.706,61.03,90.706c-2.058,0.376-3.168,2.237-2.809,4.277
	C58.793,97.363,61.317,98.061,62.695,97.596L62.695,97.596z"/>
<path style="fill:#08D8CB;" d="M104.208,100.634h-8.196h-4.891h-8.313h-4.892h-8.195H64.83h-4.174c-1.341,0-2.446,1.682-2.446,3.722
	s1.105,3.723,2.446,3.723h52.594c1.341,0,2.564-1.682,2.564-3.723c0.011-2.058-1.094-3.722-2.434-3.722h-4.28H104.208z"/>
<g>
</g>
<g>
</g>
<g>
</g>
<g>
</g>
<g>
</g>
<g>
</g>
</svg>
