<?xml version="1.0" encoding="iso-8859-1"?>
<!-- Generator: Adobe Illustrator 22.0.1, SVG Export Plug-In . SVG Version: 6.00 Build 0)  -->
<svg version="1.1" id="Capa_1" xmlns="http://www.w3.org/2000/svg" xmlns:xlink="http://www.w3.org/1999/xlink" x="0px" y="0px"
	 viewBox="0 0 174.881 174.881" style="enable-background:new 0 0 174.881 174.881;" xml:space="preserve">
<circle style="opacity:0.1;fill:#AAD0F5;" cx="87.441" cy="87.441" r="87.441"/>
<path style="fill:#08D8CB;" d="M97.701,80.957c0-13.45-10.943-24.393-24.393-24.393c-13.45,0-24.392,10.943-24.392,24.393
	c0,3.942,0.941,7.666,2.607,10.964l21.785,44.925l21.788-44.931C96.76,88.617,97.701,84.894,97.701,80.957L97.701,80.957z
	 M73.308,94.455c-7.443,0-13.499-6.056-13.499-13.499c0-7.443,6.056-13.498,13.499-13.498c7.443,0,13.498,6.055,13.498,13.498
	C86.806,88.399,80.751,94.455,73.308,94.455L73.308,94.455z M73.308,94.455"/>
<g>
	<defs>
		<rect id="SVGID_1_" x="49.049" y="40.853" width="82.422" height="96.028"/>
	</defs>
	<clipPath id="SVGID_2_">
		<use xlink:href="#SVGID_1_"  style="overflow:visible;"/>
	</clipPath>
	<path style="clip-path:url(#SVGID_2_);" d="M98.15,114.104C98.199,114.082,98.187,114.087,98.15,114.104L98.15,114.104z
		 M98.15,114.104"/>
	<path style="clip-path:url(#SVGID_2_);fill:#7EE5AF;" d="M133.226,45.454c-0.224-0.459-0.449-0.919-0.673-1.38
		c-0.763,0.395-1.504,0.833-2.232,1.286c-0.415,0.259-0.825,0.524-1.231,0.794l-0.536,0.363c-0.164-0.249-0.329-0.499-0.493-0.748
		l0.529-0.327c0.438-0.266,0.88-0.527,1.327-0.78c0.763-0.431,1.537-0.845,2.331-1.214c-0.153-0.313-0.306-0.625-0.458-0.938
		c-0.091-0.185-0.181-0.371-0.272-0.555c-0.07-0.144-0.044-0.179-0.199-0.123c-1.39,0.502-2.751,1.08-4.082,1.72
		c-3.213,1.544-6.338,3.431-9.036,5.772c-2.8,2.429-5.287,5.235-6.992,8.55c-1.71,3.324-2.609,6.982-2.66,10.719
		c-0.026,1.883,0.218,3.731,0.562,5.579c0.347,1.873,0.979,3.657,1.628,5.441c0.443,1.287,1.14,2.477,1.626,3.748
		c0.317,0.827,0.547,1.66,0.745,2.52c0.182,0.794,0.217,1.678,0.122,2.485c-0.092,0.792-0.36,1.479-0.761,2.161
		c-0.419,0.716-1.061,1.336-1.673,1.888c-0.648,0.584-1.343,1.113-2.067,1.6c-3.086,2.076-6.6,3.494-10.114,4.66
		c-0.114,0.037-0.228,0.072-0.341,0.109l-7.223,14.895c0.099-0.033,0.199-0.064,0.298-0.097c1.74-0.579,3.471-1.188,5.182-1.849
		c0.734-0.284,1.464-0.577,2.193-0.874c0.06-0.024,0.201-0.086,0.201-0.086s0.095,0.232,0.137,0.328
		c0.371,0.841,0.74,1.68,1.111,2.521c0.153,0.347,0.306,0.694,0.458,1.04c0.027,0.061,0.053,0.12,0.079,0.18
		c0.002,0.003-0.522,0.241-0.63,0.29c0.025-0.012,0.049-0.022,0.066-0.031c-0.019,0.008-0.045,0.021-0.085,0.039
		c-2.87,1.315-5.805,2.495-8.773,3.57c-1.068,0.387-2.143,0.757-3.219,1.118l-8.608,17.752c1.307-0.47,2.606-0.963,3.899-1.462
		c3.445-1.33,6.849-2.769,10.202-4.318c6.812-3.15,13.452-6.754,19.558-11.133c5.837-4.209,11.343-9.219,14.97-15.509
		c1.821-3.157,3.15-6.65,3.646-10.272c0.509-3.701,0.16-7.493-0.992-11.046c-0.759-2.342-1.844-4.608-3.204-6.663
		c-0.603-0.913-1.239-1.791-1.902-2.661c-0.376-0.494-0.79-0.959-1.198-1.426c-0.612-0.702-1.116-1.503-1.617-2.285
		c-0.85-1.326-1.473-2.842-1.782-4.387c-0.381-1.907-0.246-3.816,0.256-5.686c0.962-3.587,3.228-6.776,5.723-9.467
		c1.534-1.655,3.215-3.179,5.004-4.554c0.357-0.275,0.718-0.543,1.086-0.803C133.4,45.708,133.37,45.749,133.226,45.454
		L133.226,45.454z M121.228,99.043c0,0-0.039,0.073-0.098,0.173c-0.014,0.021-0.019,0.027-0.02,0.028
		c-1.603,2.433-3.489,4.575-5.69,6.49c-2.073,1.804-4.329,3.36-6.651,4.822c-0.686-1.169-1.373-2.338-2.06-3.507
		c2.911-1.666,5.742-3.499,8.198-5.8c1.211-1.134,2.284-2.367,3.255-3.711l0.23-0.299L121.228,99.043 M121.113,79.921
		c-0.023-0.042-0.035-0.063,0.018,0.031c0.049,0.088,0.041,0.075,0.021,0.037c1.659,3.012,2.798,6.342,2.784,9.813
		c-1.003-0.02-2.006-0.039-3.009-0.058c0.126-2.575-0.545-5.135-1.575-7.478c-0.57-1.297-1.294-2.517-1.997-3.744
		c-0.608-1.06-1.136-2.141-1.649-3.248c0.389-0.176,0.78-0.352,1.17-0.527c0.25-0.113,0.954-0.433,0.954-0.433l0.063,0.133
		c0.461,0.891,0.935,1.755,1.465,2.607C119.948,78.006,120.562,78.944,121.113,79.921L121.113,79.921z M121.799,52.351
		c-1.745,2.01-3.308,4.137-4.399,6.581c-1.021,2.286-1.602,4.768-1.562,7.277c-0.651-0.009-1.302-0.019-1.952-0.028
		c0.097-3.34,1.157-6.577,2.865-9.439c0.867-1.454,1.893-2.792,3-4.07c0.267-0.308,0.553-0.6,0.833-0.896
		c0.101-0.106,0.41-0.449,0.41-0.449s0.633,0.612,0.915,0.883c0.004,0.003,0.006,0.007,0.01,0.009
		C121.877,52.261,121.837,52.305,121.799,52.351L121.799,52.351z M121.799,52.351"/>
</g>
<g>
</g>
<g>
</g>
<g>
</g>
<g>
</g>
<g>
</g>
<g>
</g>
</svg>
