<?xml version="1.0" encoding="UTF-8" standalone="no"?>
<!DOCTYPE svg PUBLIC "-//W3C//DTD SVG 1.1//EN" "http://www.w3.org/Graphics/SVG/1.1/DTD/svg11.dtd">
<svg width="100%" height="100%" viewBox="0 0 300 300" version="1.1" xmlns="http://www.w3.org/2000/svg" xmlns:xlink="http://www.w3.org/1999/xlink" xml:space="preserve" xmlns:serif="http://www.serif.com/" style="fill-rule:evenodd;clip-rule:evenodd;stroke-miterlimit:10;">
    <g transform="matrix(0.958703,0,0,0.958703,44.0619,40.462)">
        <ellipse cx="109.866" cy="226.455" rx="96.239" ry="2.057" style="fill-opacity:0.03;"/>
        <g transform="matrix(0.7071,-0.7071,0.7071,0.7071,-45.8272,110.636)">
            <circle cx="110.636" cy="110.636" r="110.636" style="fill:rgb(128,227,173);"/>
        </g>
        <path d="M4.371,141.404L23.669,107.619L48.292,119.957L85.605,57.787L111.093,83.273L135.671,71.011L172.115,107.4L196.672,82.842L221.175,106.661C221.223,107.983 221.276,109.302 221.276,110.636C221.275,49.536 171.74,0 110.638,0C49.535,0 0.001,49.535 0.001,110.637C0.002,121.318 1.546,131.632 4.371,141.404Z" style="fill:rgb(122,215,197);fill-rule:nonzero;"/>
        <path d="M221.084,104.205L221.084,110.446L209.148,110.446L209.148,98.511L220.611,98.511C220.597,98.384 220.582,98.256 220.567,98.129L209.148,98.129L209.148,86.248L218.572,86.248C218.544,86.121 218.518,85.993 218.489,85.866L209.148,85.866L209.148,73.93L215.032,73.93C214.987,73.803 214.943,73.675 214.897,73.548L209.148,73.548L209.148,61.667L209.866,61.667C209.803,61.54 209.74,61.413 209.676,61.285L209.148,61.285L209.148,60.224C209.024,59.981 208.893,59.743 208.766,59.501L208.766,61.285L196.886,61.285L196.886,49.352L202.757,49.352C202.673,49.225 202.591,49.097 202.506,48.97L196.886,48.97L196.886,41.348C196.759,41.19 196.632,41.032 196.504,40.874L196.504,48.97L184.57,48.97L184.57,37.088L193.28,37.088C193.167,36.961 193.055,36.833 192.941,36.706L184.569,36.706L184.569,28.334C184.443,28.22 184.314,28.108 184.187,27.996L184.187,36.707L172.305,36.707L172.305,24.77L180.399,24.77C180.241,24.642 180.083,24.516 179.925,24.388L172.304,24.388L172.304,18.77C172.178,18.685 172.049,18.603 171.922,18.519L171.922,24.389L159.987,24.389L159.987,12.507L161.768,12.507C161.527,12.381 161.287,12.25 161.045,12.125L159.987,12.125L159.987,11.598C159.86,11.535 159.733,11.471 159.605,11.408L159.605,12.125L147.722,12.125L147.722,6.377C147.595,6.332 147.468,6.287 147.34,6.242L147.34,12.125L135.41,12.125L135.41,2.786C135.283,2.757 135.156,2.731 135.028,2.703L135.028,12.125L123.145,12.125L123.145,0.708C123.018,0.694 122.891,0.678 122.763,0.664L122.763,12.126L110.828,12.126L110.828,0.191L117.069,0.191C114.94,0.069 112.797,0 110.637,0C108.477,0 106.334,0.069 104.205,0.191L110.446,0.191L110.446,12.126L98.51,12.126L98.51,0.664C98.383,0.678 98.255,0.693 98.128,0.708L98.128,12.126L86.248,12.126L86.248,2.703C86.121,2.731 85.993,2.757 85.866,2.786L85.866,12.126L73.932,12.126L73.932,6.243C73.805,6.288 73.678,6.332 73.55,6.378L73.55,12.126L61.67,12.126L61.67,11.408C61.543,11.471 61.415,11.534 61.288,11.598L61.288,12.127L60.227,12.127C59.984,12.251 59.746,12.382 59.504,12.509L61.288,12.509L61.288,24.391L49.352,24.391L49.352,18.52C49.225,18.604 49.097,18.686 48.97,18.771L48.97,24.391L41.348,24.391C41.19,24.518 41.032,24.644 40.874,24.773L48.97,24.773L48.97,36.709L37.088,36.709L37.088,27.997C36.961,28.11 36.833,28.222 36.706,28.335L36.706,36.709L28.332,36.709C28.218,36.835 28.106,36.963 27.994,37.091L36.706,37.091L36.706,48.973L24.772,48.973L24.772,40.875C24.644,41.032 24.518,41.191 24.39,41.349L24.39,48.973L18.768,48.973C18.683,49.099 18.601,49.228 18.517,49.355L24.392,49.355L24.392,61.289L12.51,61.289L12.51,59.505C12.384,59.747 12.253,59.986 12.128,60.228L12.128,61.289L11.6,61.289C11.537,61.416 11.473,61.543 11.41,61.671L12.128,61.671L12.128,73.553L6.38,73.553C6.335,73.68 6.29,73.808 6.245,73.935L12.129,73.935L12.129,85.871L2.788,85.871C2.759,85.998 2.733,86.126 2.705,86.253L12.129,86.253L12.129,98.13L0.71,98.13C0.696,98.257 0.68,98.384 0.666,98.512L12.129,98.512L12.129,110.447L0.192,110.447L0.192,104.206C0.07,106.335 0.001,108.478 0.001,110.638C0.001,112.798 0.07,114.941 0.192,117.07L0.192,110.829L12.128,110.829L12.128,122.764L0.666,122.764C0.68,122.891 0.695,123.019 0.71,123.146L12.129,123.146L12.129,135.028L2.705,135.028C2.733,135.155 2.759,135.283 2.788,135.41L12.129,135.41L12.129,147.346L6.245,147.346C6.29,147.473 6.334,147.6 6.38,147.728L12.129,147.728L12.129,159.61L11.411,159.61C11.474,159.737 11.537,159.864 11.601,159.992L12.13,159.992L12.13,161.053C12.254,161.296 12.385,161.535 12.512,161.776L12.512,159.992L24.394,159.992L24.394,171.926L18.52,171.926C18.604,172.053 18.686,172.181 18.771,172.308L24.393,172.308L24.393,179.932C24.52,180.09 24.646,180.248 24.775,180.406L24.775,172.308L36.71,172.308L36.71,184.19L27.998,184.19C28.111,184.317 28.223,184.445 28.336,184.572L36.71,184.572L36.71,192.944C36.836,193.058 36.964,193.17 37.092,193.283L37.092,184.571L48.974,184.571L48.974,196.508L40.878,196.508C41.036,196.636 41.194,196.762 41.352,196.89L48.974,196.89L48.974,202.51C49.1,202.595 49.229,202.677 49.356,202.761L49.356,196.89L61.29,196.89L61.29,208.772L59.506,208.772C59.748,208.898 59.987,209.029 60.229,209.154L61.29,209.154L61.29,209.683C61.417,209.746 61.544,209.81 61.672,209.873L61.672,209.155L73.552,209.155L73.552,214.903C73.679,214.948 73.806,214.993 73.934,215.037L73.934,209.154L85.869,209.154L85.869,218.494C85.996,218.523 86.124,218.549 86.251,218.577L86.251,209.154L98.131,209.154L98.131,220.572C98.258,220.586 98.385,220.602 98.513,220.616L98.513,209.154L110.449,209.154L110.449,221.089L104.208,221.089C106.337,221.211 108.48,221.28 110.64,221.28C112.8,221.28 114.943,221.211 117.072,221.089L110.831,221.089L110.831,209.154L122.766,209.154L122.766,220.616C122.893,220.602 123.02,220.587 123.148,220.572L123.148,209.154L135.031,209.154L135.031,218.576C135.158,218.548 135.286,218.522 135.413,218.493L135.413,209.154L147.346,209.154L147.346,215.037C147.473,214.992 147.6,214.948 147.728,214.903L147.728,209.155L159.611,209.155L159.611,209.872C159.738,209.809 159.865,209.746 159.993,209.682L159.993,209.155L161.051,209.155C161.293,209.031 161.533,208.9 161.774,208.773L159.993,208.773L159.993,196.891L171.928,196.891L171.928,202.761C172.055,202.677 172.183,202.595 172.31,202.51L172.31,196.891L179.929,196.891C180.087,196.764 180.245,196.638 180.403,196.509L172.309,196.509L172.309,184.573L184.191,184.573L184.191,193.284C184.318,193.171 184.446,193.059 184.573,192.946L184.573,184.574L192.945,184.574C193.059,184.448 193.171,184.32 193.283,184.192L184.572,184.192L184.572,172.31L196.507,172.31L196.507,180.406C196.635,180.248 196.761,180.09 196.889,179.932L196.889,172.31L202.509,172.31C202.594,172.184 202.676,172.055 202.76,171.928L196.889,171.928L196.889,159.994L208.769,159.994L208.769,161.778C208.895,161.536 209.026,161.297 209.151,161.055L209.151,159.994L209.679,159.994C209.742,159.867 209.806,159.74 209.869,159.612L209.151,159.612L209.151,147.73L214.9,147.73C214.945,147.603 214.99,147.475 215.035,147.348L209.151,147.348L209.151,135.412L218.492,135.412C218.521,135.285 218.547,135.157 218.575,135.03L209.151,135.03L209.151,123.148L220.57,123.148C220.584,123.021 220.6,122.894 220.614,122.766L209.151,122.766L209.151,110.831L221.087,110.831L221.087,117.072C221.209,114.943 221.278,112.8 221.278,110.64C221.278,108.48 221.206,106.334 221.084,104.205ZM208.766,110.447L196.886,110.447L196.886,98.512L208.766,98.512L208.766,110.447ZM171.925,85.867L159.99,85.867L159.99,73.931L171.925,73.931L171.925,85.867ZM172.307,73.931L184.189,73.931L184.189,85.867L172.307,85.867L172.307,73.931ZM110.829,98.13L110.829,86.249L122.764,86.249L122.764,98.13L110.829,98.13ZM122.764,98.512L122.764,110.447L110.829,110.447L110.829,98.512L122.764,98.512ZM110.448,98.13L98.511,98.13L98.511,86.249L110.447,86.249L110.447,98.13L110.448,98.13ZM110.448,98.512L110.448,110.447L98.511,110.447L98.511,98.512L110.448,98.512ZM98.13,110.447L86.25,110.447L86.25,98.512L98.13,98.512L98.13,110.447ZM98.13,110.828L98.13,122.763L86.25,122.763L86.25,110.828L98.13,110.828ZM98.511,110.828L110.447,110.828L110.447,122.763L98.511,122.763L98.511,110.828ZM110.448,123.144L110.448,135.026L98.511,135.026L98.511,123.144L110.448,123.144ZM110.829,123.144L122.764,123.144L122.764,135.026L110.829,135.026L110.829,123.144ZM110.829,122.763L110.829,110.828L122.764,110.828L122.764,122.763L110.829,122.763ZM123.146,110.828L135.029,110.828L135.029,122.763L123.146,122.763L123.146,110.828ZM123.146,110.447L123.146,98.512L135.029,98.512L135.029,110.447L123.146,110.447ZM135.41,98.512L147.343,98.512L147.343,110.447L135.41,110.447L135.41,98.512ZM135.41,98.13L135.41,86.249L147.343,86.249L147.343,98.13L135.41,98.13ZM135.029,98.13L123.146,98.13L123.146,86.249L135.029,86.249L135.029,98.13ZM123.146,85.867L123.146,73.931L135.029,73.931L135.029,85.867L123.146,85.867ZM122.764,85.867L110.829,85.867L110.829,73.931L122.764,73.931L122.764,85.867ZM110.829,73.549L110.829,61.667L122.764,61.667L122.764,73.549L110.829,73.549ZM110.448,73.549L98.511,73.549L98.511,61.667L110.447,61.667L110.447,73.549L110.448,73.549ZM110.448,73.931L110.448,85.867L98.511,85.867L98.511,73.931L110.448,73.931ZM98.13,85.867L86.25,85.867L86.25,73.931L98.13,73.931L98.13,85.867ZM98.13,86.249L98.13,98.13L86.25,98.13L86.25,86.249L98.13,86.249ZM85.868,98.13L73.933,98.13L73.933,86.249L85.868,86.249L85.868,98.13ZM85.868,98.512L85.868,110.447L73.933,110.447L73.933,98.512L85.868,98.512ZM73.551,110.447L61.671,110.447L61.671,98.512L73.551,98.512L73.551,110.447ZM73.551,110.828L73.551,122.763L61.671,122.763L61.671,110.828L73.551,110.828ZM73.933,110.828L85.868,110.828L85.868,122.763L73.933,122.763L73.933,110.828ZM85.868,123.144L85.868,135.026L73.933,135.026L73.933,123.144L85.868,123.144ZM86.249,123.144L98.129,123.144L98.129,135.026L86.249,135.026L86.249,123.144ZM98.13,135.408L98.13,147.344L86.25,147.344L86.25,135.408L98.13,135.408ZM98.511,135.408L110.447,135.408L110.447,147.344L98.511,147.344L98.511,135.408ZM110.448,147.726L110.448,159.608L98.511,159.608L98.511,147.726L110.448,147.726ZM110.829,147.726L122.764,147.726L122.764,159.608L110.829,159.608L110.829,147.726ZM110.829,147.344L110.829,135.408L122.764,135.408L122.764,147.344L110.829,147.344ZM123.146,135.408L135.029,135.408L135.029,147.344L123.146,147.344L123.146,135.408ZM123.146,135.026L123.146,123.144L135.029,123.144L135.029,135.026L123.146,135.026ZM135.41,123.144L147.343,123.144L147.343,135.026L135.41,135.026L135.41,123.144ZM135.41,122.763L135.41,110.828L147.343,110.828L147.343,122.763L135.41,122.763ZM147.725,110.828L159.608,110.828L159.608,122.763L147.725,122.763L147.725,110.828ZM147.725,110.447L147.725,98.512L159.608,98.512L159.608,110.447L147.725,110.447ZM147.725,98.13L147.725,86.249L159.608,86.249L159.608,98.13L147.725,98.13ZM147.725,85.867L147.725,73.931L159.608,73.931L159.608,85.867L147.725,85.867ZM147.344,85.867L135.41,85.867L135.41,73.931L147.343,73.931L147.343,85.867L147.344,85.867ZM135.41,73.549L135.41,61.667L147.343,61.667L147.343,73.549L135.41,73.549ZM135.029,73.549L123.146,73.549L123.146,61.667L135.029,61.667L135.029,73.549ZM123.146,61.286L123.146,49.352L135.029,49.352L135.029,61.285L123.146,61.285L123.146,61.286ZM122.764,61.286L110.829,61.286L110.829,49.352L122.764,49.352L122.764,61.286ZM110.448,61.286L98.511,61.286L98.511,49.352L110.447,49.352L110.447,61.286L110.448,61.286ZM98.13,61.286L86.25,61.286L86.25,49.352L98.13,49.352L98.13,61.286ZM98.13,61.667L98.13,73.549L86.25,73.549L86.25,61.667L98.13,61.667ZM85.868,73.549L73.933,73.549L73.933,61.667L85.868,61.667L85.868,73.549ZM85.868,73.931L85.868,85.867L73.933,85.867L73.933,73.931L85.868,73.931ZM73.551,85.867L61.671,85.867L61.671,73.931L73.551,73.931L73.551,85.867ZM73.551,86.249L73.551,98.13L61.671,98.13L61.671,86.249L73.551,86.249ZM61.29,98.13L49.354,98.13L49.354,86.249L61.29,86.249L61.29,98.13ZM61.29,98.512L61.29,110.447L49.354,110.447L49.354,98.512L61.29,98.512ZM61.29,110.828L61.29,122.763L49.354,122.763L49.354,110.828L61.29,110.828ZM61.29,123.144L61.29,135.026L49.354,135.026L49.354,123.144L61.29,123.144ZM61.672,123.144L73.552,123.144L73.552,135.026L61.672,135.026L61.672,123.144ZM73.551,135.408L73.551,147.344L61.671,147.344L61.671,135.408L73.551,135.408ZM73.933,135.408L85.868,135.408L85.868,147.344L73.933,147.344L73.933,135.408ZM85.868,147.726L85.868,159.608L73.933,159.608L73.933,147.726L85.868,147.726ZM86.249,147.726L98.129,147.726L98.129,159.608L86.249,159.608L86.249,147.726ZM98.13,159.989L98.13,171.923L86.25,171.923L86.25,159.989L98.13,159.989ZM98.511,159.989L110.447,159.989L110.447,171.923L98.511,171.923L98.511,159.989ZM110.829,159.989L122.764,159.989L122.764,171.923L110.829,171.923L110.829,159.989ZM123.146,159.989L135.029,159.989L135.029,171.923L123.146,171.923L123.146,159.989ZM123.146,159.607L123.146,147.725L135.029,147.725L135.029,159.607L123.146,159.607ZM135.41,147.726L147.343,147.726L147.343,159.608L135.41,159.608L135.41,147.726ZM135.41,147.344L135.41,135.408L147.343,135.408L147.343,147.344L135.41,147.344ZM147.725,135.408L159.608,135.408L159.608,147.344L147.725,147.344L147.725,135.408ZM147.725,135.026L147.725,123.144L159.608,123.144L159.608,135.026L147.725,135.026ZM159.99,123.144L171.925,123.144L171.925,135.026L159.99,135.026L159.99,123.144ZM159.99,122.763L159.99,110.828L171.925,110.828L171.925,122.763L159.99,122.763ZM159.99,110.447L159.99,98.512L171.925,98.512L171.925,110.447L159.99,110.447ZM159.99,98.13L159.99,86.249L171.925,86.249L171.925,98.13L159.99,98.13ZM159.99,73.549L159.99,61.667L171.925,61.667L171.925,73.549L159.99,73.549ZM159.608,73.549L147.725,73.549L147.725,61.667L159.608,61.667L159.608,73.549ZM147.725,61.286L147.725,49.352L159.608,49.352L159.608,61.285L147.725,61.285L147.725,61.286ZM147.344,61.286L135.41,61.286L135.41,49.352L147.343,49.352L147.343,61.286L147.344,61.286ZM135.41,48.971L135.41,37.089L147.343,37.089L147.343,48.971L135.41,48.971ZM135.029,48.971L123.146,48.971L123.146,37.089L135.029,37.089L135.029,48.971ZM122.764,48.971L110.829,48.971L110.829,37.089L122.764,37.089L122.764,48.971ZM110.448,48.971L98.511,48.971L98.511,37.089L110.447,37.089L110.447,48.971L110.448,48.971ZM98.13,48.971L86.25,48.971L86.25,37.089L98.13,37.089L98.13,48.971ZM85.868,48.971L73.933,48.971L73.933,37.089L85.868,37.089L85.868,48.971ZM85.868,49.352L85.868,61.285L73.933,61.285L73.933,49.352L85.868,49.352ZM73.551,61.286L61.671,61.286L61.671,49.352L73.551,49.352L73.551,61.286ZM73.551,61.667L73.551,73.549L61.671,73.549L61.671,61.667L73.551,61.667ZM61.29,73.549L49.354,73.549L49.354,61.667L61.29,61.667L61.29,73.549ZM61.29,73.931L61.29,85.867L49.354,85.867L49.354,73.931L61.29,73.931ZM48.972,85.867L37.09,85.867L37.09,73.931L48.972,73.931L48.972,85.867ZM48.972,86.249L48.972,98.13L37.09,98.13L37.09,86.249L48.972,86.249ZM48.972,98.512L48.972,110.447L37.09,110.447L37.09,98.512L48.972,98.512ZM48.972,110.828L48.972,122.763L37.09,122.763L37.09,110.828L48.972,110.828ZM48.972,123.144L48.972,135.026L37.09,135.026L37.09,123.144L48.972,123.144ZM48.972,135.408L48.972,147.344L37.09,147.344L37.09,135.408L48.972,135.408ZM49.353,135.408L61.29,135.408L61.29,147.344L49.354,147.344L49.353,135.408ZM61.29,147.726L61.29,159.608L49.354,159.608L49.354,147.726L61.29,147.726ZM61.672,147.726L73.552,147.726L73.552,159.608L61.672,159.608L61.672,147.726ZM73.551,159.989L73.551,171.923L61.671,171.923L61.671,159.989L73.551,159.989ZM73.933,159.989L85.868,159.989L85.868,171.923L73.933,171.923L73.933,159.989ZM85.868,172.304L85.868,184.186L73.933,184.186L73.933,172.304L85.868,172.304ZM86.249,172.304L98.129,172.304L98.129,184.186L86.249,184.186L86.249,172.304ZM98.511,172.304L110.447,172.304L110.447,184.186L98.511,184.186L98.511,172.304ZM110.829,172.304L122.764,172.304L122.764,184.186L110.829,184.186L110.829,172.304ZM123.146,172.304L135.029,172.304L135.029,184.186L123.146,184.186L123.146,172.304ZM135.41,172.304L147.343,172.304L147.343,184.186L135.41,184.186L135.41,172.304ZM135.41,171.923L135.41,159.989L147.343,159.989L147.343,171.923L135.41,171.923ZM147.725,159.989L159.608,159.989L159.608,171.923L147.725,171.923L147.725,159.989ZM147.725,159.607L147.725,147.725L159.608,147.725L159.608,159.607L147.725,159.607ZM159.99,147.726L171.925,147.726L171.925,159.608L159.99,159.608L159.99,147.726ZM159.99,147.344L159.99,135.408L171.925,135.408L171.925,147.344L159.99,147.344ZM172.307,135.408L184.189,135.408L184.189,147.344L172.307,147.344L172.307,135.408ZM172.307,135.026L172.307,123.144L184.189,123.144L184.189,135.026L172.307,135.026ZM172.307,122.763L172.307,110.828L184.189,110.828L184.189,122.763L172.307,122.763ZM172.307,110.447L172.307,98.512L184.189,98.512L184.189,110.447L172.307,110.447ZM172.307,98.13L172.307,86.249L184.189,86.249L184.189,98.13L172.307,98.13ZM184.57,86.249L196.505,86.249L196.505,98.13L184.57,98.13L184.57,86.249ZM184.57,85.867L184.57,73.931L196.505,73.931L196.505,85.867L184.57,85.867ZM184.57,73.549L184.57,61.667L196.505,61.667L196.505,73.549L184.57,73.549ZM184.188,73.549L172.306,73.549L172.306,61.667L184.188,61.667L184.188,73.549ZM172.307,61.286L172.307,49.352L184.189,49.352L184.189,61.285L172.307,61.285L172.307,61.286ZM171.925,61.286L159.99,61.286L159.99,49.352L171.925,49.352L171.925,61.286ZM159.99,48.971L159.99,37.089L171.925,37.089L171.925,48.971L159.99,48.971ZM159.608,48.971L147.725,48.971L147.725,37.089L159.608,37.089L159.608,48.971ZM147.725,36.708L147.725,24.771L159.608,24.771L159.608,36.707L147.725,36.707L147.725,36.708ZM147.344,36.708L135.41,36.708L135.41,24.771L147.343,24.771L147.343,36.708L147.344,36.708ZM135.029,36.708L123.146,36.708L123.146,24.771L135.029,24.771L135.029,36.708ZM122.764,36.708L110.829,36.708L110.829,24.771L122.764,24.771L122.764,36.708ZM110.448,36.708L98.511,36.708L98.511,24.771L110.447,24.771L110.447,36.708L110.448,36.708ZM98.13,36.708L86.25,36.708L86.25,24.771L98.13,24.771L98.13,36.708ZM85.868,36.708L73.933,36.708L73.933,24.771L85.868,24.771L85.868,36.708ZM73.551,36.708L61.671,36.708L61.671,24.771L73.551,24.771L73.551,36.708ZM73.551,37.089L73.551,48.971L61.671,48.971L61.671,37.089L73.551,37.089ZM61.29,48.971L49.354,48.971L49.354,37.089L61.29,37.089L61.29,48.971ZM61.29,49.352L61.29,61.285L49.354,61.285L49.354,49.352L61.29,49.352ZM48.972,61.286L37.09,61.286L37.09,49.352L48.972,49.352L48.972,61.286ZM48.972,61.667L48.972,73.549L37.09,73.549L37.09,61.667L48.972,61.667ZM36.709,73.549L24.774,73.549L24.774,61.667L36.709,61.667L36.709,73.549ZM36.709,73.931L36.709,85.867L24.774,85.867L24.774,73.931L36.709,73.931ZM36.709,86.249L36.709,98.13L24.774,98.13L24.774,86.249L36.709,86.249ZM36.709,98.512L36.709,110.447L24.774,110.447L24.774,98.512L36.709,98.512ZM36.709,110.828L36.709,122.763L24.774,122.763L24.774,110.828L36.709,110.828ZM36.709,123.144L36.709,135.026L24.774,135.026L24.774,123.144L36.709,123.144ZM36.709,135.408L36.709,147.344L24.774,147.344L24.774,135.408L36.709,135.408ZM36.709,147.726L36.709,159.608L24.774,159.608L24.774,147.726L36.709,147.726ZM37.09,147.726L48.972,147.726L48.972,159.608L37.09,159.608L37.09,147.726ZM48.972,159.989L48.972,171.923L37.09,171.923L37.09,159.989L48.972,159.989ZM49.353,159.989L61.29,159.989L61.29,171.923L49.354,171.923L49.353,159.989ZM61.29,172.304L61.29,184.186L49.354,184.186L49.354,172.304L61.29,172.304ZM61.672,172.304L73.552,172.304L73.552,184.186L61.672,184.186L61.672,172.304ZM73.551,184.567L73.551,196.504L61.671,196.504L61.671,184.568L73.551,184.567ZM73.933,184.567L85.868,184.567L85.868,196.504L73.933,196.504L73.933,184.567ZM86.249,184.567L98.129,184.567L98.129,196.504L86.249,196.504L86.249,184.567ZM98.511,184.567L110.447,184.567L110.447,196.504L98.511,196.504L98.511,184.567ZM110.829,184.567L122.764,184.567L122.764,196.504L110.829,196.504L110.829,184.567ZM123.146,184.567L135.029,184.567L135.029,196.504L123.146,196.504L123.146,184.567ZM135.41,184.567L147.343,184.567L147.343,196.504L135.41,196.504L135.41,184.567ZM147.725,184.567L159.608,184.567L159.608,196.504L147.725,196.504L147.725,184.567ZM147.725,184.186L147.725,172.304L159.608,172.304L159.608,184.186L147.725,184.186ZM159.99,172.304L171.925,172.304L171.925,184.186L159.99,184.186L159.99,172.304ZM159.99,171.923L159.99,159.989L171.925,159.989L171.925,171.923L159.99,171.923ZM172.307,159.989L184.189,159.989L184.189,171.923L172.307,171.923L172.307,159.989ZM172.307,159.607L172.307,147.725L184.189,147.725L184.189,159.607L172.307,159.607ZM184.57,147.726L196.505,147.726L196.505,159.608L184.57,159.608L184.57,147.726ZM184.57,147.344L184.57,135.408L196.505,135.408L196.505,147.344L184.57,147.344ZM184.57,135.026L184.57,123.144L196.505,123.144L196.505,135.026L184.57,135.026ZM184.57,122.763L184.57,110.828L196.505,110.828L196.505,122.763L184.57,122.763ZM184.57,110.447L184.57,98.512L196.505,98.512L196.505,110.447L184.57,110.447ZM208.766,98.13L196.886,98.13L196.886,86.249L208.766,86.249L208.766,98.13ZM208.766,85.867L196.886,85.867L196.886,73.931L208.766,73.931L208.766,85.867ZM208.766,61.667L208.766,73.549L196.886,73.549L196.886,61.667L208.766,61.667ZM196.505,49.352L196.505,61.285L184.57,61.285L184.57,49.352L196.505,49.352ZM184.188,37.089L184.188,48.971L172.306,48.971L172.306,37.089L184.188,37.089ZM171.925,24.771L171.925,36.707L159.99,36.707L159.99,24.771L171.925,24.771ZM159.608,12.508L159.608,24.39L147.725,24.39L147.725,12.508L159.608,12.508ZM147.344,12.508L147.344,24.39L135.41,24.39L135.41,12.508L147.344,12.508ZM135.029,12.508L135.029,24.39L123.146,24.39L123.146,12.508L135.029,12.508ZM122.764,12.508L122.764,24.39L110.829,24.39L110.829,12.508L122.764,12.508ZM110.448,12.508L110.448,24.39L98.511,24.39L98.511,12.508L110.448,12.508ZM98.13,12.508L98.13,24.39L86.25,24.39L86.25,12.508L98.13,12.508ZM85.868,12.508L85.868,24.39L73.933,24.39L73.933,12.508L85.868,12.508ZM61.672,12.508L73.552,12.508L73.552,24.39L61.672,24.39L61.672,12.508ZM49.353,24.771L61.29,24.771L61.29,36.707L49.354,36.707L49.353,24.771ZM37.09,37.089L48.972,37.089L48.972,48.971L37.09,48.971L37.09,37.089ZM24.774,49.352L36.709,49.352L36.709,61.285L24.774,61.285L24.774,49.352ZM12.51,61.667L24.392,61.667L24.392,73.549L12.51,73.549L12.51,61.667ZM12.51,73.931L24.392,73.931L24.392,85.867L12.51,85.867L12.51,73.931ZM12.51,86.249L24.392,86.249L24.392,98.13L12.51,98.13L12.51,86.249ZM12.51,98.512L24.392,98.512L24.392,110.447L12.51,110.447L12.51,98.512ZM12.51,110.828L24.392,110.828L24.392,122.763L12.51,122.763L12.51,110.828ZM12.51,123.144L24.392,123.144L24.392,135.026L12.51,135.026L12.51,123.144ZM12.51,135.408L24.392,135.408L24.392,147.344L12.51,147.344L12.51,135.408ZM12.51,159.607L12.51,147.725L24.392,147.725L24.392,159.607L12.51,159.607ZM24.774,171.923L24.774,159.989L36.709,159.989L36.709,171.923L24.774,171.923ZM37.09,184.186L37.09,172.304L48.972,172.304L48.972,184.186L37.09,184.186ZM49.353,196.504L49.353,184.568L61.29,184.568L61.29,196.504L49.353,196.504ZM61.672,208.766L61.672,196.884L73.552,196.884L73.552,208.766L61.672,208.766ZM73.933,208.766L73.933,196.884L85.868,196.884L85.868,208.766L73.933,208.766ZM86.249,208.766L86.249,196.884L98.129,196.884L98.129,208.766L86.249,208.766ZM98.511,208.766L98.511,196.884L110.447,196.884L110.447,208.766L98.511,208.766ZM110.829,208.766L110.829,196.884L122.764,196.884L122.764,208.766L110.829,208.766ZM123.146,208.766L123.146,196.884L135.029,196.884L135.029,208.766L123.146,208.766ZM135.41,208.766L135.41,196.884L147.343,196.884L147.343,208.766L135.41,208.766ZM159.608,208.766L147.725,208.766L147.725,196.884L159.608,196.884L159.608,208.766ZM171.925,196.504L159.99,196.504L159.99,184.568L171.925,184.568L171.925,196.504ZM184.188,184.186L172.306,184.186L172.306,172.304L184.188,172.304L184.188,184.186ZM196.505,171.923L184.57,171.923L184.57,159.989L196.505,159.989L196.505,171.923ZM208.766,159.607L196.886,159.607L196.886,147.725L208.766,147.725L208.766,159.607ZM208.766,147.344L196.886,147.344L196.886,135.408L208.766,135.408L208.766,147.344ZM208.766,135.026L196.886,135.026L196.886,123.144L208.766,123.144L208.766,135.026ZM208.766,122.763L196.886,122.763L196.886,110.828L208.766,110.828L208.766,122.763Z" style="fill-opacity:0.05;fill-rule:nonzero;"/>
        <path d="M4.371,141.404C4.948,143.403 5.574,145.378 6.259,147.328L25.495,113.656L50.034,125.953L86.514,65.171L110.189,88.841L134.769,76.58L172.121,113.874L196.72,89.272L221.215,113.084C221.233,112.267 221.277,111.457 221.277,110.636C221.277,109.302 221.224,107.982 221.176,106.661L196.672,82.843L172.115,107.401L135.67,71.012L111.092,83.274L85.605,57.787L48.292,119.957L23.67,107.62L4.371,141.404Z" style="fill:white;fill-rule:nonzero;"/>
        <path d="M162.271,125.513L129.2,125.513L129.2,118.221C129.22,118.221 129.24,118.225 129.259,118.225C131.032,118.225 132.671,117.073 133.208,115.288C133.864,113.105 132.629,110.804 130.446,110.146C123.486,108.051 115.224,106.942 106.56,106.942C97.894,106.942 89.634,108.05 82.673,110.146C80.492,110.802 79.255,113.104 79.913,115.287C80.445,117.053 82.056,118.203 83.808,118.225L83.808,125.513L50.852,125.513C45.163,125.513 40.536,130.141 40.536,135.83L40.536,171.732C40.536,175.015 42.1,178.039 44.663,179.974L44.663,214.234C44.663,219.922 49.291,224.551 54.98,224.551L158.145,224.551C163.833,224.551 168.462,219.923 168.462,214.234L168.462,179.974C171.024,178.038 172.589,175.015 172.589,171.732L172.589,135.83C172.588,130.141 167.958,125.513 162.271,125.513ZM89.923,116.815C94.999,115.75 100.658,115.196 106.562,115.196C112.425,115.196 118.046,115.745 123.096,116.796C123.045,116.945 123.011,117.099 123.011,117.259L123.011,125.513L89.999,125.513L89.999,117.259C89.999,117.106 89.97,116.959 89.923,116.815Z" style="fill-opacity:0.14;fill-rule:nonzero;"/>
        <g>
            <path d="M129.834,129.416C128.136,129.416 126.762,128.499 126.762,127.369L126.762,119.179C126.762,118.048 128.135,117.132 129.834,117.132C131.531,117.132 132.904,118.048 132.904,119.179L132.904,127.369C132.904,128.499 131.531,129.416 129.834,129.416Z" style="fill:rgb(212,212,212);fill-rule:nonzero;"/>
            <path d="M90.933,129.416C89.236,129.416 87.863,128.499 87.863,127.369L87.863,119.179C87.863,118.048 89.236,117.132 90.933,117.132C92.631,117.132 94.005,118.048 94.005,119.179L94.005,127.369C94.005,128.499 92.631,129.416 90.933,129.416Z" style="fill:rgb(212,212,212);fill-rule:nonzero;"/>
            <path d="M169.814,178.555L51.065,178.555C49.934,178.555 49.018,179.471 49.018,180.602L49.018,215.408C49.018,221.053 53.61,225.645 59.255,225.645L161.625,225.645C167.269,225.645 171.862,221.053 171.862,215.408L171.862,180.602C171.862,179.47 170.946,178.555 169.814,178.555Z" style="fill:rgb(212,212,212);fill-rule:nonzero;"/>
            <path d="M165.72,127.37L55.16,127.37C49.515,127.37 44.923,131.962 44.923,137.607L44.923,173.233C44.923,177.35 47.396,181.064 51.225,182.695C68.079,189.875 85.907,193.898 104.298,194.655L116.582,194.655C116.609,194.655 116.638,194.654 116.666,194.652C134.973,193.897 152.802,189.875 169.657,182.694C173.483,181.063 175.958,177.349 175.958,173.232L175.958,137.606C175.957,131.962 171.363,127.37 165.72,127.37Z" style="fill:rgb(240,241,241);fill-rule:nonzero;"/>
            <path d="M135.009,172.411C135.009,167.896 131.335,164.222 126.819,164.222L94.061,164.222C89.543,164.222 85.871,167.896 85.871,172.411L85.871,192.741C91.941,193.738 98.084,194.398 104.298,194.654L116.582,194.654C116.609,194.654 116.638,194.653 116.666,194.651C122.843,194.396 128.96,193.737 135.009,192.743L135.009,172.411Z" style="fill:rgb(181,181,181);fill-rule:nonzero;"/>
            <path d="M112.487,201.075L108.392,201.075C106.132,201.075 104.298,199.242 104.298,196.98L104.298,188.791C104.298,186.529 106.131,184.696 108.392,184.696L112.487,184.696C114.749,184.696 116.582,186.529 116.582,188.791L116.582,196.98C116.582,199.242 114.749,201.075 112.487,201.075Z" style="fill:rgb(241,203,48);fill-rule:nonzero;"/>
            <path d="M132.963,120.138C132.57,120.138 132.175,120.082 131.78,119.963C125.629,118.111 118.249,117.133 110.44,117.133C102.63,117.133 95.25,118.111 89.099,119.963C86.933,120.619 84.65,119.387 83.998,117.223C83.345,115.057 84.573,112.773 86.737,112.122C93.645,110.043 101.841,108.943 110.44,108.943C119.037,108.943 127.235,110.043 134.142,112.122C136.307,112.774 137.533,115.058 136.882,117.224C136.348,118.994 134.723,120.138 132.963,120.138Z" style="fill:rgb(240,241,241);fill-rule:nonzero;"/>
            <path d="M114.479,184.697L106.289,184.697C105.158,184.697 104.242,185.613 104.242,186.744L104.242,190.839C104.242,193.101 106.075,194.934 108.337,194.934L112.431,194.934C114.693,194.934 116.526,193.101 116.526,190.839L116.526,186.744C116.525,185.612 115.61,184.697 114.479,184.697Z" style="fill:rgb(247,228,113);fill-rule:nonzero;"/>
        </g>
        <path d="M221.033,110.236C221.03,109.297 221.015,108.361 220.989,107.428C220.988,107.399 220.987,107.369 220.986,107.34C220.774,100.114 219.869,93.063 218.336,86.248C218.308,86.121 218.282,85.993 218.253,85.866C217.322,81.796 216.162,77.815 214.795,73.93C214.75,73.803 214.706,73.676 214.66,73.548C213.21,69.472 211.528,65.506 209.629,61.666L209.63,61.666C209.567,61.539 209.504,61.412 209.44,61.284L209.439,61.284C209.263,60.931 209.091,60.575 208.911,60.224L208.911,60.223C208.787,59.98 208.656,59.742 208.529,59.5L208.529,59.501C206.703,56.004 204.696,52.616 202.519,49.351L202.52,49.351C202.436,49.224 202.354,49.096 202.269,48.969L202.268,48.969C200.504,46.346 198.626,43.806 196.649,41.349L196.649,41.347C196.522,41.189 196.396,41.031 196.267,40.873L196.267,40.875C195.22,39.588 194.144,38.326 193.041,37.088L193.042,37.088C192.929,36.961 192.817,36.833 192.704,36.706L192.703,36.706C190.063,33.769 187.269,30.975 184.332,28.335L184.332,28.334C184.206,28.22 184.077,28.108 183.95,27.996L183.95,27.997C182.712,26.894 181.449,25.818 180.162,24.77L180.163,24.77C180.005,24.642 179.847,24.516 179.689,24.388L179.688,24.388C177.231,22.412 174.692,20.534 172.069,18.77C171.943,18.685 171.814,18.603 171.687,18.519L171.687,18.52C168.42,16.342 165.031,14.334 161.531,12.508L161.533,12.508C161.292,12.382 161.052,12.251 160.81,12.126L160.808,12.126C160.458,11.947 160.104,11.776 159.752,11.6L159.752,11.599C159.625,11.536 159.498,11.472 159.37,11.409L159.37,11.41C155.529,9.511 151.564,7.829 147.487,6.378L147.487,6.377C147.36,6.332 147.233,6.287 147.105,6.243L147.105,6.244C143.221,4.878 139.24,3.718 135.172,2.787L135.172,2.786C135.045,2.757 134.917,2.731 134.79,2.703L134.79,2.704C130.903,1.829 126.937,1.162 122.907,0.708C122.78,0.694 122.653,0.678 122.525,0.664L122.525,0.665C120.637,0.459 118.735,0.301 116.82,0.191L116.831,0.191C116.82,0.19 116.808,0.19 116.797,0.19C115.808,0.134 114.816,0.089 113.821,0.059C113.739,0.056 113.658,0.052 113.576,0.05C112.579,0.022 111.579,0.005 110.576,0.004C110.517,0.004 110.459,0.001 110.401,0.001L110.401,228.513C163.196,228.504 205.868,227.587 205.868,226.456C205.868,225.765 189.932,225.154 165.489,224.781C169.096,223.196 171.624,219.594 171.624,215.408L171.624,202.793C171.645,202.779 171.667,202.765 171.688,202.751L171.688,202.755C171.815,202.67 171.943,202.589 172.07,202.504L172.07,202.499C174.691,200.736 177.229,198.86 179.684,196.884L179.689,196.884C179.847,196.757 180.005,196.631 180.163,196.502L180.158,196.502C181.447,195.454 182.71,194.376 183.95,193.272L183.95,193.276C184.077,193.163 184.205,193.051 184.332,192.938L184.332,192.934C187.268,190.295 190.061,187.502 192.7,184.566L192.705,184.566C192.819,184.44 192.931,184.312 193.044,184.184L193.039,184.184C194.143,182.945 195.22,181.681 196.268,180.393L196.268,180.398C196.396,180.24 196.522,180.082 196.65,179.924L196.65,179.919C198.626,177.463 200.502,174.924 202.266,172.302L202.27,172.302C202.355,172.176 202.437,172.047 202.521,171.92L202.517,171.92C204.695,168.653 206.703,165.263 208.53,161.764L208.53,161.771C208.656,161.529 208.787,161.29 208.912,161.048L208.912,161.041C209.091,160.692 209.262,160.338 209.437,159.987L209.441,159.987C209.504,159.86 209.568,159.733 209.631,159.605L209.627,159.605C211.526,155.765 213.208,151.8 214.658,147.723L214.661,147.723C214.706,147.596 214.751,147.468 214.796,147.341L214.792,147.341C216.158,143.456 217.319,139.474 218.25,135.405L218.253,135.405C218.282,135.278 218.308,135.15 218.336,135.023L218.333,135.023C219.208,131.136 219.875,127.171 220.328,123.141L220.331,123.141C220.345,123.014 220.361,122.887 220.375,122.759L220.372,122.759C220.579,120.858 220.739,118.944 220.849,117.016L220.849,117.065C220.852,117.012 220.853,116.958 220.856,116.905C220.902,116.091 220.936,115.275 220.964,114.457C220.973,114.205 220.985,113.955 220.993,113.703C221.011,113.035 221.018,112.365 221.024,111.694C221.026,111.484 221.033,111.274 221.034,111.063C221.036,110.919 221.043,110.776 221.043,110.632C221.039,110.502 221.034,110.369 221.033,110.236Z" style="fill-opacity:0.05;fill-rule:nonzero;"/>
        <circle cx="85.604" cy="57.787" r="2.552" style="fill:white;stroke:rgb(28,49,94);stroke-width:2px;"/>
        <circle cx="172.604" cy="111.787" r="2.552" style="fill:white;stroke:rgb(28,49,94);stroke-width:2px;"/>
    </g>
</svg>
