<?xml version="1.0" encoding="UTF-8" standalone="no"?>
<!DOCTYPE svg PUBLIC "-//W3C//DTD SVG 1.1//EN" "http://www.w3.org/Graphics/SVG/1.1/DTD/svg11.dtd">
<svg width="100%" height="100%" viewBox="0 0 300 300" version="1.1" xmlns="http://www.w3.org/2000/svg" xmlns:xlink="http://www.w3.org/1999/xlink" xml:space="preserve" xmlns:serif="http://www.serif.com/" style="fill-rule:evenodd;clip-rule:evenodd;stroke-miterlimit:10;">
    <g transform="matrix(1,0,0,1,34.1448,35.266)">
        <g>
            <g>
                <rect x="0" y="29.191" width="148.033" height="192.276" style="fill:rgb(240,241,241);"/>
                <g>
                    <rect x="18.303" y="53.112" width="11.812" height="2.921" style="fill:rgb(227,227,227);"/>
                    <path d="M41.927,56.033L128.82,56.033" style="fill:none;stroke:rgb(227,227,227);stroke-width:0.75px;stroke-dasharray:2,2;"/>
                    <rect x="18.303" y="67.605" width="11.812" height="2.921" style="fill:rgb(227,227,227);"/>
                    <path d="M41.927,70.527L128.82,70.527" style="fill:none;stroke:rgb(227,227,227);stroke-width:0.75px;stroke-dasharray:2,2;"/>
                    <rect x="18.303" y="82.099" width="11.812" height="2.921" style="fill:rgb(227,227,227);"/>
                    <path d="M41.927,85.021L128.82,85.021" style="fill:none;stroke:rgb(227,227,227);stroke-width:0.75px;stroke-dasharray:2,2;"/>
                    <rect x="18.303" y="96.593" width="11.812" height="2.921" style="fill:rgb(227,227,227);"/>
                    <path d="M41.927,99.514L128.82,99.514" style="fill:none;stroke:rgb(227,227,227);stroke-width:0.75px;stroke-dasharray:2,2;"/>
                    <rect x="18.303" y="111.087" width="11.812" height="2.921" style="fill:rgb(227,227,227);"/>
                    <path d="M41.927,114.008L128.82,114.008" style="fill:none;stroke:rgb(227,227,227);stroke-width:0.75px;stroke-dasharray:2,2;"/>
                    <rect x="18.303" y="125.58" width="11.812" height="2.921" style="fill:rgb(227,227,227);"/>
                    <path d="M41.927,128.502L128.82,128.502" style="fill:none;stroke:rgb(227,227,227);stroke-width:0.75px;stroke-dasharray:2,2;"/>
                    <rect x="18.303" y="140.074" width="11.812" height="2.921" style="fill:rgb(227,227,227);"/>
                    <path d="M41.927,142.995L128.82,142.995" style="fill:none;stroke:rgb(227,227,227);stroke-width:0.75px;stroke-dasharray:2,2;"/>
                </g>
                <g>
                    <rect x="18.303" y="166.73" width="63.7" height="2.085" style="fill:rgb(227,227,227);"/>
                    <rect x="18.303" y="174.797" width="63.7" height="2.085" style="fill:rgb(227,227,227);"/>
                    <rect x="18.303" y="182.866" width="25.808" height="2.085" style="fill:rgb(227,227,227);"/>
                </g>
                <rect x="49.789" y="63.746" width="13.626" height="79.249" style="fill:rgb(205,218,227);"/>
            </g>
            <rect x="67.919" y="93.065" width="13.626" height="50.297" style="fill:white;"/>
            <rect x="86.524" y="114.008" width="13.626" height="29.354" style="fill:rgb(28,49,94);"/>
        </g>
        <rect x="72.676" y="28.829" width="75.357" height="192.76" style="fill-opacity:0.05;"/>
        <rect x="79.311" y="28.951" width="68.722" height="167.722" style="fill-opacity:0.09;"/>
        <g>
            <rect x="83.941" y="0.485" width="148.033" height="192.276" style="fill:rgb(240,241,241);"/>
            <path d="M120.331,144.553L120.331,125.767C109.962,125.767 101.558,134.171 101.558,144.54C101.558,154.909 109.962,163.313 120.331,163.313" style="fill:rgb(128,227,173);fill-rule:nonzero;"/>
            <g>
                <path d="M133.612,131.272L120.331,144.553L139.104,144.553C139.104,144.549 139.104,144.545 139.104,144.538C139.104,139.359 137.007,134.67 133.612,131.272Z" style="fill:rgb(233,237,239);fill-rule:nonzero;"/>
                <path d="M120.331,125.767L120.331,144.555L133.612,131.274C130.214,127.871 125.518,125.767 120.331,125.767Z" style="fill:white;fill-rule:nonzero;"/>
            </g>
            <path d="M133.612,157.795L120.331,144.514L139.104,144.514C139.104,144.518 139.104,144.522 139.104,144.529C139.104,149.707 137.007,154.398 133.612,157.795Z" style="fill:rgb(205,218,227);fill-rule:nonzero;"/>
            <g>
                <path d="M120.331,163.299L120.331,144.511L133.612,157.792C130.214,161.195 125.518,163.299 120.331,163.299Z" style="fill:rgb(168,191,204);fill-rule:nonzero;"/>
                <rect x="149.781" y="135.439" width="63.7" height="2.085" style="fill:rgb(227,227,227);"/>
                <rect x="149.781" y="143.506" width="63.7" height="2.085" style="fill:rgb(227,227,227);"/>
                <rect x="149.781" y="151.575" width="25.808" height="2.085" style="fill:rgb(227,227,227);"/>
            </g>
            <path d="M120.331,96.607L120.331,77.821C109.962,77.821 101.558,86.226 101.558,96.594C101.558,106.962 109.962,115.367 120.331,115.367" style="fill:rgb(28,49,94);fill-rule:nonzero;"/>
            <g>
                <path d="M133.612,83.325L120.331,96.606L139.104,96.606C139.104,96.602 139.104,96.598 139.104,96.591C139.104,91.413 137.007,86.724 133.612,83.325Z" style="fill:rgb(233,237,239);fill-rule:nonzero;"/>
                <path d="M120.331,77.821L120.331,96.609L133.612,83.328C130.214,79.925 125.518,77.821 120.331,77.821Z" style="fill:white;fill-rule:nonzero;"/>
            </g>
            <path d="M133.612,109.848L120.331,96.567L139.104,96.567C139.104,96.571 139.104,96.575 139.104,96.582C139.104,101.761 137.007,106.452 133.612,109.848Z" style="fill:rgb(205,218,227);fill-rule:nonzero;"/>
            <g>
                <path d="M120.331,115.353L120.331,96.565L133.612,109.846C130.214,113.249 125.518,115.353 120.331,115.353Z" style="fill:rgb(168,191,204);fill-rule:nonzero;"/>
                <rect x="149.781" y="87.454" width="63.7" height="2.085" style="fill:rgb(227,227,227);"/>
                <rect x="149.781" y="95.525" width="63.7" height="2.085" style="fill:rgb(227,227,227);"/>
                <rect x="149.781" y="103.6" width="25.808" height="2.085" style="fill:rgb(227,227,227);"/>
            </g>
            <rect x="141.212" y="39.108" width="11.228" height="17.576" style="fill:rgb(205,218,227);"/>
            <rect x="162.083" y="29.065" width="11.228" height="27.618" style="fill:rgb(28,49,94);"/>
            <g>
                <rect x="182.953" y="17.766" width="11.228" height="38.916" style="fill:rgb(128,227,173);"/>
                <rect x="120.331" y="17.766" width="11.228" height="38.916" style="fill:rgb(128,227,173);"/>
            </g>
        </g>
        <ellipse cx="166.546" cy="228.097" rx="46.578" ry="1.371" style="fill-opacity:0.03;"/>
        <rect x="162.083" y="0" width="69.892" height="192.76" style="fill-opacity:0.05;"/>
        <g>
            <circle cx="120.314" cy="143.833" r="36.388" style="fill:rgb(91,160,217);fill-opacity:0.25;"/>
            <path d="M149.257,181.614L156.847,189.204L165.686,180.365L158.096,172.775C172.437,154.096 171.101,127.248 153.999,110.147C135.395,91.543 105.232,91.543 86.628,110.147C68.025,128.751 68.025,158.913 86.628,177.517C103.731,194.619 130.578,195.955 149.257,181.614ZM94.584,169.563C80.373,155.352 80.373,132.313 94.584,118.102C108.795,103.891 131.834,103.891 146.045,118.102C160.255,132.313 160.255,155.352 146.045,169.563C131.834,183.773 108.794,183.773 94.584,169.563Z" style="fill:rgb(90,95,95);fill-rule:nonzero;"/>
            <path d="M154.514,189.986L166.468,178.032C167.063,177.437 168.028,177.437 168.623,178.032L173.155,182.564L159.046,196.674L154.514,192.142C153.919,191.546 153.919,190.581 154.514,189.986Z" style="fill:rgb(74,77,77);fill-rule:nonzero;"/>
            <path d="M157.456,199.73C157.051,199.325 157.051,198.669 157.456,198.264L174.746,180.974C175.15,180.569 175.807,180.569 176.212,180.974L199.855,204.617L181.099,223.373L157.456,199.73Z" style="fill:rgb(122,215,197);fill-rule:nonzero;"/>
            <path d="M199.854,204.617L203.72,208.482C204.125,208.887 204.125,209.543 203.72,209.948L186.43,227.238C186.025,227.643 185.369,227.643 184.964,227.238L181.099,223.372L199.854,204.617Z" style="fill:rgb(105,186,164);fill-rule:nonzero;"/>
        </g>
        <g>
            <g opacity="0.05">
                <path d="M94.48,118.503L145.94,169.963C160.15,155.753 160.15,132.713 145.94,118.503C131.729,104.293 108.69,104.293 94.48,118.503Z" style="fill-rule:nonzero;"/>
                <path d="M153.895,110.548C135.291,91.944 105.128,91.944 86.524,110.548L94.479,118.503C108.69,104.292 131.729,104.292 145.94,118.503C160.15,132.713 160.151,155.753 145.94,169.964L194.971,218.995L203.616,210.35C204.021,209.945 204.021,209.289 203.616,208.884L199.75,205.019L176.107,181.376C175.702,180.971 175.046,180.971 174.641,181.376L165.996,190.021L173.051,182.966L168.519,178.434C167.924,177.839 166.959,177.839 166.364,178.434L164.806,179.992L157.992,173.178C172.332,154.497 170.997,127.65 153.895,110.548Z" style="fill-rule:nonzero;"/>
            </g>
        </g>
    </g>
</svg>
