<?xml version="1.0" encoding="UTF-8" standalone="no"?>
<!DOCTYPE svg PUBLIC "-//W3C//DTD SVG 1.1//EN" "http://www.w3.org/Graphics/SVG/1.1/DTD/svg11.dtd">
<svg width="100%" height="100%" viewBox="0 0 300 300" version="1.1" xmlns="http://www.w3.org/2000/svg" xmlns:xlink="http://www.w3.org/1999/xlink" xml:space="preserve" xmlns:serif="http://www.serif.com/" style="fill-rule:evenodd;clip-rule:evenodd;stroke-linecap:round;stroke-miterlimit:10;">
    <g transform="matrix(1,0,0,1,0.749808,46.619)">
        <path d="M131.956,179.643L163.35,179.643" style="fill:none;stroke:rgb(156,156,156);stroke-opacity:0.23;stroke-width:4px;"/>
        <path d="M131.956,171.891L163.35,171.891" style="fill:none;stroke:rgb(156,156,156);stroke-opacity:0.23;stroke-width:4px;"/>
        <path d="M131.956,164.139L163.35,164.139" style="fill:none;stroke:rgb(156,156,156);stroke-opacity:0.23;stroke-width:4px;"/>
        <path d="M62.461,182.695C62.461,181.009 63.828,179.643 65.513,179.643C67.199,179.643 68.565,181.01 68.565,182.695C68.565,184.381 67.198,185.747 65.513,185.747C63.828,185.747 62.461,184.38 62.461,182.695Z" style="fill:rgb(28,49,94);fill-rule:nonzero;"/>
        <path d="M70.213,182.695C70.213,181.009 71.58,179.643 73.265,179.643C74.951,179.643 76.317,181.01 76.317,182.695C76.317,184.381 74.95,185.747 73.265,185.747C71.58,185.747 70.213,184.38 70.213,182.695Z" style="fill:rgb(128,227,173);fill-rule:nonzero;"/>
        <path d="M77.965,182.695C77.965,181.009 79.332,179.643 81.017,179.643C82.703,179.643 84.069,181.01 84.069,182.695C84.069,184.381 82.702,185.747 81.017,185.747C79.332,185.747 77.965,184.38 77.965,182.695Z" style="fill:rgb(219,38,99);fill-rule:nonzero;"/>
        <path d="M207.023,179.845L238.416,179.845" style="fill:none;stroke:rgb(156,156,156);stroke-opacity:0.23;stroke-width:4px;"/>
        <path d="M207.023,172.093L238.416,172.093" style="fill:none;stroke:rgb(156,156,156);stroke-opacity:0.23;stroke-width:4px;"/>
        <path d="M207.023,164.341L238.416,164.341" style="fill:none;stroke:rgb(156,156,156);stroke-opacity:0.23;stroke-width:4px;"/>
        <path d="M298.765,203.569C298.765,205.332 231.884,206.762 149.382,206.762C66.88,206.762 0,205.333 0,203.569C0,201.806 66.881,200.376 149.383,200.376C231.885,200.376 298.765,201.806 298.765,203.569Z" style="fill-opacity:0.03;fill-rule:nonzero;"/>
        <path d="M107.374,12.101L107.374,189.833C107.374,196.433 101.974,201.833 95.374,201.833L49.799,201.833C43.199,201.833 37.799,196.433 37.799,189.833L37.799,12.101C37.799,5.501 43.199,0.101 49.799,0.101L95.374,0.101C101.974,0.101 107.374,5.501 107.374,12.101Z" style="fill:rgb(238,239,239);fill-rule:nonzero;"/>
        <path d="M182.441,12L182.441,189.732C182.441,196.332 177.041,201.732 170.441,201.732L124.866,201.732C118.266,201.732 112.866,196.332 112.866,189.732L112.866,12C112.866,5.4 118.266,0 124.866,0L170.441,0C177.041,0 182.441,5.4 182.441,12Z" style="fill:rgb(238,239,239);fill-rule:nonzero;"/>
        <path d="M170.441,201.732C177.041,201.732 182.441,196.332 182.441,189.732L182.441,12C182.441,5.4 177.041,0 170.441,0L147.653,0L147.653,201.732L170.441,201.732Z" style="fill-opacity:0.05;fill-rule:nonzero;"/>
        <path d="M107.374,189.732L107.374,12C107.374,5.4 101.974,0 95.374,0L72.586,0L72.586,201.732L95.374,201.732C101.974,201.732 107.374,196.332 107.374,189.732Z" style="fill-opacity:0.05;fill-rule:nonzero;"/>
        <path d="M131.956,156.387L163.35,156.387" style="fill:none;stroke:rgb(156,156,156);stroke-opacity:0.23;stroke-width:4px;"/>
        <path d="M131.956,148.635L163.35,148.635" style="fill:none;stroke:rgb(156,156,156);stroke-opacity:0.23;stroke-width:4px;"/>
        <path d="M158.97,21.441C161.389,21.441 163.35,23.402 163.35,25.821C163.35,28.24 161.389,30.201 158.97,30.201C156.551,30.201 154.59,28.24 154.59,25.821C154.59,23.401 156.551,21.441 158.97,21.441Z" style="fill:rgb(28,49,94);fill-rule:nonzero;"/>
        <path d="M158.97,32.564C161.389,32.564 163.35,34.525 163.35,36.944C163.35,39.363 161.389,41.324 158.97,41.324C156.551,41.324 154.59,39.363 154.59,36.944C154.59,34.525 156.551,32.564 158.97,32.564Z" style="fill:rgb(128,227,173);fill-rule:nonzero;"/>
        <circle cx="158.97" cy="48.068" r="4.38" style="fill:rgb(219,38,99);"/>
        <path d="M141.653,24.184L141.653,111.72" style="fill:none;stroke:rgb(156,156,156);stroke-opacity:0.23;stroke-width:6px;"/>
        <g transform="matrix(6.12323e-17,-1,1,6.12323e-17,0.669,144.504)">
            <rect x="68.412" y="55.213" width="8.348" height="33.409" style="fill:rgb(128,227,173);"/>
        </g>
        <g transform="matrix(6.12323e-17,-1,1,6.12323e-17,-5.5294,138.305)">
            <rect x="62.214" y="61.411" width="8.348" height="21.012" style="fill:rgb(28,49,94);"/>
        </g>
        <g transform="matrix(6.12323e-17,-1,1,6.12323e-17,16.1727,129)">
            <rect x="68.412" y="39.709" width="8.348" height="33.409" style="fill:rgb(128,227,173);"/>
        </g>
        <g transform="matrix(6.12323e-17,-1,1,6.12323e-17,4.7213,117.549)">
            <rect x="56.961" y="51.161" width="8.348" height="10.506" style="fill:rgb(28,49,94);"/>
        </g>
        <g transform="matrix(6.12323e-17,-1,1,6.12323e-17,31.6765,113.496)">
            <rect x="68.412" y="24.205" width="8.348" height="33.409" style="fill:rgb(128,227,173);"/>
        </g>
        <g transform="matrix(6.12323e-17,-1,1,6.12323e-17,27.9001,109.72)">
            <rect x="64.636" y="27.982" width="8.348" height="25.856" style="fill:rgb(28,49,94);"/>
        </g>
        <g transform="matrix(6.12323e-17,-1,1,6.12323e-17,47.1802,97.9926)">
            <rect x="68.412" y="8.702" width="8.348" height="33.409" style="fill:rgb(128,227,173);"/>
        </g>
        <g transform="matrix(6.12323e-17,-1,1,6.12323e-17,40.9818,91.7942)">
            <rect x="62.214" y="14.9" width="8.348" height="21.012" style="fill:rgb(28,49,94);"/>
        </g>
        <path d="M257.507,12.202L257.507,189.934C257.507,196.534 252.107,201.934 245.507,201.934L199.932,201.934C193.332,201.934 187.932,196.534 187.932,189.934L187.932,12.202C187.932,5.602 193.332,0.202 199.932,0.202L245.507,0.202C252.107,0.203 257.507,5.602 257.507,12.202Z" style="fill:rgb(238,239,239);fill-rule:nonzero;"/>
        <path d="M245.507,201.935C252.107,201.935 257.507,196.535 257.507,189.935L257.507,12.202C257.507,5.602 252.107,0.202 245.507,0.202L222.719,0.202L222.719,201.934L245.507,201.934L245.507,201.935Z" style="fill-opacity:0.05;fill-rule:nonzero;"/>
        <path d="M207.023,156.589L238.416,156.589" style="fill:none;stroke:rgb(156,156,156);stroke-opacity:0.23;stroke-width:4px;"/>
        <path d="M207.023,148.838L238.416,148.838" style="fill:none;stroke:rgb(156,156,156);stroke-opacity:0.23;stroke-width:4px;"/>
        <circle cx="222.719" cy="25.406" r="4.38" style="fill:rgb(28,49,94);"/>
        <path d="M222.719,41.324L222.719,128.861" style="fill:none;stroke:rgb(156,156,156);stroke-opacity:0.23;stroke-width:6px;"/>
    </g>
</svg>
