<?xml version="1.0" encoding="UTF-8" standalone="no"?>
<!DOCTYPE svg PUBLIC "-//W3C//DTD SVG 1.1//EN" "http://www.w3.org/Graphics/SVG/1.1/DTD/svg11.dtd">
<svg width="100%" height="100%" viewBox="0 0 300 300" version="1.1" xmlns="http://www.w3.org/2000/svg" xmlns:xlink="http://www.w3.org/1999/xlink" xml:space="preserve" xmlns:serif="http://www.serif.com/" style="fill-rule:evenodd;clip-rule:evenodd;stroke-linejoin:round;stroke-miterlimit:1.41421;">
    <g transform="matrix(0.582028,0,0,0.582028,16.1305,1.09239)">
        <g transform="matrix(-0.9646,0.2636,-0.2636,-0.9646,793.396,642.942)">
            <rect x="282.131" y="294.532" width="142.878" height="160.318" style="fill:rgb(128,227,173);"/>
        </g>
        <circle cx="353.823" cy="370.973" r="27.135" style="fill:rgb(246,249,253);"/>
        <g transform="matrix(0.9646,0.2636,-0.2636,0.9646,101.315,-14.3549)">
            <rect x="32.719" y="290.261" width="142.878" height="160.318" style="fill:rgb(128,227,173);"/>
        </g>
        <circle cx="108.941" cy="369.355" r="27.135" style="fill:rgb(246,249,253);"/>
        <path d="M202.246,108.792L154.07,95.883C148.804,94.472 142.897,95.641 138.654,98.933C135.427,101.435 133.418,104.98 132.981,108.85L127.644,128.769C126.071,132.413 126.058,136.57 127.65,140.413C128.174,141.678 128.859,142.876 129.675,143.986C124.575,154.604 118.761,167.699 112.658,182.268C112.651,182.285 112.644,182.301 112.637,182.317C107.306,195.045 101.758,208.889 96.278,223.184C77.596,228.252 53.773,250.118 46.842,275.978L0.985,447.128C-3.428,463.601 7.409,480.868 25.142,485.619L72.089,498.199C72.089,498.199 72.091,498.199 72.091,498.2L119.036,510.779C122.09,511.597 125.192,512.003 128.265,512.003C133.616,512.003 138.878,510.773 143.637,508.355C151.489,504.365 157.017,497.677 159.202,489.523L165.51,465.98C165.511,465.977 165.513,465.973 165.513,465.97C165.514,465.967 165.514,465.964 165.515,465.961L205.061,318.374C211.991,292.513 202.291,261.666 188.647,247.935C192.084,226.29 194.942,205.37 196.961,187.303C196.967,187.251 196.974,187.199 196.979,187.146C197.989,178.093 198.786,169.766 199.341,162.421C203.67,160.3 207.104,156.405 208.448,151.394L214.28,129.631C216.705,120.568 211.307,111.22 202.246,108.792ZM151.778,115.974L194.187,127.337L189.737,143.945C189.658,143.946 189.58,143.955 189.501,143.958C189.427,143.96 189.355,143.965 189.282,143.97C189.039,143.985 188.798,144.008 188.559,144.04C188.476,144.051 188.394,144.061 188.312,144.074C188.073,144.112 187.837,144.16 187.602,144.215C187.534,144.231 187.464,144.243 187.396,144.261C187.109,144.335 186.826,144.42 186.548,144.519C186.458,144.551 186.371,144.59 186.281,144.624C186.094,144.697 185.908,144.772 185.726,144.855C185.613,144.907 185.503,144.963 185.393,145.019C185.236,145.098 185.082,145.18 184.929,145.267C184.822,145.328 184.715,145.391 184.61,145.456C184.451,145.554 184.297,145.659 184.144,145.766C184.056,145.828 183.967,145.887 183.881,145.952C183.678,146.104 183.482,146.264 183.291,146.431C183.261,146.457 183.229,146.48 183.2,146.507C182.975,146.709 182.761,146.922 182.554,147.143C182.511,147.189 182.472,147.238 182.43,147.285C182.273,147.46 182.121,147.64 181.976,147.827C181.917,147.903 181.861,147.982 181.804,148.06C181.685,148.222 181.571,148.388 181.462,148.558C181.401,148.653 181.341,148.75 181.283,148.847C181.189,149.005 181.101,149.168 181.015,149.332C180.957,149.443 180.899,149.553 180.845,149.666C180.77,149.826 180.702,149.99 180.635,150.154C180.585,150.275 180.531,150.394 180.487,150.517C180.399,150.759 180.322,151.007 180.252,151.259C180.169,151.558 180.102,151.863 180.046,152.172C180.034,152.237 180.016,152.302 180.005,152.367C179.998,152.409 179.997,152.454 179.99,152.498C179.946,152.8 179.911,153.102 179.894,153.403C179.53,159.95 178.898,167.641 178.035,176.182L136.991,176.182C142.161,164.301 146.974,153.893 151.121,145.689C151.252,145.429 151.369,145.159 151.478,144.885C151.497,144.836 151.523,144.788 151.542,144.739C151.562,144.685 151.576,144.628 151.596,144.574C151.706,144.27 151.802,143.964 151.882,143.655C151.947,143.402 152.005,143.148 152.049,142.895C152.071,142.771 152.083,142.647 152.1,142.523C152.125,142.339 152.15,142.156 152.164,141.973C152.174,141.856 152.178,141.739 152.183,141.622C152.192,141.426 152.197,141.231 152.194,141.037C152.192,140.933 152.19,140.829 152.185,140.726C152.176,140.51 152.158,140.296 152.135,140.083C152.126,140 152.118,139.917 152.107,139.834C152.073,139.579 152.028,139.326 151.974,139.075C151.965,139.033 151.959,138.992 151.95,138.95C151.881,138.648 151.799,138.35 151.703,138.057C151.697,138.039 151.69,138.022 151.684,138.005C151.597,137.745 151.498,137.488 151.39,137.237C151.35,137.145 151.306,137.055 151.264,136.964C151.183,136.789 151.099,136.616 151.007,136.446C150.95,136.339 150.89,136.234 150.829,136.129C150.741,135.978 150.648,135.83 150.552,135.683C150.483,135.577 150.414,135.471 150.341,135.367C150.231,135.212 150.113,135.063 149.994,134.914C149.928,134.831 149.866,134.745 149.796,134.664C149.608,134.444 149.409,134.232 149.202,134.029C149.139,133.967 149.072,133.911 149.007,133.851C148.845,133.7 148.679,133.553 148.506,133.412C148.432,133.352 148.355,133.294 148.279,133.236C148.098,133.097 147.912,132.965 147.72,132.838C147.651,132.793 147.583,132.747 147.512,132.703C147.449,132.663 147.388,132.618 147.324,132.58L151.778,115.974ZM103.84,242.077C107.901,241.975 111.498,239.425 112.939,235.626C118.136,221.922 123.418,208.576 128.53,196.182L175.786,196.182C174.138,209.609 172.089,224.288 169.734,239.451L167.289,238.796C161.952,237.366 156.471,240.532 155.042,245.867C153.613,251.202 156.778,256.685 162.113,258.114L173.592,261.19C180.108,266.397 188.283,284.987 187.281,303.256L69.799,271.776C78.469,254.659 96.065,242.273 103.84,242.077ZM148.782,451.132L29.201,419.09L63.574,290.813L183.154,322.855L148.782,451.132ZM134.575,490.523C131.49,492.09 127.809,492.423 124.21,491.459L77.266,478.881C77.265,478.881 77.265,478.88 77.264,478.88L30.317,466.3C23.356,464.435 18.77,458.025 20.302,452.303L24.025,438.408L143.605,470.45L139.882,484.344C139.185,486.943 137.301,489.138 134.575,490.523Z" style="fill:rgb(28,49,94);fill-rule:nonzero;"/>
        <path d="M133.413,250.427L133.647,250.49C134.51,250.72 135.377,250.83 136.23,250.83C140.649,250.83 144.693,247.877 145.886,243.404C147.309,238.067 144.137,232.588 138.801,231.165L138.567,231.103C133.232,229.681 127.751,232.852 126.328,238.188C124.904,243.525 128.076,249.004 133.413,250.427Z" style="fill:rgb(28,49,94);fill-rule:nonzero;"/>
        <path d="M138.83,352.121C133.794,343.398 125.663,337.16 115.934,334.553C112.736,333.696 109.447,333.261 106.159,333.261C89.135,333.261 74.166,344.756 69.758,361.214C67.151,370.942 68.488,381.103 73.524,389.825C78.56,398.547 86.691,404.786 96.419,407.392C99.617,408.249 102.906,408.683 106.194,408.683C123.217,408.683 138.187,397.189 142.596,380.73C145.204,371.003 143.866,360.842 138.83,352.121ZM123.28,375.555C121.209,383.285 114.184,388.683 106.196,388.683C104.655,388.683 103.108,388.478 101.596,388.073C97.028,386.849 93.21,383.919 90.846,379.824C88.481,375.728 87.853,370.958 89.078,366.389C91.148,358.659 98.173,353.26 106.161,353.26C107.702,353.26 109.249,353.465 110.761,353.87C115.329,355.094 119.147,358.024 121.512,362.12C123.874,366.216 124.502,370.987 123.28,375.555Z" style="fill:rgb(28,49,94);fill-rule:nonzero;"/>
        <path d="M459.016,447.127L413.156,275.978C406.226,250.116 382.403,228.25 363.721,223.184C358.241,208.889 352.693,195.044 347.362,182.317C347.355,182.3 347.348,182.284 347.341,182.267C341.238,167.698 335.424,154.603 330.323,143.986C331.138,142.877 331.823,141.678 332.347,140.414C333.94,136.571 333.926,132.413 332.354,128.769L327.016,108.85C326.579,104.981 324.571,101.436 321.344,98.934C317.101,95.641 311.194,94.472 305.927,95.884L257.749,108.792C253.367,109.967 249.701,112.784 247.427,116.724C245.152,120.665 244.545,125.249 245.72,129.631L251.55,151.395C252.894,156.406 256.328,160.301 260.658,162.421C261.212,169.762 262.008,178.084 263.017,187.132C263.023,187.196 263.032,187.26 263.039,187.324C265.057,205.385 267.914,226.296 271.35,247.934C257.706,261.664 248.007,292.513 254.936,318.373L300.795,489.521C302.981,497.676 308.509,504.364 316.361,508.353C321.12,510.772 326.382,512.001 331.733,512.001C334.805,512.001 337.908,511.596 340.961,510.777L434.856,485.618C443.228,483.375 450.364,478.261 454.949,471.219C459.758,463.837 461.201,455.282 459.016,447.127ZM276.847,322.855L396.427,290.813L430.799,419.091L311.219,451.133L276.847,322.855ZM356.162,242.077C363.936,242.273 381.531,254.659 390.202,271.777L272.72,303.257C271.719,284.986 279.895,266.396 286.411,261.19L297.889,258.115C303.224,256.686 306.39,251.202 304.96,245.868C303.53,240.534 298.045,237.366 292.713,238.797L290.268,239.452C287.914,224.288 285.865,209.608 284.216,196.183L331.473,196.183C336.585,208.577 341.868,221.923 347.064,235.627C348.504,239.425 352.1,241.975 356.162,242.077ZM308.223,115.975L312.674,132.581C312.61,132.62 312.549,132.664 312.486,132.704C312.415,132.749 312.345,132.795 312.275,132.841C312.085,132.967 311.9,133.099 311.72,133.236C311.643,133.296 311.565,133.354 311.489,133.415C311.319,133.554 311.155,133.699 310.995,133.848C310.929,133.91 310.859,133.969 310.794,134.032C310.589,134.234 310.391,134.445 310.204,134.663C310.131,134.748 310.065,134.839 309.995,134.927C309.88,135.071 309.766,135.216 309.659,135.365C309.583,135.471 309.513,135.58 309.441,135.69C309.347,135.833 309.256,135.977 309.17,136.125C309.107,136.232 309.046,136.341 308.987,136.451C308.897,136.618 308.815,136.787 308.735,136.958C308.691,137.052 308.645,137.145 308.605,137.24C308.5,137.486 308.404,137.737 308.318,137.991C308.31,138.014 308.3,138.037 308.293,138.06C308.197,138.352 308.116,138.649 308.047,138.949C308.037,138.995 308.03,139.041 308.021,139.087C307.968,139.333 307.923,139.582 307.889,139.833C307.878,139.918 307.871,140.004 307.861,140.089C307.838,140.3 307.821,140.512 307.811,140.726C307.806,140.83 307.803,140.935 307.801,141.04C307.799,141.233 307.804,141.426 307.813,141.621C307.818,141.74 307.823,141.857 307.831,141.976C307.846,142.159 307.871,142.341 307.896,142.524C307.913,142.648 307.925,142.773 307.948,142.896C307.995,143.162 308.053,143.427 308.123,143.692C308.195,143.97 308.285,144.246 308.383,144.52C308.409,144.593 308.429,144.67 308.456,144.743C308.468,144.774 308.484,144.804 308.496,144.834C308.612,145.13 308.739,145.419 308.881,145.698C313.028,153.901 317.839,164.305 323.008,176.183L281.965,176.183C281.102,167.641 280.469,159.95 280.106,153.404C280.089,153.101 280.054,152.796 280.009,152.491C280.003,152.45 280.001,152.409 279.995,152.369C279.984,152.303 279.966,152.237 279.953,152.171C279.9,151.877 279.839,151.585 279.761,151.3C279.688,151.032 279.605,150.77 279.511,150.513C279.47,150.399 279.42,150.289 279.374,150.176C279.303,150.001 279.23,149.826 279.15,149.657C279.1,149.552 279.045,149.449 278.991,149.345C278.901,149.172 278.808,149.001 278.71,148.834C278.655,148.742 278.599,148.652 278.542,148.562C278.43,148.387 278.312,148.216 278.189,148.049C278.133,147.973 278.08,147.896 278.022,147.822C277.88,147.639 277.731,147.463 277.578,147.291C277.53,147.238 277.486,147.183 277.438,147.131C277.237,146.916 277.028,146.709 276.81,146.513C276.735,146.445 276.654,146.384 276.577,146.318C276.435,146.198 276.294,146.079 276.145,145.968C276.021,145.873 275.891,145.786 275.762,145.697C275.657,145.626 275.553,145.555 275.446,145.488C275.296,145.393 275.142,145.302 274.986,145.215C274.9,145.167 274.813,145.122 274.726,145.076C274.551,144.985 274.375,144.896 274.195,144.815C274.14,144.791 274.085,144.77 274.03,144.746C273.425,144.488 272.792,144.29 272.135,144.156C272.015,144.131 271.895,144.105 271.773,144.084C271.624,144.06 271.473,144.04 271.322,144.022C271.15,144.001 270.978,143.985 270.804,143.973C270.686,143.965 270.568,143.957 270.448,143.953C270.385,143.951 270.324,143.944 270.262,143.943L265.813,127.335L308.223,115.975ZM438.192,460.307C436.303,463.207 433.282,465.336 429.684,466.3L335.789,491.459C332.19,492.423 328.511,492.091 325.425,490.523C322.699,489.138 320.815,486.944 320.118,484.344L316.395,470.45L435.975,438.408L439.698,452.303C440.394,454.903 439.86,457.746 438.192,460.307Z" style="fill:rgb(28,49,94);fill-rule:nonzero;"/>
        <path d="M321.424,231.105L321.191,231.168C315.856,232.597 312.69,238.08 314.119,243.414C315.315,247.883 319.355,250.83 323.772,250.83C324.627,250.83 325.499,250.719 326.365,250.487L326.598,250.424C331.933,248.995 335.099,243.512 333.67,238.178C332.24,232.844 326.761,229.675 321.424,231.105Z" style="fill:rgb(28,49,94);fill-rule:nonzero;"/>
        <path d="M390.242,361.214C385.833,344.755 370.863,333.26 353.84,333.26C350.552,333.26 347.263,333.695 344.065,334.552C334.336,337.158 326.206,343.397 321.169,352.12C316.134,360.842 314.796,371.003 317.402,380.732C321.812,397.188 336.782,408.683 353.804,408.684C353.805,408.684 353.805,408.684 353.806,408.684C357.093,408.684 360.382,408.249 363.58,407.393C373.308,404.787 381.439,398.548 386.475,389.826C391.511,381.103 392.849,370.942 390.242,361.214ZM369.156,379.825C366.791,383.921 362.973,386.85 358.406,388.074C356.895,388.479 355.347,388.684 353.807,388.684L353.806,388.684C345.819,388.684 338.792,383.285 336.721,375.556C335.497,370.988 336.125,366.217 338.489,362.121C340.854,358.025 344.672,355.096 349.24,353.871C350.751,353.466 352.299,353.261 353.84,353.261C361.827,353.261 368.853,358.66 370.924,366.391C372.148,370.958 371.52,375.729 369.156,379.825Z" style="fill:rgb(28,49,94);fill-rule:nonzero;"/>
        <path d="M230,0C224.477,0 220,4.477 220,10L220,36.764C220,42.287 224.477,46.764 230,46.764C235.522,46.764 240,42.287 240,36.764L240,10C240,4.477 235.523,0 230,0Z" style="fill:rgb(28,49,94);fill-rule:nonzero;"/>
        <path d="M179.305,60.311C181.167,63.485 184.508,65.253 187.94,65.253C189.659,65.253 191.401,64.81 192.99,63.877C197.754,61.083 199.35,54.956 196.556,50.192L182.96,27.015C180.166,22.251 174.038,20.654 169.275,23.449C164.511,26.243 162.915,32.37 165.709,37.134L179.305,60.311Z" style="fill:rgb(28,49,94);fill-rule:nonzero;"/>
        <path d="M267.011,63.877C268.601,64.81 270.342,65.253 272.061,65.253C275.493,65.253 278.834,63.485 280.697,60.311L294.293,37.133C297.087,32.369 295.49,26.242 290.727,23.448C285.962,20.653 279.835,22.251 277.041,27.014L263.445,50.192C260.651,54.956 262.247,61.083 267.011,63.877Z" style="fill:rgb(28,49,94);fill-rule:nonzero;"/>
    </g>
</svg>
