<?xml version="1.0" encoding="UTF-8" standalone="no"?>
<!DOCTYPE svg PUBLIC "-//W3C//DTD SVG 1.1//EN" "http://www.w3.org/Graphics/SVG/1.1/DTD/svg11.dtd">
<svg width="100%" height="100%" viewBox="0 0 300 300" version="1.1" xmlns="http://www.w3.org/2000/svg" xmlns:xlink="http://www.w3.org/1999/xlink" xml:space="preserve" xmlns:serif="http://www.serif.com/" style="fill-rule:evenodd;clip-rule:evenodd;stroke-linejoin:round;stroke-miterlimit:1.41421;">
    <g transform="matrix(0.575,0,0,0.575,23.5,0.5)">
        <rect x="137.6" y="151.2" width="165.6" height="176.8" style="fill:rgb(246,249,253);"/>
        <path d="M302.4,328L302.4,376C302.4,390.4 291.2,401.6 276.8,401.6L162.4,401.6C148,401.6 136.8,390.4 136.8,376L136.8,328L302.4,328Z" style="fill:rgb(128,227,173);fill-rule:nonzero;"/>
        <g>
            <path d="M252,68L220,16L188,68L252,68Z" style="fill:rgb(28,49,94);fill-rule:nonzero;"/>
            <path d="M440,291.2C440,249.6 411.2,215.2 369.6,205.6C356,186.4 334.4,172.8 310.4,169.6L310.4,151.2C310.4,150.4 310.4,149.6 309.6,148C309.6,148 309.6,147.2 308.8,147.2L266.4,76L227.2,12L226.4,11.2L220,0L212.8,11.2L212,12L173.6,76L130.4,147.2C130.4,147.2 130.4,148 129.6,148C129.6,148.8 128.8,149.6 128.8,150.4L128.8,168.8C104.8,172 83.2,185.6 69.6,204.8C28,215.2 0,249.6 0,291.2C0,309.6 6.4,326.4 16,340.8C8,350.4 3.2,362.4 3.2,375.2C3.2,394.4 13.6,411.2 29.6,421.6C28.8,424.8 28.8,428 28.8,431.2C28.8,460.8 59.2,483.2 88.8,485.6C97.6,506.4 119.2,520 143.2,520C165.6,520 203.2,507.2 219.2,486.4C235.2,507.2 272.8,520 295.2,520C319.2,520 340.8,506.4 349.6,485.6C350.4,485.6 351.2,485.6 352,485.6C384,485.6 410.4,460.8 410.4,430.4C410.4,427.2 410.4,424 409.6,420.8C426.4,410.4 436,393.6 436,374.4C436,361.6 431.2,350.4 423.2,340C434.4,326.4 440,309.6 440,291.2ZM294.4,320L228,320L228,159.2L294.4,159.2L294.4,320ZM220,31.2L237.6,60L202.4,60L220,31.2ZM192.8,76L248,76L288.8,143.2L151.2,143.2L192.8,76ZM212,159.2L212,320L145.6,320L145.6,159.2L212,159.2ZM212,464.8C212,484.8 168.8,504 144,504C124.8,504 108,492 103.2,475.2L101.6,469.6L96,469.6C73.6,469.6 45.6,452 45.6,430.4C45.6,426.4 46.4,422.4 47.2,419.2L49.6,412.8L43.2,409.6C28.8,403.2 20,389.6 20,375.2C20,367.2 22.4,360 27.2,353.6C44,369.6 68,380 93.6,380C98.4,380 101.6,376.8 101.6,372C101.6,367.2 98.4,364 93.6,364C50.4,364 16,332 16,292C16,256.8 40.8,228 76.8,221.6L80,220.8L81.6,217.6C92,200.8 109.6,189.6 129.6,186.4L129.6,376.8C129.6,395.2 144.8,410.4 163.2,410.4L212.8,410.4L212.8,464.8L212,464.8ZM162.4,393.6C152.8,393.6 144.8,385.6 144.8,376L144.8,336L294.4,336L294.4,376C294.4,380.8 292.8,384.8 289.6,388C286.4,391.2 281.6,392.8 277.6,392.8L162.4,393.6ZM346.4,379.2C372.8,379.2 396,369.6 412.8,352.8C417.6,359.2 420,366.4 420,374.4C420,388.8 411.2,402.4 396.8,408.8L390.4,412L392.8,418.4C394.4,422.4 394.4,425.6 394.4,429.6C394.4,451.2 375.2,468.8 352,468.8C328.8,468.8 309.6,451.2 309.6,429.6C309.6,424.8 306.4,421.6 301.6,421.6C296.8,421.6 293.6,424.8 293.6,429.6C293.6,453.6 310.4,474.4 333.6,481.6C326.4,494.4 312,503.2 296,503.2C271.2,503.2 228,484 228,464L228,408.8L277.6,408.8C286.4,408.8 295.2,405.6 301.6,399.2C308,392.8 311.2,384.8 311.2,375.2L311.2,184.8C331.2,188 348.8,199.2 359.2,216L360.8,219.2L364,220C400,226.4 424.8,256 424.8,290.4C424.8,329.6 389.6,362.4 347.2,362.4C342.4,362.4 339.2,365.6 339.2,370.4C338.4,375.2 342.4,379.2 346.4,379.2Z" style="fill:rgb(28,49,94);fill-rule:nonzero;"/>
            <path d="M98.4,412C94.4,411.2 89.6,414.4 89.6,418.4C88.8,422.4 92,427.2 96,427.2C112.8,429.6 127.2,438.4 134.4,449.6C139.2,456.8 140,464.8 137.6,472.8C136,476.8 138.4,481.6 143.2,482.4C144,482.4 144.8,482.4 145.6,482.4C148.8,482.4 152,480 153.6,476.8C156.8,464.8 155.2,452 148,440.8C137.6,426.4 120,416 98.4,412Z" style="fill:rgb(28,49,94);fill-rule:nonzero;"/>
            <rect x="167.2" y="264" width="16" height="16" style="fill:rgb(28,49,94);"/>
            <rect x="256.8" y="264" width="16" height="16" style="fill:rgb(28,49,94);"/>
            <rect x="167.2" y="200" width="16" height="16" style="fill:rgb(28,49,94);"/>
            <rect x="256.8" y="200" width="16" height="16" style="fill:rgb(28,49,94);"/>
        </g>
    </g>
</svg>
