<?xml version="1.0" encoding="UTF-8" standalone="no"?>
<!DOCTYPE svg PUBLIC "-//W3C//DTD SVG 1.1//EN" "http://www.w3.org/Graphics/SVG/1.1/DTD/svg11.dtd">
<svg width="100%" height="100%" viewBox="0 0 300 300" version="1.1" xmlns="http://www.w3.org/2000/svg" xmlns:xlink="http://www.w3.org/1999/xlink" xml:space="preserve" xmlns:serif="http://www.serif.com/" style="fill-rule:evenodd;clip-rule:evenodd;stroke-linejoin:round;stroke-miterlimit:1.41421;">
    <g transform="matrix(0.848048,0,0,0.848048,1,0.999576)">
        <rect x="113.557" y="282.152" width="118" height="20.667" style="fill:rgb(246,249,253);"/>
        <path d="M175.747,292.485C175.747,292.485 144.977,291.485 140.6,262.152C139.576,255.29 138.792,250.032 138.191,246.005L136.224,232.818L148.891,238.151L172.558,189.18L185.558,206.238L189.857,239.467L194.225,212.817C194.225,212.817 217.229,222.534 216.709,248.903C216.189,275.272 182.633,298.744 175.747,292.485Z" style="fill:rgb(128,227,173);fill-rule:nonzero;"/>
        <rect x="19.557" y="144.859" width="308.419" height="20.667" style="fill:rgb(246,249,253);"/>
        <g>
            <path d="M46.838,181.562C43.609,181.562 41.011,184.161 41.011,187.426L41.011,310.385C41.011,313.65 43.61,316.249 46.838,316.249C50.074,316.249 52.702,313.65 52.702,310.385L52.702,187.426C52.702,184.16 50.074,181.562 46.838,181.562Z" style="fill:rgb(28,49,94);fill-rule:nonzero;"/>
            <path d="M304.557,316.248C307.786,316.248 310.384,313.649 310.384,310.384L310.384,187.426C310.384,184.161 307.785,181.562 304.557,181.562C301.321,181.562 298.693,184.161 298.693,187.426L298.693,310.385C298.693,313.65 301.321,316.248 304.557,316.248Z" style="fill:rgb(28,49,94);fill-rule:nonzero;"/>
            <path d="M345.531,134.687L290.369,134.687L243.531,52.702L240.127,52.702L240.127,35.147L234.263,35.147L234.263,17.555L228.4,17.555L228.4,0L122.996,0L122.996,17.555L117.132,17.555L117.132,35.147L111.268,35.147L111.268,52.702L107.864,52.702L61.026,134.687L5.864,134.687C2.628,134.687 0,137.323 0,140.551C0,143.787 2.628,146.415 5.864,146.415L11.728,146.415L11.728,175.698L23.419,175.698L23.419,322.113L11.728,322.113L11.728,351.396L339.667,351.396L339.667,322.113L327.976,322.113L327.976,175.698L339.667,175.698L339.667,146.415L345.531,146.415C348.767,146.415 351.395,143.787 351.395,140.551C351.395,137.323 348.767,134.687 345.531,134.687ZM134.687,11.728L216.709,11.728L216.709,17.555L134.687,17.555L134.687,11.728ZM128.859,29.283L222.535,29.283L222.535,35.147L128.859,35.147L128.859,29.283ZM122.996,46.838L228.4,46.838L228.4,52.702L122.996,52.702L122.996,46.838ZM114.672,64.43L236.723,64.43L276.87,134.687L74.525,134.687L114.672,64.43ZM35.147,175.698L58.566,175.698L58.566,322.113L35.147,322.113L35.147,175.698ZM281.102,322.112L240.128,322.112C232.492,322.112 226.058,317.192 223.627,310.384L240.128,310.384L240.128,275.274L216.189,275.274C226.314,257.741 224.396,234.805 210.442,218.648L200.347,206.898C198.831,205.127 196.372,204.438 194.168,205.127C193.341,205.383 192.601,205.808 192.001,206.379C189.571,199.432 186.247,192.572 182.015,185.764C181.876,185.508 181.7,185.252 181.503,185.017L180.244,183.59C179.131,182.301 177.528,181.562 175.815,181.562C174.095,181.562 172.492,182.301 171.378,183.59L161.51,195.061C153.764,204.036 148.56,214.79 146.187,226.086C145.353,224.424 143.757,223.224 141.839,222.938C139.526,222.623 137.205,223.656 135.975,225.683C126.48,241.13 126.539,260.113 135.433,275.274L105.403,275.274L105.403,310.414L127.768,310.414C125.338,317.193 118.903,322.112 111.267,322.112L70.294,322.112L70.294,175.698L281.102,175.698L281.102,322.112ZM157.71,251.65C153.962,234.52 158.713,216.218 170.375,202.696L175.126,197.205C181.7,209.299 185.016,221.568 185.016,233.691C185.016,236.524 187.051,238.955 189.855,239.467C192.681,239.979 195.397,238.376 196.37,235.69C196.487,235.404 198.112,230.887 199.635,224.028L201.575,226.283C213.845,240.5 214.013,261.489 201.978,275.098C201.575,275.559 201.121,275.984 200.66,276.445L200.177,276.928C198.486,278.59 196.685,279.988 194.825,281.247C194.745,281.276 194.686,281.335 194.598,281.394C192.797,282.536 190.938,283.51 189.02,284.308C188.764,284.396 188.537,284.506 188.31,284.594C186.451,285.311 184.562,285.883 182.614,286.256C182.358,286.307 182.072,286.336 181.787,286.395C179.869,286.739 177.9,286.966 175.952,286.966C175.893,286.966 175.864,286.966 175.813,286.966L175.725,286.966C173.778,286.966 171.838,286.739 169.92,286.424C169.576,286.336 169.203,286.307 168.858,286.226C166.999,285.852 165.198,285.311 163.426,284.623C163.082,284.476 162.767,284.367 162.453,284.22C160.623,283.451 158.822,282.536 157.109,281.416C156.963,281.336 156.823,281.218 156.677,281.13C154.847,279.929 153.104,278.531 151.45,276.928L151.187,276.672C150.557,276.043 149.928,275.413 149.328,274.725C142.351,266.635 139.496,255.852 140.982,245.588C144.13,252.133 147.102,256.423 147.3,256.737C148.874,259.029 151.817,259.629 154.394,258.509C156.942,257.397 158.311,254.366 157.71,251.65ZM177.784,298.693C178.274,298.664 178.728,298.546 179.211,298.488C180.873,298.378 182.534,298.173 184.16,297.866C184.848,297.749 185.536,297.632 186.225,297.492C188.165,297.031 190.083,296.431 191.943,295.721C192.514,295.516 193.085,295.289 193.656,295.062C195.801,294.147 197.887,293.115 199.864,291.914C200.003,291.826 200.149,291.746 200.288,291.658C202.492,290.282 204.607,288.715 206.584,286.965L228.4,286.965L228.4,298.693L177.784,298.693ZM145.038,286.966C145.126,287.054 145.214,287.083 145.301,287.171C147.183,288.825 149.188,290.341 151.333,291.659C151.45,291.718 151.56,291.827 151.707,291.886C153.618,293.057 155.653,294.06 157.71,294.946C158.369,295.202 159.057,295.488 159.709,295.744C161.656,296.461 163.633,297.091 165.631,297.552C166.348,297.72 167.029,297.779 167.717,297.918C169.232,298.174 170.748,298.379 172.263,298.489C172.783,298.518 173.295,298.665 173.808,298.694L117.131,298.694L117.131,286.966L145.038,286.966ZM211.415,310.385C212.33,314.763 214.248,318.679 216.847,322.113L134.547,322.113C137.146,318.679 139.064,314.763 139.95,310.385L211.415,310.385ZM327.976,339.667L23.419,339.667L23.419,333.84L327.976,333.84L327.976,339.667ZM316.248,322.112L292.829,322.112L292.829,175.698L316.248,175.698L316.248,322.112ZM327.976,163.97L23.419,163.97L23.419,146.415L327.976,146.415L327.976,163.97Z" style="fill:rgb(28,49,94);fill-rule:nonzero;"/>
        </g>
    </g>
</svg>
