<?xml version="1.0" encoding="UTF-8" standalone="no"?>
<!DOCTYPE svg PUBLIC "-//W3C//DTD SVG 1.1//EN" "http://www.w3.org/Graphics/SVG/1.1/DTD/svg11.dtd">
<svg width="100%" height="100%" viewBox="0 0 300 300" version="1.1" xmlns="http://www.w3.org/2000/svg" xmlns:xlink="http://www.w3.org/1999/xlink" xml:space="preserve" xmlns:serif="http://www.serif.com/" style="fill-rule:evenodd;clip-rule:evenodd;stroke-linejoin:round;stroke-miterlimit:1.41421;">
    <g transform="matrix(0.585937,0,0,0.585937,2.42955,0.0922377)">
        <path d="M172.403,225.416L187.772,215.811L173.238,181.935L212.66,159.034L241.096,224.998L246.273,220.427L230.759,149.01L263.86,104.811L273.343,69.811L223.372,80.652L207.269,103.067L121.962,95.28L108.343,101.811L174.215,129.804L159.686,168.442L113.509,147.853L96.451,164.911L149.511,189.21L172.403,225.416Z" style="fill:rgb(246,249,253);fill-rule:nonzero;"/>
        <path d="M136.598,298.877L136.598,349.459L169.759,349.459L169.759,436.159L213.359,418.284L199.499,386.036L238.946,362.845L238.946,324.464L196.301,324.464L167.183,298.877L136.598,298.877Z" style="fill:rgb(128,227,173);fill-rule:nonzero;"/>
        <path d="M34.249,136.825L74.395,194.029L36.748,207.556L34.249,239.174L8.662,239.174L34.249,136.825Z" style="fill:rgb(128,227,173);fill-rule:nonzero;"/>
        <path d="M307.17,256.232L307.17,307.406L332.343,317.182L332.766,426.813L375.411,426.813L405.263,388.627L418.065,352.627L439.343,298.877L410.343,298.877L383.941,239.174L307.17,246.767L307.17,256.232Z" style="fill:rgb(128,227,173);fill-rule:nonzero;"/>
        <path d="M324.237,145.354L324.237,187.999L345.261,187.999L366.882,162.412L418.057,162.412L457.12,222.115L486.289,222.115L481.343,168.407L460.343,121.811L443.644,111.238L404.53,111.238L358.343,144.62L324.237,145.354Z" style="fill:rgb(128,227,173);fill-rule:nonzero;"/>
        <path d="M252.303,503.498C168.556,503.507 87.769,461.595 40.569,388.808L54.881,379.528C111.983,467.565 221.769,507.148 321.926,475.804C381.766,457.074 430.723,416.169 459.781,360.61C488.848,305.06 494.537,241.519 475.816,181.687C457.086,121.856 416.181,72.899 360.622,43.823C305.089,14.765 241.539,9.068 181.699,27.789C58.173,66.46 -10.861,198.405 27.801,321.914L11.519,327.014C-29.95,194.524 44.1,52.993 176.599,11.516C309.115,-29.944 450.612,44.097 492.089,176.588C512.175,240.769 506.077,308.934 474.894,368.518C443.711,428.102 391.198,471.984 327.017,492.07C302.394,499.796 277.208,503.498 252.303,503.498Z" style="fill:rgb(28,49,94);fill-rule:nonzero;"/>
        <path d="M175.772,144.62L99.01,110.504C96.443,109.361 94.6,107.033 94.089,104.269C93.577,101.506 94.456,98.665 96.443,96.678L113.501,79.62C115.727,77.394 118.994,76.575 121.979,77.479L207.27,103.066L202.374,119.408L121.962,95.28L117.288,99.954L182.697,129.03L175.772,144.62Z" style="fill:rgb(28,49,94);fill-rule:nonzero;"/>
        <path d="M170.714,247.703C170.364,247.703 170.015,247.686 169.673,247.643C167.063,247.319 164.752,245.818 163.404,243.566L138.909,202.746L98.089,178.251C95.837,176.903 94.336,174.583 94.012,171.982C93.688,169.381 94.592,166.771 96.451,164.911L113.509,147.853C115.633,145.729 118.703,144.885 121.612,145.61L151.046,152.971L223.372,80.653C236.643,67.382 254.29,60.072 273.054,60.072C273.063,60.072 273.063,60.072 273.071,60.072C277.788,60.072 281.6,63.893 281.6,68.601C281.617,87.527 274.717,104.773 262.179,117.899L188.701,190.652L196.053,220.052C196.778,222.96 195.925,226.031 193.81,228.155L176.752,245.213C175.132,246.816 172.957,247.703 170.714,247.703ZM116.23,169.244L149.51,189.211C150.713,189.927 151.711,190.934 152.435,192.136L172.402,225.416L178.321,219.497L170.96,190.063C170.235,187.138 171.096,184.05 173.237,181.935L250,105.941C257.369,98.222 262.171,88.448 263.86,77.906C253.147,79.757 243.271,84.849 235.424,92.704L159.686,168.442C157.562,170.566 154.492,171.41 151.583,170.685L122.149,163.324L116.23,169.244Z" style="fill:rgb(28,49,94);fill-rule:nonzero;"/>
        <path d="M237.923,247.703C237.3,247.703 236.678,247.635 236.055,247.498C233.385,246.901 231.168,245.059 230.085,242.551L196.992,165.789L212.66,159.034L241.096,224.998L246.273,220.426L222.23,139.246L238.589,134.401L264.176,220.8C265.114,223.99 264.133,227.427 261.643,229.619L243.561,245.568C241.991,246.961 239.978,247.703 237.923,247.703Z" style="fill:rgb(28,49,94);fill-rule:nonzero;"/>
        <path d="M73.772,512.001C51.016,512.001 32.67,505.527 19.681,492.546C-26.828,446.046 12.977,329.052 116.469,208.042L129.433,219.13C35.076,329.462 -6.921,441.816 31.75,480.487C54.062,502.791 101.714,499.072 162.458,470.286L169.759,485.698C132.811,503.208 100.298,512.001 73.772,512.001Z" style="fill:rgb(28,49,94);fill-rule:nonzero;"/>
        <path d="M375.411,426.813L332.766,426.813C328.049,426.813 324.237,423.001 324.237,418.284L324.237,324.464L298.65,324.464C293.933,324.464 290.121,320.652 290.121,315.935L290.121,247.702C290.121,242.994 293.933,239.173 298.65,239.173L383.941,239.173C387.174,239.173 390.125,240.998 391.575,243.89L414.808,290.348L443.653,290.348C446.8,290.348 449.692,292.079 451.176,294.851C452.66,297.623 452.489,300.992 450.75,303.602L418.067,352.627L418.067,384.159C418.067,386.428 417.171,388.594 415.568,390.189L381.452,424.305C379.838,425.918 377.672,426.813 375.411,426.813ZM341.295,409.755L371.88,409.755L400.998,380.637L400.998,350.052C400.998,348.372 401.501,346.717 402.431,345.318L427.711,307.406L409.527,307.406C406.294,307.406 403.343,305.581 401.893,302.689L378.66,256.231L307.17,256.231L307.17,307.405L332.757,307.405C337.474,307.405 341.286,311.217 341.286,315.934L341.286,409.754L341.295,409.754L341.295,409.755Z" style="fill:rgb(28,49,94);fill-rule:nonzero;"/>
        <path d="M486.289,239.174L452.173,239.174C449.12,239.174 446.288,237.536 444.77,234.875L413.11,179.47L371.445,179.47L356.92,201.262C355.334,203.633 352.673,205.057 349.824,205.057L315.708,205.057C310.991,205.057 307.179,201.236 307.179,196.528L307.179,136.825C307.179,132.117 310.991,128.296 315.708,128.296L363.351,128.296L394.968,96.679C396.571,95.076 398.729,94.18 400.998,94.18L443.643,94.18L443.643,111.238L404.53,111.238L372.913,142.855C371.31,144.458 369.152,145.354 366.883,145.354L324.238,145.354L324.238,187.999L345.262,187.999L359.787,166.207C361.373,163.836 364.034,162.412 366.883,162.412L418.057,162.412C421.11,162.412 423.942,164.05 425.46,166.711L457.12,222.116L486.289,222.116L486.289,239.174Z" style="fill:rgb(28,49,94);fill-rule:nonzero;"/>
        <path d="M170.714,452.4C169.418,452.4 168.104,452.101 166.902,451.504C164.011,450.054 162.185,447.103 162.185,443.87L162.185,358.579L128.069,358.579C123.361,358.579 119.54,354.767 119.54,350.05L119.54,290.347C119.54,285.63 123.361,281.818 128.069,281.818L170.714,281.818C172.974,281.818 175.149,282.714 176.744,284.317L199.832,307.405L247.475,307.405C252.183,307.405 256.004,311.217 256.004,315.934L256.004,358.579C256.004,361.172 254.827,363.62 252.806,365.24L213.359,396.789L213.359,418.282C213.359,420.96 212.097,423.493 209.947,425.105L175.831,450.692C174.322,451.829 172.522,452.4 170.714,452.4ZM136.598,341.522L170.714,341.522C175.422,341.522 179.243,345.334 179.243,350.051L179.243,426.813L196.301,414.019L196.301,392.696C196.301,390.103 197.478,387.655 199.499,386.035L238.946,354.486L238.946,324.464L196.301,324.464C194.041,324.464 191.866,323.568 190.271,321.965L167.183,298.877L136.598,298.877L136.598,341.522Z" style="fill:rgb(28,49,94);fill-rule:nonzero;"/>
        <path d="M42.778,256.232L8.662,256.232L8.662,239.174L34.249,239.174L34.249,213.587C34.249,211.327 35.145,209.152 36.748,207.557L57.627,186.678L37.95,153.883L34.248,153.883L34.248,136.825L42.777,136.825C45.771,136.825 48.551,138.394 50.086,140.962L75.673,183.607C77.686,186.967 77.157,191.258 74.394,194.03L51.306,217.118L51.306,247.703C51.307,252.411 47.486,256.232 42.778,256.232Z" style="fill:rgb(28,49,94);fill-rule:nonzero;"/>
    </g>
</svg>
