<?xml version="1.0" encoding="UTF-8" standalone="no"?>
<!DOCTYPE svg PUBLIC "-//W3C//DTD SVG 1.1//EN" "http://www.w3.org/Graphics/SVG/1.1/DTD/svg11.dtd">
<svg width="100%" height="100%" viewBox="0 0 300 300" version="1.1" xmlns="http://www.w3.org/2000/svg" xmlns:xlink="http://www.w3.org/1999/xlink" xml:space="preserve" xmlns:serif="http://www.serif.com/" style="fill-rule:evenodd;clip-rule:evenodd;stroke-linejoin:round;stroke-miterlimit:1.41421;">
    <g transform="matrix(0.705728,0,0,0.705728,18.1545,1)">
        <path d="M343.416,211.192L336.089,211.192C321.549,211.192 309.653,199.296 309.653,184.756L309.653,138.837C309.653,124.297 321.549,112.401 336.089,112.401L343.416,112.401C357.956,112.401 369.852,124.297 369.852,138.837L369.852,184.756C369.852,199.296 357.956,211.192 343.416,211.192Z" style="fill:rgb(246,249,253);fill-rule:nonzero;"/>
        <path d="M33.776,212.327C19.236,212.327 7.34,200.431 7.34,185.891L7.34,139.972C7.34,125.432 19.236,113.536 33.776,113.536C48.316,113.536 60.212,125.432 60.212,139.972L60.212,185.891C60.212,200.431 48.315,212.327 33.776,212.327Z" style="fill:rgb(246,249,253);fill-rule:nonzero;"/>
        <path d="M294.41,324.686L192.416,324.686L192.416,335.153L181.233,335.153L181.233,324.686L79.238,324.686C58.457,350.271 44.913,383.292 42.225,419.751L331.423,419.751C328.735,383.293 315.191,350.271 294.41,324.686Z" style="fill:rgb(128,227,173);fill-rule:nonzero;"/>
        <g>
            <path d="M342.644,102.536L340.395,102.536C328.22,73.191 308.051,48.098 281.829,29.806C253.877,10.307 221.025,0 186.824,0C152.623,0 119.771,10.307 91.82,29.805C65.599,48.097 45.43,73.191 33.255,102.535L30.999,102.535C13.906,102.535 0,116.441 0,133.534L0,192.327C0,209.42 13.906,223.326 30.999,223.326L36.561,223.326C47.978,223.326 57.967,217.117 63.345,207.902C69.671,226.727 80.27,243.93 94.538,258.209L84.801,258.209C73.516,258.209 64.334,267.39 64.334,278.676L64.334,284.892C64.334,298.294 69.918,310.409 78.871,319.059C78.162,319.738 77.459,320.424 76.765,321.118C51.217,346.666 37.147,380.633 37.147,416.759C37.147,419.797 39.61,422.259 42.647,422.259L331.001,422.259C334.038,422.259 336.501,419.797 336.501,416.759C336.501,379.677 321.383,344.526 294.766,319.064C303.722,310.415 309.308,298.297 309.308,284.893L309.308,278.677C309.308,267.391 300.126,258.21 288.841,258.21L279.1,258.21C293.369,243.929 303.968,226.725 310.295,207.898C315.673,217.115 325.663,223.327 337.083,223.327L342.645,223.327C359.738,223.327 373.644,209.421 373.644,192.328L373.644,133.535C373.643,116.441 359.736,102.536 342.644,102.536ZM98.113,38.827C124.21,20.623 154.886,11 186.824,11C218.762,11 249.438,20.623 275.535,38.827C299.096,55.263 317.427,77.572 328.91,103.637C319.977,106.081 312.645,112.429 308.864,120.726C290.36,71.29 242.639,36 186.824,36C131.007,36 83.282,71.288 64.776,120.722C60.995,112.428 53.667,106.083 44.738,103.638C56.221,77.573 74.552,55.263 98.113,38.827ZM305.99,161.797C244.296,158.931 194.702,108.97 192.416,47.135C254.111,49.998 303.704,99.956 305.99,161.797ZM181.233,47.135C178.946,108.971 129.348,158.931 67.648,161.797C69.934,99.956 119.532,49.997 181.233,47.135ZM56.559,192.328C56.559,203.355 47.588,212.327 36.561,212.327L30.999,212.327C19.972,212.327 11,203.356 11,192.328L11,133.535C11,122.508 19.972,113.536 30.999,113.536L36.561,113.536C47.588,113.536 56.559,122.507 56.559,133.535L56.559,166.027C56.559,166.104 56.556,166.181 56.556,166.258C56.556,166.328 56.559,166.397 56.559,166.467L56.559,192.328ZM75.335,284.893L75.335,278.677C75.335,273.457 79.582,269.21 84.802,269.21L139.927,269.21C156.952,269.21 170.804,283.061 170.804,300.086L170.804,311.959C170.804,317.179 166.557,321.426 161.337,321.426L111.867,321.426C91.724,321.426 75.335,305.037 75.335,284.893ZM181.634,296.419C183.35,296.486 190.297,296.486 192.009,296.419C191.904,297.628 192.014,329.648 192.014,329.648C192.014,332.463 189.724,334.753 186.91,334.753C184.095,334.753 181.805,332.462 181.805,329.648C181.804,329.648 181.739,297.628 181.634,296.419ZM84.543,328.896C85.589,327.851 86.658,326.827 87.738,325.822C94.816,330.011 103.063,332.426 111.867,332.426L161.337,332.426C164.761,332.426 167.986,331.571 170.826,330.077C171.005,336.836 175.362,342.558 181.41,344.766L181.41,361.974L60.812,361.974C66.764,349.877 74.73,338.709 84.543,328.896ZM56.055,372.974L181.409,372.974L181.409,411.259L48.267,411.259C48.84,397.998 51.493,385.113 56.055,372.974ZM192.409,411.259L192.409,372.974L317.542,372.974C322.114,385.123 324.798,398.025 325.38,411.259L192.409,411.259ZM312.79,361.974L192.409,361.974L192.409,344.766C198.431,342.567 202.775,336.883 202.988,330.16C205.787,331.599 208.949,332.427 212.306,332.427L261.775,332.427C270.579,332.427 278.826,330.012 285.904,325.823C297.112,336.251 306.178,348.519 312.79,361.974ZM298.308,278.676L298.308,284.892C298.308,305.037 281.919,321.425 261.775,321.425L212.306,321.425C207.086,321.425 202.839,317.178 202.839,311.958L202.839,300.085C202.839,283.06 216.69,269.209 233.715,269.209L288.841,269.209C294.061,269.209 298.308,273.456 298.308,278.676ZM262.753,258.209L233.715,258.209C215.838,258.209 200.55,269.473 194.553,285.273C189.487,285.6 184.165,285.6 179.089,285.273C173.092,269.473 157.804,258.209 139.927,258.209L110.885,258.209C85.016,236.843 69.534,206.1 67.736,172.8C124.055,170.368 171.214,132.016 186.825,80.135C202.435,132.016 249.589,170.368 305.903,172.8C304.105,206.101 288.623,236.843 262.753,258.209ZM362.643,192.328C362.643,203.355 353.671,212.327 342.644,212.327L339.528,212.327C339.397,212.318 338.866,212.318 338.735,212.327L337.083,212.327C326.056,212.327 317.084,203.356 317.084,192.328L317.084,133.535C317.084,122.508 326.056,113.536 337.083,113.536L342.645,113.536C353.672,113.536 362.644,122.507 362.644,133.535L362.644,192.328L362.643,192.328Z" style="fill-rule:nonzero;"/>
            <path d="M217.291,211.769L156.347,211.769C153.31,211.769 150.847,214.231 150.847,217.269C150.847,237.104 166.984,253.241 186.819,253.241C206.654,253.241 222.792,237.104 222.792,217.269C222.791,214.231 220.328,211.769 217.291,211.769ZM186.818,242.241C174.938,242.241 164.968,233.902 162.457,222.769L211.181,222.769C208.669,233.901 198.699,242.241 186.818,242.241Z" style="fill:rgb(28,49,94);fill-rule:nonzero;"/>
            <path d="M117.466,171.952C105.311,171.952 95.422,181.841 95.422,193.996C95.422,197.034 97.885,199.496 100.922,199.496C103.959,199.496 106.422,197.034 106.422,193.996C106.422,187.906 111.376,182.952 117.466,182.952C123.556,182.952 128.511,187.907 128.511,193.996C128.511,197.034 130.974,199.496 134.011,199.496C137.048,199.496 139.511,197.034 139.511,193.996C139.511,181.841 129.621,171.952 117.466,171.952Z" style="fill:rgb(28,49,94);fill-rule:nonzero;"/>
            <path d="M256.172,171.952C244.017,171.952 234.127,181.841 234.127,193.996C234.127,197.034 236.59,199.496 239.627,199.496C242.664,199.496 245.127,197.034 245.127,193.996C245.127,187.906 250.082,182.952 256.172,182.952C262.262,182.952 267.216,187.907 267.216,193.996C267.216,197.034 269.679,199.496 272.716,199.496C275.753,199.496 278.216,197.034 278.216,193.996C278.216,181.841 268.327,171.952 256.172,171.952Z" style="fill:rgb(28,49,94);fill-rule:nonzero;"/>
        </g>
        <path d="M342.644,102.536L340.395,102.536C328.22,73.191 308.051,48.098 281.829,29.806C253.877,10.307 221.025,0 186.824,0C152.623,0 119.771,10.307 91.82,29.805C65.599,48.097 45.43,73.191 33.255,102.535L30.999,102.535C13.906,102.535 0,116.441 0,133.534L0,192.327C0,209.42 13.906,223.326 30.999,223.326L36.561,223.326C47.978,223.326 57.967,217.117 63.345,207.902C69.671,226.727 80.27,243.93 94.538,258.209L84.801,258.209C73.516,258.209 64.334,267.39 64.334,278.676L64.334,284.892C64.334,298.294 69.918,310.409 78.871,319.059C78.162,319.738 77.459,320.424 76.765,321.118C51.217,346.666 37.147,380.633 37.147,416.759C37.147,419.797 39.61,422.259 42.647,422.259L331.001,422.259C334.038,422.259 336.501,419.797 336.501,416.759C336.501,379.677 321.383,344.526 294.766,319.064C303.722,310.415 309.308,298.297 309.308,284.893L309.308,278.677C309.308,267.391 300.126,258.21 288.841,258.21L279.1,258.21C293.369,243.929 303.968,226.725 310.295,207.898C315.673,217.115 325.663,223.327 337.083,223.327L342.645,223.327C359.738,223.327 373.644,209.421 373.644,192.328L373.644,133.535C373.643,116.441 359.736,102.536 342.644,102.536ZM56.559,166.027C56.559,166.104 56.556,166.181 56.556,166.258C56.556,166.328 56.559,166.397 56.559,166.467L56.559,192.328C56.559,203.355 47.588,212.327 36.561,212.327L30.999,212.327C19.972,212.327 11,203.356 11,192.328L11,133.535C11,122.508 19.972,113.536 30.999,113.536L36.561,113.536C47.588,113.536 56.559,122.507 56.559,133.535L56.559,166.027ZM75.335,284.893L75.335,278.677C75.335,273.457 79.582,269.21 84.802,269.21L139.927,269.21C156.952,269.21 170.804,283.061 170.804,300.086L170.804,311.959C170.804,317.179 166.557,321.426 161.337,321.426L111.867,321.426C91.724,321.426 75.335,305.037 75.335,284.893ZM181.409,411.259L48.267,411.259C48.84,397.998 51.493,385.113 56.055,372.974L181.409,372.974L181.409,411.259ZM181.41,361.974L60.812,361.974C66.764,349.877 74.73,338.709 84.543,328.896C85.589,327.851 86.658,326.827 87.738,325.822C94.816,330.011 103.063,332.426 111.867,332.426L161.337,332.426C164.761,332.426 167.986,331.571 170.826,330.077C171.005,336.836 175.362,342.558 181.41,344.766L181.41,361.974ZM186.91,334.753C184.095,334.753 181.805,332.462 181.805,329.648C181.804,329.648 181.739,297.628 181.634,296.419C183.35,296.486 190.297,296.486 192.009,296.419C191.904,297.628 192.014,329.648 192.014,329.648C192.014,332.463 189.724,334.753 186.91,334.753ZM325.38,411.259L192.409,411.259L192.409,372.974L317.542,372.974C322.114,385.123 324.798,398.025 325.38,411.259ZM312.79,361.974L192.409,361.974L192.409,344.766C198.431,342.567 202.775,336.883 202.988,330.16C205.787,331.599 208.949,332.427 212.306,332.427L261.775,332.427C270.579,332.427 278.826,330.012 285.904,325.823C297.112,336.251 306.178,348.519 312.79,361.974ZM288.841,269.209C294.061,269.209 298.308,273.456 298.308,278.676L298.308,284.892C298.308,305.037 281.919,321.425 261.775,321.425L212.306,321.425C207.086,321.425 202.839,317.178 202.839,311.958L202.839,300.085C202.839,283.06 216.69,269.209 233.715,269.209L288.841,269.209ZM262.753,258.209L233.715,258.209C215.838,258.209 200.55,269.473 194.553,285.273C189.487,285.6 184.165,285.6 179.089,285.273C173.092,269.473 157.804,258.209 139.927,258.209L110.885,258.209C85.016,236.843 69.534,206.1 67.736,172.8C124.055,170.368 171.214,132.016 186.825,80.135C202.435,132.016 249.589,170.368 305.903,172.8C304.105,206.101 288.623,236.843 262.753,258.209ZM67.648,161.797C69.934,99.956 119.532,49.997 181.233,47.135C178.946,108.971 129.348,158.931 67.648,161.797ZM192.416,47.135C254.111,49.998 303.704,99.956 305.99,161.797C244.296,158.931 194.702,108.97 192.416,47.135ZM308.864,120.726C290.36,71.29 242.639,36 186.824,36C131.007,36 83.282,71.288 64.776,120.722C60.995,112.428 53.667,106.083 44.738,103.638C56.221,77.573 74.552,55.263 98.113,38.827C124.21,20.623 154.886,11 186.824,11C218.762,11 249.438,20.623 275.535,38.827C299.096,55.263 317.427,77.572 328.91,103.637C319.977,106.081 312.645,112.429 308.864,120.726ZM362.644,192.328C362.643,203.355 353.671,212.327 342.644,212.327L339.528,212.327C339.397,212.318 338.866,212.318 338.735,212.327L337.083,212.327C326.056,212.327 317.084,203.356 317.084,192.328L317.084,133.535C317.084,122.508 326.056,113.536 337.083,113.536L342.645,113.536C353.672,113.536 362.644,122.507 362.644,133.535L362.644,192.328Z" style="fill:rgb(28,49,94);fill-rule:nonzero;"/>
    </g>
</svg>
