<?xml version="1.0" encoding="utf-8"?>
<!-- Generator: Adobe Illustrator 22.0.1, SVG Export Plug-In . SVG Version: 6.00 Build 0)  -->
<svg version="1.1" id="Capa_1" xmlns:serif="http://www.serif.com/"
	 xmlns="http://www.w3.org/2000/svg" xmlns:xlink="http://www.w3.org/1999/xlink" x="0px" y="0px" viewBox="0 0 640.8 531.4"
	 style="enable-background:new 0 0 640.8 531.4;" xml:space="preserve">
<style type="text/css">
	.st0{fill:#353535;}
	.st1{fill:#F0F1F1;}
	.st2{fill:#7AD7C5;}
	.st3{fill:#80E3AD;}
	.st4{fill-opacity:0.1;}
	.st5{fill:#1C315E;}
	.st6{fill-opacity:5.000000e-02;}
	.st7{fill:#C1CFE8;}
	.st8{fill:none;stroke:#7EE5AF;stroke-width:3.0036;stroke-miterlimit:10;}
</style>
<g>
	<rect x="317.5" y="393.5" class="st0" width="17" height="96.6"/>
</g>
<g>
	<path class="st1" d="M33.9,74.7V449h217.3h162.4h188.2V74.7H33.9z"/>
</g>
<path class="st2" d="M206.6,264.8v91.9c50.8,0,88.6-41.1,88.6-91.9H206.6z"/>
<g>
	<path class="st3" d="M191.3,345.5c2.2,0,4.3-0.2,6.5-0.3V281v-25.8h25.8h64.2c0.1-2.1,0.3-4.3,0.3-6.5c0-53.4-43.4-96.8-96.8-96.8
		c-53.4,0-96.8,43.4-96.8,96.8C94.5,302.1,137.9,345.5,191.3,345.5z"/>
</g>
<rect x="395.3" y="165" class="st4" width="103.3" height="30.2"/>
<rect x="395.3" y="221" class="st4" width="77.4" height="30.2"/>
<rect x="395.3" y="277" class="st4" width="90.4" height="30.2"/>
<polygon class="st5" points="292.1,5.7 20.7,5.7 20.7,74.7 619.4,74.7 619.4,5.7 343.7,5.7 "/>
<polygon class="st5" points="292.1,429.7 20.7,429.7 20.7,460.6 619.4,460.6 619.4,429.7 343.7,429.7 "/>
<polygon class="st4" points="292.1,5.7 20.7,5.7 20.7,41.9 619.4,41.9 619.4,5.7 343.7,5.7 "/>
<polygon class="st1" points="13.6,0.3 24.9,0.3 24.9,80.1 0,80.1 0,0.3 11.5,0.3 "/>
<polygon class="st1" points="627.4,0.3 638.7,0.3 638.7,80.1 613.8,80.1 613.8,0.3 625.2,0.3 "/>
<polygon class="st6" points="13.6,0.3 24.9,0.3 24.9,41.9 0,41.9 0,0.3 11.5,0.3 "/>
<polygon class="st6" points="627.4,0.3 638.7,0.3 638.7,41.9 613.8,41.9 613.8,0.3 625.2,0.3 "/>
<g>
	<path class="st7" d="M33.9,74.7v16.1h217.3h162.4h188.2V74.7H33.9z"/>
</g>
<polygon class="st4" points="292.1,429.7 20.7,429.7 20.7,446.1 619.4,446.1 619.4,429.7 343.7,429.7 "/>
<path class="st8" d="M306.2,508.6c0-11.8,9.5-21.3,21.3-21.3c11.8,0,21.3,9.5,21.3,21.3c0,11.8-9.5,21.3-21.3,21.3
	C315.7,529.9,306.2,520.3,306.2,508.6z"/>
<path class="st6" d="M629.5,0h-2.1h-11.5v5.4H345.8h-15.2v524.1c11.3-0.5,20.3-9.8,20.3-21.3c0-9.3-5.9-17.1-14.2-20.1v-27.9h284.8
	v-14.5v-16.4h-17.5V90.6V74.5h11.9v5.4h24.9V41.6V0H629.5z"/>
</svg>
