<?xml version="1.0" encoding="UTF-8" standalone="no"?>
<!DOCTYPE svg PUBLIC "-//W3C//DTD SVG 1.1//EN" "http://www.w3.org/Graphics/SVG/1.1/DTD/svg11.dtd">
<svg width="100%" height="100%" viewBox="0 0 300 80" version="1.1" xmlns="http://www.w3.org/2000/svg" xmlns:xlink="http://www.w3.org/1999/xlink" xml:space="preserve" xmlns:serif="http://www.serif.com/" style="fill-rule:evenodd;clip-rule:evenodd;stroke-linejoin:round;stroke-miterlimit:1.41421;">
    <g transform="matrix(1.05115,0,0,1,1,11.7421)">
        <path d="M123.9,40.4C123.9,42.4 122.4,43.8 119.9,43.8L114.6,43.8L114.6,37L119.8,37C122.3,36.9 123.9,38.1 123.9,40.4ZM129.9,56L124.1,47.5C127.1,46.4 129.2,44 129.2,40.1L129.2,40C129.2,35.1 125.8,32.1 120.2,32.1L109.3,32.1L109.3,56L114.5,56L114.5,48.4L118.6,48.4L123.7,56L129.9,56ZM98.2,44.2C98.2,48.3 95.3,51.6 91,51.6C86.8,51.6 83.8,48.2 83.8,44.1L83.8,44C83.8,39.9 86.7,36.6 91,36.6C95.2,36.6 98.2,40 98.2,44.2ZM103.6,44.1C103.6,37.3 98.3,31.8 91,31.8C83.6,31.8 78.3,37.3 78.3,44.1L78.3,44.2C78.3,51 83.6,56.5 90.9,56.5C98.3,56.4 103.6,50.9 103.6,44.1M74.8,52.2L71.5,48.8C69.6,50.5 68,51.6 65.2,51.6C61.1,51.6 58.3,48.2 58.3,44.1L58.3,44C58.3,39.9 61.2,36.6 65.2,36.6C67.6,36.6 69.5,37.6 71.3,39.3L74.6,35.5C72.4,33.3 69.7,31.8 65.2,31.8C57.9,31.8 52.8,37.3 52.8,44.1L52.8,44.2C52.8,51 58,56.5 65,56.5C69.7,56.4 72.4,54.8 74.8,52.2M49.4,52.2L46,48.8C44.1,50.5 42.5,51.6 39.7,51.6C35.6,51.6 32.8,48.2 32.8,44.1L32.8,44C32.8,39.9 35.7,36.6 39.7,36.6C42.1,36.6 44,37.6 45.8,39.3L49.1,35.5C46.9,33.3 44.2,31.8 39.7,31.8C32.4,31.8 27.3,37.3 27.3,44.1L27.3,44.2C27.3,51 32.5,56.5 39.5,56.5C44.2,56.4 46.9,54.8 49.4,52.2M15.7,46.1L9.4,46.1L12.6,38.4L15.7,46.1ZM25.3,56L15.1,32L10.3,32L0,56L5.3,56L7.5,50.7L17.6,50.7L19.8,56L25.3,56Z" style="fill:rgb(159,159,159);fill-rule:nonzero;"/>
        <path d="M123.3,20.5C123.3,20.8 124.6,20.8 126,20.8C131,20.8 136,20.4 140.8,19.2C147.1,17.7 148.8,15.5 152.3,13.5C159.5,9.4 168.6,10.2 168.6,9.5C168.6,9.3 168.5,9.3 165.9,8.6C165.7,7.6 164.4,7 163.2,7C160.2,7 155.4,10.4 151.1,10.4C150.6,10.4 150.2,10.3 149.7,10.3C147.9,7 143.9,4.1 139,3.5C136.1,3.1 134.1,2.8 132.5,2.5C126.8,1.5 125.3,0 124.6,0C124.5,0 124.4,0.1 124.4,0.2C124.4,1.3 126.4,4.4 129.5,7.9C131.5,10.2 134.9,13.5 134.9,15C134.9,15.9 133,16.9 129.4,18.5C125.1,20.3 123.3,20.3 123.3,20.5" style="fill:rgb(207,206,206);fill-rule:nonzero;"/>
        <path d="M283.5,49C283.5,44.8 280.8,43 275.9,41.8C271.8,40.7 270.8,40.2 270.8,38.7L270.8,38.6C270.8,37.4 271.9,36.5 273.9,36.5C275.9,36.5 278,37.4 280.1,38.8L282.8,34.9C280.4,33 277.4,31.9 273.9,31.9C269,31.9 265.6,34.8 265.6,39.1L265.6,39.2C265.6,43.9 268.7,45.3 273.5,46.5C277.5,47.5 278.3,48.2 278.3,49.5L278.3,49.6C278.3,51 277,51.8 274.9,51.8C272.2,51.8 269.9,50.7 267.8,48.9L264.7,52.6C267.6,55.2 271.2,56.4 274.8,56.4C279.9,56.4 283.5,53.7 283.5,49M261.3,56L261.3,51.2L250.5,51.2L250.5,32.2L245.3,32.2L245.3,56L261.3,56ZM239.6,56L239.6,51.3L226.7,51.3L226.7,46.3L237.9,46.3L237.9,41.6L226.7,41.6L226.7,36.8L239.5,36.8L239.5,32.1L221.5,32.1L221.5,56L239.6,56ZM216.4,37L216.4,32.2L196.7,32.2L196.7,37L204,37L204,56L209.2,56L209.2,37L216.4,37ZM188.2,44.2C188.2,48.3 185.3,51.6 181,51.6C176.8,51.6 173.8,48.2 173.8,44.1L173.8,44C173.8,39.9 176.7,36.6 181,36.6C185.2,36.6 188.2,40 188.2,44.2ZM193.7,44.1C193.7,37.3 188.4,31.8 181.1,31.8C173.7,31.8 168.4,37.3 168.4,44.1L168.4,44.2C168.4,51 173.7,56.5 181,56.5C188.3,56.4 193.7,50.9 193.7,44.1M162.7,56L162.7,32.2L157.5,32.2L157.5,41.6L145.6,41.6L145.6,32.2L140.4,32.2L140.4,56L145.6,56L145.6,46.4L157.5,46.4L157.5,56L162.7,56Z" style="fill:rgb(159,159,159);fill-rule:nonzero;"/>
    </g>
</svg>
