<?xml version="1.0" encoding="UTF-8" standalone="no"?>
<!DOCTYPE svg PUBLIC "-//W3C//DTD SVG 1.1//EN" "http://www.w3.org/Graphics/SVG/1.1/DTD/svg11.dtd">
<svg width="100%" height="100%" viewBox="0 0 300 80" version="1.1" xmlns="http://www.w3.org/2000/svg" xmlns:xlink="http://www.w3.org/1999/xlink" xml:space="preserve" xmlns:serif="http://www.serif.com/" style="fill-rule:evenodd;clip-rule:evenodd;stroke-linejoin:round;stroke-miterlimit:1.41421;">
    <g transform="matrix(0.886775,0,0,0.886775,5.5,15.9605)">
        <path d="M281.1,12.9C281.2,12.8 281.2,12.8 281.3,12.8C282.7,12.8 284.2,12.7 285.6,12.9C287,13.1 288.5,13.8 288.8,15.6C288.8,15.8 288.9,16 289,16.2C289,16.4 289.1,16.5 289.3,16.3C290.1,15.4 290.9,14.6 291.9,14C293.3,13.1 294.7,12.6 296.3,12.3C297.4,12.2 298.5,12.2 299.6,12.4C302.4,12.8 304.5,14.3 305.8,16.8C306.1,17.4 306.1,17.4 306.6,16.9C307.8,15.4 309.2,14.2 310.9,13.4C312,12.9 313.3,12.5 314.5,12.3C315.7,12.1 316.8,12.2 317.9,12.3C321.2,12.8 323.7,14.5 324.9,17.7C325.4,19 325.6,20.3 325.8,21.7C325.8,21.8 325.8,21.8 325.9,21.9C325.9,28.8 325.9,35.8 325.9,42.7C324.5,42.7 323,42.7 321.6,42.7C320.4,42.7 319.3,42.4 318.5,41.5C317.9,40.8 317.7,40 317.7,39.1C317.7,34.6 317.7,30.1 317.7,25.6C317.7,24.5 317.7,23.4 317.4,22.3C317.1,21 316.3,20 314.7,19.9C312.2,19.8 310.5,21 309.2,22.9C308.4,24.1 308,25.4 307.8,26.7C307.6,27.7 307.5,28.8 307.5,29.8C307.5,33.9 307.5,38.1 307.5,42.2C307.5,42.6 307.4,42.6 307,42.6C304.6,42.6 302.1,42.6 299.7,42.6C299.4,42.6 299.3,42.6 299.3,42.2C299.3,36.5 299.3,30.8 299.3,25.1C299.3,24 299.2,22.8 298.7,21.7C298,20.2 296.7,19.6 295.2,19.7C293.5,19.8 292.2,20.7 291.3,22.1C290.4,23.3 289.9,24.7 289.5,26.1C289.2,27.5 289.1,28.8 289.1,30.2C289.1,34.2 289.1,38.1 289.1,42.1C289.1,42.5 289,42.5 288.7,42.5C286.3,42.5 283.8,42.5 281.4,42.5C281.1,42.5 281,42.4 281,42.1L281,30.7C281.1,30.8 281.1,30.8 281.1,30.9C281.1,34.7 281.1,38.4 281.1,42.2C281.1,42.3 281.2,42.2 281.1,42.2L281.1,12.9Z" style="fill:rgb(207,206,206);"/>
        <path d="M133.6,0C134.2,0.2 134.8,0.3 135.3,0.7C137.1,1.7 138.1,3.8 137.7,5.9C137.4,7.9 135.8,9.5 133.8,9.9C131,10.5 128.4,8.7 127.9,5.9C127.4,3.2 129.2,0.7 131.8,0.1C131.9,0.1 132,0.1 132,0C132.6,0 133.1,0 133.6,0Z" style="fill:rgb(159,159,159);"/>
        <path d="M126.4,42.7C123.7,42.6 121.1,42.8 118.5,42.6C117,42.5 115.9,41.8 115.2,40.6C114.4,39.2 113.7,37.8 112.9,36.4C112,34.7 111,32.9 110.1,31.2C109.8,30.7 109.5,30.5 108.9,30.4C108.5,30.4 108.1,30.3 107.8,30.3C107.2,30.3 107.3,30.2 107.3,30.8L107.3,42.4C107.3,42.6 107.3,42.7 107,42.7C104.3,42.7 101.7,42.7 99,42.7C98.8,42.7 98.7,42.6 98.7,42.4L98.7,1.9C98.7,1.3 98.6,1.4 99.2,1.4C100.8,1.4 102.3,1.3 103.9,1.5C105.7,1.6 106.8,2.4 107.2,4C107.3,4.5 107.4,5.1 107.4,5.6C107.4,11.2 107.4,16.8 107.4,22.4C107.4,22.9 107.4,22.9 108,22.9C108.4,22.9 108.9,22.9 109.3,22.9C110,22.8 110.6,22.6 111,21.9C112.9,19 114.7,16.1 116.6,13.2C116.7,13 116.9,12.9 117.1,12.9L126.4,12.9C126.2,13.3 125.9,13.6 125.7,13.9C123.3,17.5 120.8,21.2 118.4,24.8C118,25.4 117.6,25.9 117.1,26.4C117,26.5 116.9,26.6 117,26.7C118.1,27.8 118.7,29.2 119.4,30.6C121.3,34.4 123.5,37.9 125.7,41.5C125.9,41.8 126.2,42.2 126.4,42.7Z" style="fill:rgb(159,159,159);"/>
        <path d="M150.7,16.1C151.2,15.6 151.6,15.1 152.1,14.7C154.2,13 156.5,12.2 159.2,12C161,11.9 162.8,12.1 164.5,12.7C167.2,13.7 168.9,15.7 169.8,18.5C170.3,20 170.5,21.6 170.5,23.2L170.5,42C170.5,42.6 170.6,42.5 170,42.5C168.5,42.5 167.1,42.6 165.6,42.4C163.3,42.2 162,40.9 161.9,38.6C161.8,36.4 161.9,34.2 161.9,32C161.9,29.5 161.9,27 161.9,24.6C161.9,23.9 161.8,23.1 161.6,22.4C161.2,20.8 160.1,20 158.5,19.9C155.2,19.8 152.2,21.7 151.2,25.7C151,26.7 150.8,27.6 150.8,28.6C150.8,33.1 150.8,37.5 150.8,42C150.8,42.4 150.7,42.5 150.3,42.5C147.7,42.5 145.2,42.5 142.6,42.5C142.3,42.5 142.2,42.4 142.2,42.1L142.2,12.9C142.2,12.7 142.2,12.6 142.4,12.6C143.9,12.6 145.4,12.5 147,12.7C148.7,12.9 150.1,13.7 150.5,15.7C150.6,15.9 150.6,16 150.7,16.1Z" style="fill:rgb(159,159,159);"/>
        <path d="M244.5,20.7C244.5,21.4 244.5,22.1 244.5,22.8C244.5,23 244.5,23.1 244.2,23.1C242.8,23.1 241.5,23.1 240.1,23.1C238.6,23.1 237.5,22.3 237.1,20.7C236.9,20.1 236.4,19.8 235.8,19.6C232.9,18.6 229.5,19.5 227.5,21.9C226.7,22.9 226.1,24.1 225.8,25.3C225.5,26.7 225.4,28.1 225.7,29.5C226.2,32 227.6,33.9 229.9,35C231.6,35.8 233.5,36.1 235.4,35.8C237.3,35.5 239,34.7 240.5,33.5C241.2,33 241.8,32.5 242.3,31.9C242.4,31.7 242.5,31.7 242.6,31.9C243.7,33.7 244.8,35.5 245.9,37.3C246,37.5 246,37.7 245.8,37.8C244.8,39 243.6,39.9 242.3,40.7C240.9,41.6 239.3,42.2 237.7,42.6C235.4,43.2 233.2,43.3 230.8,43C228.3,42.7 226.1,41.9 224,40.6C221.3,38.8 219.3,36.4 218.2,33.4C217.5,31.4 217.1,29.3 217.2,27.2C217.3,23.1 218.7,19.5 221.7,16.5C223.4,14.8 225.5,13.6 227.8,12.9C229.5,12.4 231.2,12.1 233,12C235.4,11.9 237.7,12.3 239.9,13.2C241.5,13.9 243,14.9 243.8,16.5C244.2,17.3 244.4,18.1 244.4,18.9C244.5,19.6 244.5,20.2 244.5,20.7L244.5,20.7Z" style="fill:rgb(207,206,206);"/>
        <path d="M128.9,27.7C128.9,22.8 128.9,18 128.9,13.1C128.9,12.9 128.8,12.7 129.2,12.7C130.8,12.7 132.3,12.6 133.9,12.8C136,13 137.2,14.3 137.4,16.3C137.4,16.7 137.5,17.1 137.5,17.4C137.5,25.6 137.5,33.9 137.5,42.1C137.5,42.4 137.4,42.5 137.1,42.5C134.5,42.5 132,42.5 129.4,42.5C129,42.5 129,42.4 129,42.1C128.9,37.4 128.9,32.5 128.9,27.7L128.9,27.7Z" style="fill:rgb(159,159,159);"/>
        <path d="M211,43C208.4,43.1 206,40.8 206,38C206,35.2 208.3,33 211,33C213.7,33 216,35.3 216,38C216,40.7 213.7,43.1 211,43Z" style="fill:rgb(207,206,206);"/>
        <path d="M202.6,41.2C202.5,41 202.6,40.7 202.6,40.5C202.6,31.4 202.6,22.4 202.6,13.3C202.6,12.8 202.6,12.8 202,12.8C200.8,12.8 199.5,12.8 198.3,12.8C198.4,12.7 198.5,12.7 198.7,12.7C199.9,12.7 201.1,12.7 202.4,12.7C202.7,12.7 202.8,12.7 202.8,13C202.8,22.2 202.8,31.4 202.8,40.6C202.7,40.8 202.6,41 202.6,41.2Z" style="fill:rgb(17,49,93);"/>
        <path d="M281.1,12.9C281.1,22.8 281.1,32.6 281.1,42.6C281,42.4 281,42.2 281,42.1L281,13.5C281,13.3 281,13.1 281.1,12.9Z" style="fill:rgb(207,206,206);"/>
        <g>
            <path d="M23.4,21.2C23.1,21 22.8,20.9 22.5,20.7C22.7,20.5 22.9,20.4 23.1,20.2C23.8,19.6 24.4,19.1 24.9,18.4C26.5,16.3 27.1,13.9 26.9,11.4C26.7,7.7 25,4.9 21.7,3.1C19.4,1.8 16.9,1.4 14.4,1.3C11,1.3 7.6,1.3 4.2,1.3C2.8,1.3 1.7,1.9 0.8,3C0.4,3.5 0.2,4.2 0,5C0,17.5 0,30 0,42.5L14.5,42.5C16.5,42.5 18.5,42.2 20.4,41.6C23.2,40.6 25.6,39 27,36.3C28.5,33.7 28.8,30.8 28.2,27.9C27.7,24.9 26.1,22.7 23.4,21.2ZM7.9,14.1C7.9,13 7.9,11.8 7.9,10.7C8,9 8.8,8.2 10.4,8.1C12,8 13.6,7.9 15.1,8.2C17.1,8.5 18.3,9.7 18.7,11.7C19,13.4 18.8,15 17.7,16.4C16.8,17.5 15.6,18 14.2,18C12.2,18 10.2,18 8.2,18C7.9,18 7.9,17.9 7.9,17.6C8,16.4 7.9,15.2 7.9,14.1ZM19.2,33.6C18.2,34.9 16.8,35.4 15.2,35.4C12.9,35.4 10.5,35.4 8.2,35.4C7.9,35.4 7.9,35.3 7.9,35.1L7.9,26.8C7.9,25.1 8.9,24.3 10.5,24.3C12,24.3 13.5,24.3 14.9,24.3C16.8,24.3 18.4,25 19.5,26.7C20.8,28.7 20.6,31.8 19.2,33.6Z" style="fill:rgb(159,159,159);fill-rule:nonzero;"/>
            <path d="M202.3,12.7L198.4,12.7C196.8,12.7 195.8,13.5 195.1,14.9C194.5,14.4 193.9,13.9 193.2,13.5C190.6,12.1 187.8,11.7 184.9,12.1C179.9,12.8 176.5,15.6 174.7,20.3C173.2,24.2 173.2,28.1 174.3,32.1C175.1,34.8 176.4,37.1 178.6,38.9C181.3,41.2 184.4,42 187.9,41.9C190.2,41.8 192.3,41.2 194.1,39.7C194.1,39.7 194.2,39.6 194.3,39.6C194.3,40.1 194.3,40.7 194.3,41.2C194.1,43.3 193.1,44.8 191.2,45.7C189.1,46.7 186.9,46.6 184.7,46.3C183.5,46.1 182.3,45.7 181.1,45.4C179.6,45 178.7,45.4 178,46.8C177.9,46.9 177.9,47.1 177.8,47.2C177.3,48.5 176.8,49.8 176.3,51C176.2,51.3 176.2,51.4 176.5,51.5C178.7,52.7 181,53.4 183.5,53.9C184.2,54 184.9,54.1 185.6,54.2C186.7,54.2 187.8,54.2 188.8,54.2C188.9,54.1 188.9,54.1 189,54.1C190,54 191.1,53.9 192.1,53.6C194.8,52.9 197.2,51.8 199.1,49.9C201.5,47.5 202.7,44.5 202.8,41.1L202.8,13C202.7,12.8 202.6,12.7 202.3,12.7ZM193.7,31C192.9,33.2 191.1,34.5 188.7,34.5C185.7,34.5 183.7,33.1 182.7,30.3C181.9,27.8 181.9,25.4 182.8,22.9C183.7,20.7 185.3,19.6 187.7,19.5C188.9,19.5 190.1,19.6 191.3,20.1C192.8,20.9 193.6,22.3 194,23.9C194.2,24.9 194.3,25.9 194.3,27C194.3,28.4 194.2,29.7 193.7,31Z" style="fill:rgb(159,159,159);fill-rule:nonzero;"/>
            <path d="M277.6,23.6C277.3,22.3 276.8,21.1 276.2,20C274.9,17.5 273,15.5 270.5,14.2C268.6,13.1 266.5,12.5 264.3,12.3C262.8,12.1 261.3,12.2 259.8,12.4C258.2,12.6 256.7,13.1 255.2,13.8C252.7,15 250.7,16.8 249.2,19.1C247.5,21.7 246.8,24.6 246.8,27.7C246.8,28.5 246.8,29.2 246.9,30C247.1,31.7 247.6,33.3 248.4,34.9C249.5,37.2 251.1,39.1 253.2,40.5C255.5,42 258,42.9 260.7,43.1C263.4,43.4 266.1,43 268.6,42C271.1,41 273.1,39.5 274.8,37.4C276,35.9 276.8,34.3 277.3,32.5C277.6,31.3 277.8,30.1 278,28.9C278.2,27.1 278,25.4 277.6,23.6ZM269.7,27.4C269.7,29.6 269.3,31.4 268.1,33C267.1,34.3 265.9,35.2 264.2,35.6C262.6,36 261,35.9 259.4,35.2C257.9,34.5 256.8,33.3 256,31.8C255.3,30.4 255,28.8 255.1,27.3C255.2,25 255.8,22.9 257.6,21.2C259.2,19.7 261,19.2 263.1,19.4C266.1,19.7 268,21.5 269,24.2C269.5,25.4 269.7,26.5 269.7,27.4Z" style="fill:rgb(207,206,206);fill-rule:nonzero;"/>
            <path d="M87.4,13.8C83.3,11.8 79,11.6 74.7,13C70.3,14.4 67.2,17.3 65.5,21.7C64.3,24.7 64.1,27.9 64.7,31C65.4,34.7 67.2,37.7 70.2,40C73.1,42.2 76.4,43.1 79.9,43.1C81.3,43.1 82.6,43 83.9,42.7C88.4,41.6 91.9,39 94,34.8C95.7,31.4 96,27.8 95.2,24C94.2,19.4 91.6,15.9 87.4,13.8ZM87.2,27.7C87.2,29.8 86.7,31.7 85.4,33.3C83.9,35.2 81.9,35.9 79.5,35.8C76.2,35.7 73.6,33.3 72.9,29.8C72.4,27.3 72.6,24.9 74,22.6C75.5,20.1 78.1,19 80.9,19.4C84.1,19.8 85.9,21.8 86.8,24.8C87.2,25.8 87.3,26.7 87.2,27.7Z" style="fill:rgb(159,159,159);fill-rule:nonzero;"/>
            <path d="M54,13.8C50.3,12 46.4,11.6 42.5,12.6C37.8,13.7 34.3,16.5 32.3,20.9C31,23.9 30.7,27 31.1,30.2C31.6,33.7 33.1,36.7 35.8,39.1C38.8,41.9 42.5,43 46.5,43C48.1,43 49.6,42.8 51.1,42.4C55.5,41.2 58.7,38.5 60.7,34.4C62.2,31.1 62.5,27.7 61.8,24.2C60.9,19.5 58.3,16 54,13.8ZM52.7,32.3C51.5,34.4 49.7,35.6 47.2,35.8C43.3,36.1 40.4,33.6 39.6,30C39.5,29.7 39.5,29.4 39.4,29.2C39.3,28.7 39.3,28.2 39.3,27.6C39.3,25.5 39.8,23.5 41.2,21.9C42.9,19.9 45,19.2 47.5,19.5C50.3,19.9 52.2,21.5 53.2,24.2C54.2,26.9 54.1,29.7 52.7,32.3Z" style="fill:rgb(159,159,159);fill-rule:nonzero;"/>
        </g>
    </g>
</svg>
