<?xml version="1.0" encoding="UTF-8" standalone="no"?>
<!DOCTYPE svg PUBLIC "-//W3C//DTD SVG 1.1//EN" "http://www.w3.org/Graphics/SVG/1.1/DTD/svg11.dtd">
<svg width="100%" height="100%" viewBox="0 0 300 80" version="1.1" xmlns="http://www.w3.org/2000/svg" xmlns:xlink="http://www.w3.org/1999/xlink" xml:space="preserve" xmlns:serif="http://www.serif.com/" style="fill-rule:evenodd;clip-rule:evenodd;stroke-linejoin:round;stroke-miterlimit:1.41421;">
    <g transform="matrix(0.939171,0,0,0.939171,14.8314,1.00694)">
        <g transform="matrix(0.907172,0,0,0.907172,0,-0.00146691)">
            <path d="M263.7,0C263.7,0 317,-2 317.3,39C317.6,80.4 262.8,75.2 258.4,74.4C253.9,73.6 252.7,74.1 251.1,76.2C248.9,79.3 262.4,97.4 284.4,89.6C301.2,83.7 306.8,77.4 306.8,77.4C306.8,77.4 287.4,88.1 275,88.1C259.5,88.2 249.6,75.1 251,68.3C252.6,60.5 256.1,59.6 261.6,60.6C267.1,61.6 286.2,67.9 299.8,58C311.6,49.3 315,28.8 302.5,16.6C285.5,-0.1 263.7,0 263.7,0Z" style="fill:rgb(239,239,238);fill-rule:nonzero;"/>
            <path d="M217.9,29.9C217.9,29.9 233.9,9.2 250.9,7.7C267.9,6.2 277.5,9.7 275.6,11.8C273.8,13.8 247.2,17.5 236.6,35.8C227,52.3 231.5,66.1 231.5,66.1C231.5,66.1 231,51 236.2,42.5C239.8,36.6 247.1,29 253.7,25.2C258,22.8 254.5,19.9 246.9,20.7C239.3,21.5 233.8,27.2 232.8,25.4C231.8,23.6 236.9,19.3 234,19.5C231.1,19.7 225.9,22.6 217.9,29.9Z" style="fill:rgb(159,159,159);fill-rule:nonzero;"/>
            <path d="M229.7,15.1C229.7,15.1 257.1,-6.3 286.6,7.4C316.1,21.1 308.5,58.6 294.1,51C288.4,48 290.3,30 264.6,31.1C239,32.2 233.7,55.9 236.6,65C238.2,70 240.5,74.5 243.5,78.2C246,81.3 248.9,83.9 252.3,85.8C259.6,90 261.9,90.3 261.9,90.3C261.9,90.3 249.7,87.5 241.6,72.8C237.1,64.7 235.7,50.1 252.8,38.9C269.9,27.7 273.7,35.2 278.6,26.7C283.5,18.2 282.9,19.4 286.5,18.6C290.1,17.8 290,11.9 282.8,9.3C275.6,6.7 272,4.5 258,4.9C243.9,5.3 229.7,15.1 229.7,15.1Z" style="fill:rgb(207,206,206);fill-rule:nonzero;"/>
            <g>
                <path d="M11.9,55L11.5,57.4C11.1,57.3 10.7,57.2 10.4,57.2C10,57.2 9.6,57.2 9.2,57.2L6.7,57.2L4.6,68.3C4.4,69.6 4.2,70.7 4,71.7C3.8,72.7 3.8,73.4 3.7,73.9L1.5,73.9C1.7,73.4 1.9,72.6 2.1,71.7C2.3,70.7 2.5,69.6 2.8,68.3L4.9,57.2L2.5,57.2C2.1,57.2 1.6,57.2 1.2,57.2C0.8,57.2 0.4,57.3 0,57.4L0.4,55L11.9,55Z" style="fill:rgb(159,159,159);fill-rule:nonzero;"/>
                <path d="M18.1,73.9C18.1,73.6 18,73.3 18,72.9C18,72.6 18,72.4 18,72.1C18,71.8 18,71.5 18.1,71.2C18.1,70.9 18.2,70.6 18.2,70.3C18.3,69.9 18.3,69.6 18.4,69.2C18.5,68.8 18.5,68.4 18.6,68C18.7,67.6 18.7,67.2 18.8,66.8C18.9,66.4 18.9,66.1 19,65.8C19,65.5 19.1,65.2 19.1,65C19.1,64.2 19,63.6 18.8,63.3C18.6,62.9 18.3,62.8 17.8,62.8C17.6,62.8 17.4,62.9 17.1,63C16.8,63.2 16.6,63.4 16.3,63.7C16,64 15.7,64.3 15.5,64.7C15.2,65.1 15,65.5 14.7,65.9C14.4,66.3 14.2,66.8 14,67.2C13.8,67.7 13.6,68.1 13.4,68.6L12.4,74L10.6,74L13.3,59.4C13.4,58.9 13.5,58.4 13.6,57.8C13.7,57.2 13.8,56.7 13.8,56.1C13.9,55.5 13.9,55 13.9,54.5C13.9,54 14,53.6 14,53.2L15.9,53.2C15.9,53.5 15.9,53.9 15.8,54.4C15.8,54.9 15.7,55.4 15.6,56C15.5,56.6 15.5,57.1 15.4,57.7C15.3,58.3 15.2,58.8 15.1,59.4L14.1,64.4C14.4,63.9 14.7,63.4 15.1,62.9C15.5,62.4 15.8,62 16.2,61.7C16.6,61.3 17,61 17.4,60.8C17.8,60.6 18.2,60.5 18.7,60.5C19.5,60.5 20.1,60.8 20.5,61.5C20.9,62.1 21.1,63 21.1,64.2C21.1,64.4 21.1,64.7 21,65.1C21,65.5 20.9,65.9 20.8,66.3C20.7,66.7 20.6,67.2 20.5,67.6C20.4,68.1 20.3,68.5 20.2,68.9C20.1,69.3 20,69.7 20,70C19.9,70.3 19.9,70.6 19.9,70.8C19.9,71.1 19.8,71.4 19.8,71.7C19.8,72 19.8,72.3 19.8,72.6C19.8,73.1 19.8,73.6 19.9,73.9L18.1,73.9Z" style="fill:rgb(159,159,159);fill-rule:nonzero;"/>
                <path d="M30.7,72.8C30.4,73 30.1,73.2 29.8,73.3C29.5,73.5 29.1,73.6 28.8,73.8C28.4,73.9 28,74 27.6,74.1C27.2,74.2 26.8,74.2 26.4,74.2C25.7,74.2 25.2,74.1 24.7,73.8C24.2,73.5 23.8,73.2 23.5,72.7C23.2,72.2 23,71.7 22.8,71C22.6,70.3 22.6,69.6 22.6,68.9C22.6,68.2 22.7,67.5 22.8,66.8C22.9,66.1 23.1,65.4 23.4,64.8C23.7,64.2 24,63.6 24.4,63.1C24.8,62.6 25.2,62.1 25.7,61.7C26.2,61.3 26.7,61 27.2,60.8C27.8,60.6 28.3,60.5 29,60.5C29.5,60.5 30,60.6 30.4,60.8C30.8,61 31.1,61.2 31.3,61.5C31.5,61.8 31.7,62.1 31.8,62.5C31.9,62.9 32,63.2 32,63.6C32,64.2 31.9,64.8 31.7,65.3C31.5,65.8 31.2,66.3 30.8,66.7C30.4,67.1 29.9,67.4 29.2,67.7C28.6,67.9 27.8,68.1 26.9,68.1C26.2,68.1 25.4,68 24.4,67.9C24.4,68.1 24.4,68.4 24.4,68.6C24.4,69.1 24.4,69.6 24.5,70.1C24.6,70.6 24.7,71 24.9,71.3C25.1,71.6 25.4,71.9 25.7,72.1C26,72.3 26.4,72.4 26.8,72.4C27.1,72.4 27.5,72.4 27.8,72.3C28.2,72.2 28.5,72.1 28.8,71.9C29.1,71.7 29.5,71.6 29.8,71.3C30.1,71.1 30.4,70.8 30.7,70.6L30.7,72.8ZM28.4,62.4C28,62.4 27.7,62.5 27.3,62.7C26.9,62.9 26.6,63.1 26.3,63.4C26,63.7 25.7,64.1 25.4,64.5C25.1,64.9 24.9,65.4 24.8,66C25.2,66.1 25.5,66.1 25.8,66.1C26.1,66.1 26.4,66.1 26.7,66.1C27.3,66.1 27.8,66 28.2,65.9C28.6,65.8 29,65.6 29.3,65.5C29.6,65.3 29.8,65.1 29.9,64.8C30,64.5 30.1,64.2 30.1,63.9C30.1,63.7 30.1,63.5 30,63.3C29.9,63.1 29.8,62.9 29.7,62.8C29.6,62.7 29.4,62.6 29.2,62.5C28.8,62.4 28.6,62.4 28.4,62.4Z" style="fill:rgb(159,159,159);fill-rule:nonzero;"/>
                <path d="M39,61L41,61L41.8,56.8L43.6,56.8C43.5,57.6 43.3,58.3 43.2,59C43.1,59.7 42.9,60.4 42.8,61L46,61L45.6,62.9L42.3,62.9C42,64.4 41.8,65.6 41.5,66.7C41.3,67.8 41.1,68.8 41,69.5C41,69.7 41,69.8 40.9,70L40.9,71.1C40.9,71.3 41,71.4 41.1,71.6C41.2,71.7 41.3,71.8 41.4,71.9C41.5,72 41.7,72 41.9,72C42.2,72 42.6,71.9 42.9,71.7C43.3,71.5 43.7,71.3 44.1,71L44,73.1C43.5,73.5 43,73.8 42.5,73.9C42,74 41.6,74.1 41.3,74.1C41,74.1 40.7,74 40.4,73.9C40.1,73.8 39.9,73.6 39.7,73.4C39.5,73.2 39.3,72.8 39.2,72.4C39.1,72 39,71.5 39,70.9C39,70.7 39,70.5 39,70.3C39,70.1 39,69.9 39.1,69.7C39.1,69.4 39.2,69.1 39.3,68.6C39.4,68.1 39.5,67.6 39.6,67C39.7,66.4 39.8,65.7 40,65C40.1,64.3 40.3,63.5 40.5,62.7L38.6,62.7L39,61Z" style="fill:rgb(159,159,159);fill-rule:nonzero;"/>
                <path d="M46.1,73.9L47.6,66C47.7,65.7 47.7,65.4 47.7,65C47.7,64.6 47.8,64.2 47.8,63.8C47.8,63.4 47.9,62.9 47.9,62.5C47.9,62 47.9,61.6 47.9,61.2L47.9,60.7L49.7,60.7L49.7,62.7C49.7,63.1 49.6,63.5 49.6,63.9C49.6,64.3 49.5,64.7 49.5,65C49.8,64.4 50.2,63.8 50.5,63.2C50.9,62.6 51.2,62.2 51.6,61.8C52,61.4 52.3,61.1 52.7,60.8C53.1,60.6 53.4,60.4 53.7,60.4C54,60.4 54.3,60.5 54.5,60.6C54.7,60.7 54.9,60.9 55,61.1C55.1,61.3 55.2,61.6 55.3,61.9C55.4,62.2 55.4,62.5 55.4,62.9C55.4,63.2 55.4,63.5 55.3,63.8C55.3,64.1 55.2,64.4 55.2,64.7L53.6,65.1C53.7,64.7 53.7,64.4 53.7,64C53.7,63.6 53.6,63.3 53.5,63C53.4,62.7 53.2,62.6 53,62.6C52.9,62.6 52.7,62.7 52.5,62.9C52.3,63.1 52.1,63.3 51.9,63.6C51.7,63.9 51.4,64.2 51.2,64.6C51,65 50.7,65.4 50.5,65.8C50.3,66.2 50,66.7 49.8,67.1C49.6,67.5 49.4,68 49.2,68.4L48.2,73.9L46.1,73.9Z" style="fill:rgb(159,159,159);fill-rule:nonzero;"/>
                <path d="M62.2,73.9C62.2,73.6 62.2,73.3 62.2,72.9C62.2,72.5 62.2,72.1 62.3,71.8C62.3,71.4 62.4,71 62.4,70.7C62.4,70.3 62.5,70 62.5,69.7L62.7,68.7C62.5,69.1 62.3,69.6 62,70C61.7,70.4 61.5,70.9 61.2,71.3C60.9,71.7 60.6,72.1 60.3,72.5C60,72.9 59.7,73.2 59.3,73.5C59,73.8 58.6,74 58.3,74.2C58,74.4 57.7,74.4 57.4,74.4C57.1,74.4 56.8,74.3 56.5,74.2C56.2,74 56,73.8 55.8,73.5C55.6,73.2 55.4,72.8 55.3,72.4C55.2,71.9 55.1,71.4 55.1,70.8C55.1,70.5 55.1,70.1 55.2,69.8C55.3,69.5 55.3,69.1 55.4,68.7C55.5,68 55.7,67.4 55.9,66.7C56.1,66 56.4,65.4 56.7,64.8C57,64.2 57.4,63.7 57.7,63.1C58.1,62.6 58.5,62.2 59,61.8C59.5,61.4 59.9,61.1 60.5,60.9C61,60.7 61.6,60.6 62.1,60.6C62.7,60.6 63.4,60.7 64,60.8C64.6,60.9 65.2,61.1 65.6,61.2L64.5,67.2C64.3,68 64.2,68.8 64.1,69.5C64.1,70 64,70.7 64,71.3C64,71.9 63.9,72.4 63.9,72.8C63.9,73.2 63.9,73.6 63.9,73.9L62.2,73.9ZM63.5,62.7C63.3,62.7 63.1,62.6 62.9,62.6C62.6,62.5 62.2,62.5 61.7,62.5C61.1,62.5 60.6,62.7 60.1,63C59.6,63.3 59.2,63.7 58.8,64.3C58.4,64.8 58.1,65.5 57.9,66.2C57.6,66.9 57.4,67.6 57.3,68.4C57.2,68.9 57.2,69.4 57.2,69.9C57.2,70.2 57.2,70.5 57.3,70.8C57.3,71.1 57.4,71.3 57.5,71.5C57.6,71.7 57.7,71.9 57.8,72C57.9,72.1 58,72.2 58.2,72.2C58.4,72.2 58.7,72.1 59,71.8C59.3,71.5 59.7,71.2 60,70.8C60.4,70.4 60.7,69.9 61.1,69.4C61.5,68.9 61.8,68.3 62.1,67.7C62.4,67.1 62.7,66.6 62.9,66C63.1,65.4 63.3,65 63.4,64.5L63.5,62.7Z" style="fill:rgb(159,159,159);fill-rule:nonzero;"/>
                <path d="M69,60.7C69.1,61.1 69.1,61.5 69.2,62C69.3,62.5 69.3,63 69.4,63.5C69.4,64 69.5,64.6 69.5,65.2C69.5,65.8 69.5,66.4 69.5,67C69.5,67.8 69.5,68.6 69.4,69.4C69.4,70.2 69.3,70.9 69.2,71.6C69.5,71.1 69.9,70.6 70.2,70C70.5,69.4 70.9,68.8 71.2,68.2C71.5,67.6 71.8,66.9 72.1,66.2C72.4,65.5 72.7,64.9 72.9,64.2C73.1,63.6 73.3,62.9 73.4,62.3C73.5,61.7 73.6,61.1 73.6,60.6L75.6,60.6C75.6,61.1 75.5,61.7 75.4,62.4C75.3,63.1 75,63.7 74.7,64.5C74.4,65.2 74.1,66 73.7,66.8C73.3,67.6 72.9,68.4 72.4,69.2C71.9,70 71.5,70.8 71,71.6C70.5,72.4 70,73.2 69.5,73.9L67.5,73.9C67.6,72.3 67.6,70.7 67.6,69.2C67.6,67.6 67.5,66 67.4,64.6C67.3,63.2 67.1,61.9 66.8,60.7L69,60.7Z" style="fill:rgb(159,159,159);fill-rule:nonzero;"/>
                <path d="M84.1,72.8C83.8,73 83.5,73.2 83.2,73.3C82.9,73.5 82.5,73.6 82.2,73.8C81.8,73.9 81.4,74 81,74.1C80.6,74.2 80.2,74.2 79.8,74.2C79.1,74.2 78.6,74.1 78.1,73.8C77.6,73.5 77.2,73.2 76.9,72.7C76.6,72.2 76.4,71.7 76.2,71C76,70.4 76,69.7 76,68.9C76,68.2 76.1,67.5 76.2,66.8C76.3,66.1 76.5,65.4 76.8,64.8C77.1,64.2 77.4,63.6 77.8,63.1C78.2,62.6 78.6,62.1 79.1,61.7C79.6,61.3 80.1,61 80.6,60.8C81.2,60.6 81.7,60.5 82.4,60.5C82.9,60.5 83.4,60.6 83.8,60.8C84.2,61 84.5,61.2 84.7,61.5C84.9,61.8 85.1,62.1 85.2,62.5C85.3,62.9 85.4,63.2 85.4,63.6C85.4,64.2 85.3,64.8 85.1,65.3C84.9,65.8 84.6,66.3 84.2,66.7C83.8,67.1 83.3,67.4 82.6,67.7C82,67.9 81.2,68.1 80.3,68.1C79.6,68.1 78.8,68 77.8,67.9C77.8,68.1 77.8,68.4 77.8,68.6C77.8,69.1 77.8,69.6 77.9,70.1C78,70.6 78.1,71 78.3,71.3C78.5,71.6 78.8,71.9 79.1,72.1C79.4,72.3 79.8,72.4 80.2,72.4C80.5,72.4 80.9,72.4 81.2,72.3C81.6,72.2 81.9,72.1 82.2,71.9C82.5,71.7 82.9,71.6 83.2,71.3C83.5,71.1 83.8,70.8 84.1,70.6L84.1,72.8ZM81.7,62.4C81.3,62.4 81,62.5 80.6,62.7C80.2,62.9 79.9,63.1 79.6,63.4C79.3,63.7 79,64.1 78.7,64.5C78.4,64.9 78.2,65.4 78.1,66C78.5,66.1 78.8,66.1 79.1,66.1C79.4,66.1 79.7,66.1 80,66.1C80.6,66.1 81.1,66 81.5,65.9C81.9,65.8 82.3,65.6 82.6,65.5C82.9,65.3 83.1,65.1 83.2,64.8C83.3,64.5 83.4,64.2 83.4,63.9C83.4,63.7 83.4,63.5 83.3,63.3C83.2,63.1 83.1,62.9 83,62.8C82.9,62.7 82.7,62.6 82.5,62.5C82.2,62.4 82,62.4 81.7,62.4Z" style="fill:rgb(159,159,159);fill-rule:nonzero;"/>
                <path d="M91.5,53.2C91.5,53.5 91.5,53.9 91.4,54.3C91.4,54.8 91.3,55.3 91.2,55.8C91.1,56.4 91.1,56.9 91,57.5C90.9,58.1 90.8,58.7 90.7,59.3L89.3,67.1C89.1,68 89,68.9 88.9,69.9C88.8,70.8 88.8,71.7 88.8,72.5C88.8,72.8 88.8,73 88.8,73.3C88.8,73.5 88.8,73.8 88.9,74L86.9,74L86.9,72.6C86.9,71.8 86.9,71 87,70.2C87.1,69.4 87.2,68.5 87.4,67.5L88.9,59.3C89,58.8 89.1,58.3 89.2,57.7C89.3,57.1 89.4,56.6 89.4,56C89.5,55.5 89.5,54.9 89.5,54.4C89.5,53.9 89.6,53.5 89.6,53.1L91.5,53.1L91.5,53.2Z" style="fill:rgb(159,159,159);fill-rule:nonzero;"/>
                <path d="M109.2,53.2C109.2,53.8 109.1,54.6 109,55.4C108.9,56.2 108.7,57.2 108.5,58.4L106.9,67.1C106.7,68.3 106.5,69.4 106.4,70.3C106.3,71.3 106.3,72.1 106.3,72.7L106.3,73.9L104.5,73.9C104.5,73.3 104.5,72.6 104.6,72C104.6,71.3 104.7,70.6 104.8,69.9C104.5,70.4 104.2,71 103.8,71.5C103.4,72 103,72.5 102.6,72.9C102.2,73.3 101.7,73.6 101.3,73.9C100.9,74.2 100.5,74.3 100.1,74.3C99.7,74.3 99.3,74.2 98.9,74C98.5,73.8 98.3,73.5 98,73.2C97.8,72.8 97.6,72.4 97.4,71.9C97.3,71.4 97.2,70.8 97.2,70.2C97.2,69.4 97.3,68.6 97.4,67.8C97.5,67 97.7,66.3 98,65.6C98.3,64.9 98.6,64.3 98.9,63.7C99.3,63.1 99.6,62.6 100.1,62.2C100.6,61.6 101.2,61.2 101.7,61C102.3,60.7 102.8,60.6 103.4,60.6C103.6,60.6 103.9,60.6 104.1,60.7C104.3,60.8 104.6,60.8 104.8,61C105,61.1 105.2,61.2 105.5,61.4C105.7,61.5 105.9,61.7 106.1,61.8L106.6,58.6C106.8,57.6 106.9,56.7 107.1,55.8C107.2,54.9 107.3,54.1 107.3,53.4L109.2,53.4L109.2,53.2ZM105.7,63.6C105.5,63.4 105.3,63.3 105.1,63.2C104.9,63.1 104.7,63 104.5,62.9C104.3,62.8 104.1,62.8 103.9,62.7C103.7,62.7 103.5,62.6 103.2,62.6C102.7,62.6 102.3,62.7 102,62.9C101.6,63.1 101.3,63.4 101,63.8C100.7,64.2 100.5,64.6 100.3,65.1C100.1,65.6 99.9,66.1 99.7,66.6C99.5,67.1 99.4,67.7 99.3,68.2C99.2,68.7 99.2,69.2 99.2,69.7C99.2,70.5 99.3,71.1 99.5,71.5C99.7,71.9 100.1,72.1 100.6,72.1C100.8,72.1 101,72 101.3,71.9C101.6,71.7 101.8,71.5 102.1,71.2C102.4,70.9 102.7,70.6 103,70.2C103.3,69.8 103.6,69.4 103.8,69C104,68.6 104.3,68.2 104.5,67.8C104.7,67.4 104.9,67 105,66.6L105.7,63.6Z" style="fill:rgb(159,159,159);fill-rule:nonzero;"/>
                <path d="M117.3,72.8C117,73 116.7,73.2 116.4,73.3C116.1,73.5 115.7,73.6 115.4,73.8C115,73.9 114.6,74 114.2,74.1C113.8,74.2 113.4,74.2 113,74.2C112.3,74.2 111.8,74.1 111.3,73.8C110.8,73.5 110.4,73.2 110.1,72.7C109.8,72.2 109.6,71.7 109.4,71C109.2,70.3 109.2,69.6 109.2,68.9C109.2,68.2 109.3,67.5 109.4,66.8C109.5,66.1 109.7,65.4 110,64.8C110.3,64.2 110.6,63.6 111,63.1C111.4,62.6 111.8,62.1 112.3,61.7C112.8,61.3 113.3,61 113.8,60.8C114.4,60.6 114.9,60.5 115.6,60.5C116.1,60.5 116.6,60.6 117,60.8C117.4,61 117.7,61.2 117.9,61.5C118.1,61.8 118.3,62.1 118.4,62.5C118.5,62.9 118.6,63.2 118.6,63.6C118.6,64.2 118.5,64.8 118.3,65.3C118.1,65.8 117.8,66.3 117.4,66.7C117,67.1 116.5,67.4 115.8,67.7C115.2,67.9 114.4,68.1 113.5,68.1C112.8,68.1 112,68 111,67.9C111,68.1 111,68.4 111,68.6C111,69.1 111,69.6 111.1,70.1C111.2,70.6 111.3,71 111.5,71.3C111.7,71.6 112,71.9 112.3,72.1C112.6,72.3 113,72.4 113.4,72.4C113.7,72.4 114.1,72.4 114.4,72.3C114.8,72.2 115.1,72.1 115.4,71.9C115.7,71.7 116.1,71.6 116.4,71.3C116.7,71.1 117,70.8 117.3,70.6L117.3,72.8ZM115,62.4C114.6,62.4 114.3,62.5 113.9,62.7C113.5,62.9 113.2,63.1 112.9,63.4C112.6,63.7 112.3,64.1 112,64.5C111.7,64.9 111.5,65.4 111.4,66C111.8,66.1 112.1,66.1 112.4,66.1C112.7,66.1 113,66.1 113.3,66.1C113.9,66.1 114.4,66 114.8,65.9C115.2,65.8 115.6,65.6 115.9,65.5C116.2,65.3 116.4,65.1 116.5,64.8C116.6,64.5 116.7,64.2 116.7,63.9C116.7,63.7 116.7,63.5 116.6,63.3C116.5,63.1 116.4,62.9 116.3,62.8C116.2,62.7 116,62.6 115.8,62.5C115.4,62.4 115.2,62.4 115,62.4Z" style="fill:rgb(159,159,159);fill-rule:nonzero;"/>
                <path d="M127.2,63.7C127.1,63.6 126.9,63.4 126.7,63.3C126.5,63.2 126.3,63 126,62.9C125.7,62.8 125.5,62.7 125.2,62.6C124.9,62.5 124.6,62.5 124.3,62.5C123.7,62.5 123.2,62.6 122.8,62.9C122.4,63.2 122.3,63.5 122.3,64C122.3,64.2 122.3,64.4 122.4,64.5C122.5,64.6 122.6,64.8 122.8,64.9C123,65 123.2,65.2 123.4,65.4C123.7,65.6 124,65.8 124.3,66.1C124.7,66.4 125,66.6 125.3,66.9C125.6,67.2 125.9,67.5 126.1,67.8C126.3,68.1 126.5,68.4 126.7,68.8C126.8,69.2 126.9,69.5 126.9,69.9C126.9,70.6 126.8,71.2 126.6,71.7C126.4,72.2 126.1,72.7 125.7,73.1C125.3,73.5 124.9,73.8 124.4,74C123.9,74.2 123.4,74.3 122.8,74.3C122.3,74.3 121.9,74.2 121.5,74.1C121.1,74 120.7,73.8 120.4,73.6C120.1,73.4 119.7,73.1 119.5,72.8C119.2,72.5 119,72.2 118.7,71.9L119.6,69.7C119.8,70.1 120.1,70.4 120.3,70.7C120.6,71 120.9,71.3 121.2,71.5C121.5,71.7 121.8,71.9 122.2,72C122.6,72.1 122.9,72.2 123.3,72.2C123.5,72.2 123.7,72.2 123.9,72.1C124.1,72 124.3,71.9 124.4,71.7C124.6,71.5 124.7,71.4 124.8,71.1C124.9,70.9 124.9,70.6 124.9,70.4C124.9,70.2 124.9,70 124.8,69.8C124.7,69.6 124.6,69.4 124.4,69.2C124.2,69 124,68.8 123.7,68.6C123.4,68.4 123,68.1 122.6,67.8C121.9,67.3 121.3,66.8 120.9,66.3C120.5,65.8 120.3,65.1 120.3,64.5C120.3,64 120.4,63.4 120.6,63C120.8,62.5 121.1,62.1 121.4,61.7C121.8,61.3 122.2,61 122.7,60.8C123.2,60.6 123.8,60.5 124.4,60.5C124.8,60.5 125.2,60.5 125.6,60.6C126,60.7 126.3,60.7 126.6,60.8C126.9,60.9 127.1,61 127.4,61.1C127.7,61.2 127.8,61.3 128,61.5L127.2,63.7Z" style="fill:rgb(159,159,159);fill-rule:nonzero;"/>
                <path d="M129.7,61L131.7,61L132.5,56.8L134.3,56.8C134.2,57.6 134,58.3 133.9,59C133.8,59.7 133.6,60.4 133.5,61L136.8,61L136.4,62.9L133.1,62.9C132.8,64.4 132.6,65.6 132.3,66.7C132.1,67.8 131.9,68.8 131.8,69.5C131.8,69.7 131.8,69.8 131.7,70L131.7,71.1C131.7,71.3 131.8,71.4 131.9,71.6C132,71.7 132.1,71.8 132.2,71.9C132.3,72 132.5,72 132.7,72C133,72 133.4,71.9 133.7,71.7C134.1,71.5 134.5,71.3 134.9,71L134.8,73.1C134.3,73.5 133.8,73.8 133.3,73.9C132.8,74 132.4,74.1 132.1,74.1C131.8,74.1 131.5,74 131.2,73.9C130.9,73.8 130.7,73.6 130.5,73.4C130.3,73.1 130.1,72.8 130,72.4C129.9,72 129.8,71.5 129.8,70.9C129.8,70.7 129.8,70.5 129.8,70.3C129.8,70.1 129.8,69.9 129.9,69.7C129.9,69.4 130,69.1 130.1,68.6C130.2,68.1 130.3,67.6 130.4,67C130.5,66.4 130.6,65.7 130.8,65C130.9,64.3 131.1,63.5 131.3,62.7L129.4,62.7L129.7,61Z" style="fill:rgb(159,159,159);fill-rule:nonzero;"/>
                <path d="M140.9,60.7C140.9,61 140.9,61.4 140.8,61.8C140.7,62.3 140.7,62.8 140.6,63.3C140.5,63.8 140.4,64.4 140.3,65C140.2,65.6 140.1,66.2 140,66.8L139.6,69.2C139.5,69.7 139.4,70.2 139.4,70.7C139.4,71.2 139.3,71.7 139.3,72.2C139.3,72.5 139.3,72.9 139.3,73.2C139.3,73.5 139.4,73.8 139.4,74L137.4,74C137.4,73.7 137.3,73.3 137.3,72.9C137.3,72.3 137.3,71.7 137.4,71C137.5,70.3 137.6,69.6 137.7,68.9L138.1,66.9C138.2,66.4 138.3,65.9 138.4,65.3C138.5,64.7 138.6,64.2 138.7,63.6C138.8,63.1 138.9,62.5 138.9,62C139,61.5 139,61.1 139,60.7L140.9,60.7ZM139.3,56.8C139.3,56.5 139.3,56.3 139.4,56.1C139.5,55.9 139.6,55.6 139.7,55.5C139.8,55.3 140,55.2 140.2,55C140.4,54.9 140.6,54.8 140.8,54.8C141,54.8 141.1,54.8 141.2,54.9C141.3,55 141.5,55.1 141.6,55.2C141.7,55.3 141.8,55.5 141.8,55.7C141.9,55.9 141.9,56.1 141.9,56.3C141.9,56.6 141.9,56.8 141.8,57.1C141.7,57.3 141.6,57.6 141.5,57.7C141.4,57.8 141.2,58 141,58.1C140.8,58.2 140.6,58.3 140.4,58.3C140.2,58.3 140.1,58.3 140,58.2C139.9,58.1 139.8,58 139.7,57.9C139.6,57.8 139.5,57.6 139.5,57.4C139.3,57.2 139.3,57 139.3,56.8Z" style="fill:rgb(159,159,159);fill-rule:nonzero;"/>
                <path d="M149.9,73.9C149.9,73.8 149.9,73.6 149.8,73.4L149.8,72.1C149.8,71.8 149.8,71.5 149.9,71.2C149.9,70.9 150,70.6 150,70.3C150.1,69.9 150.1,69.6 150.2,69.2C150.3,68.8 150.3,68.4 150.4,68C150.5,67.6 150.6,67.2 150.6,66.8C150.7,66.4 150.7,66.1 150.8,65.8C150.8,65.5 150.9,65.2 150.9,65C150.9,64.2 150.8,63.6 150.5,63.3C150.3,62.9 149.9,62.8 149.5,62.8C149.3,62.8 149.1,62.9 148.8,63.1C148.5,63.3 148.3,63.5 148,63.9C147.7,64.2 147.4,64.6 147.2,65C146.9,65.4 146.6,65.9 146.4,66.3C146.1,66.8 145.9,67.2 145.7,67.7C145.5,68.2 145.3,68.7 145.2,69.1L144.3,74L142.5,74L144,66.1C144.1,65.8 144.1,65.5 144.1,65.1C144.1,64.7 144.2,64.3 144.2,63.9C144.2,63.5 144.3,63 144.3,62.6C144.3,62.1 144.3,61.7 144.3,61.3L144.3,60.8L146.1,60.8L146.1,62.3C146.1,62.6 146.1,63 146,63.3C146,63.6 145.9,64 145.9,64.3C145.9,64.6 145.8,64.9 145.8,65.1C146.1,64.4 146.5,63.8 146.9,63.3C147.3,62.7 147.7,62.2 148.1,61.8C148.5,61.4 148.9,61.1 149.4,60.8C149.8,60.6 150.3,60.4 150.7,60.4C151.5,60.4 152.1,60.7 152.5,61.4C152.9,62 153.1,62.9 153.1,64.1C153.1,64.3 153.1,64.6 153,65C153,65.4 152.9,65.8 152.8,66.2C152.7,66.6 152.6,67.1 152.6,67.5C152.5,68 152.4,68.4 152.3,68.8C152.2,69.2 152.1,69.6 152.1,69.9C152,70.2 152,70.5 152,70.7C152,71 151.9,71.3 151.9,71.6L151.9,73.2C151.9,73.4 151.9,73.6 152,73.8L149.9,73.8L149.9,73.9Z" style="fill:rgb(159,159,159);fill-rule:nonzero;"/>
                <path d="M161.2,73.9C161.2,73.6 161.2,73.3 161.2,72.9C161.2,72.5 161.2,72.1 161.3,71.8C161.3,71.4 161.4,71 161.4,70.7C161.4,70.3 161.5,70 161.5,69.7L161.7,68.7C161.5,69.1 161.3,69.6 161,70C160.7,70.4 160.5,70.9 160.2,71.3C159.9,71.7 159.6,72.1 159.3,72.5C159,72.9 158.7,73.2 158.3,73.5C158,73.8 157.6,74 157.3,74.2C157,74.4 156.7,74.4 156.4,74.4C156.1,74.4 155.8,74.3 155.5,74.2C155.2,74 155,73.8 154.8,73.5C154.6,73.2 154.4,72.8 154.3,72.4C154.2,71.9 154.1,71.4 154.1,70.8C154.1,70.5 154.1,70.1 154.2,69.8C154.3,69.5 154.3,69.1 154.4,68.7C154.5,68 154.7,67.4 154.9,66.7C155.1,66 155.4,65.4 155.7,64.8C156,64.2 156.4,63.7 156.7,63.1C157.1,62.6 157.5,62.2 158,61.8C158.5,61.4 158.9,61.1 159.5,60.9C160,60.7 160.6,60.6 161.1,60.6C161.7,60.6 162.4,60.7 163,60.8C163.6,60.9 164.2,61.1 164.6,61.2L163.5,67.2C163.3,68 163.2,68.8 163.1,69.5C163,70.2 163,70.8 162.9,71.4C162.9,72 162.8,72.5 162.8,72.9C162.8,73.3 162.8,73.7 162.8,74L161.2,74L161.2,73.9ZM162.6,62.7C162.4,62.7 162.2,62.6 162,62.6C161.7,62.5 161.3,62.5 160.8,62.5C160.2,62.5 159.7,62.7 159.2,63C158.7,63.3 158.3,63.7 157.9,64.3C157.5,64.8 157.2,65.5 157,66.2C156.7,66.9 156.5,67.6 156.4,68.4C156.3,68.9 156.3,69.4 156.3,69.9C156.3,70.2 156.3,70.5 156.4,70.8C156.4,71.1 156.5,71.3 156.6,71.5C156.7,71.7 156.8,71.9 156.9,72C157,72.1 157.1,72.2 157.3,72.2C157.5,72.2 157.8,72.1 158.1,71.8C158.4,71.5 158.8,71.2 159.1,70.8C159.5,70.4 159.8,69.9 160.2,69.4C160.6,68.9 160.9,68.3 161.2,67.7C161.5,67.1 161.8,66.6 162,66C162.2,65.4 162.4,65 162.5,64.5L162.6,62.7Z" style="fill:rgb(159,159,159);fill-rule:nonzero;"/>
                <path d="M166.4,61L168.4,61L169.2,56.8L171,56.8C170.9,57.6 170.7,58.3 170.6,59C170.5,59.7 170.3,60.4 170.2,61L173.5,61L173.1,62.9L169.8,62.9C169.5,64.4 169.3,65.6 169,66.7C168.8,67.8 168.6,68.8 168.5,69.5C168.5,69.7 168.5,69.8 168.4,70L168.4,71.1C168.4,71.3 168.5,71.4 168.6,71.6C168.7,71.7 168.8,71.8 168.9,71.9C169,72 169.2,72 169.4,72C169.7,72 170.1,71.9 170.4,71.7C170.8,71.5 171.2,71.3 171.6,71L171.5,73.1C171,73.5 170.5,73.8 170,73.9C169.5,74 169.1,74.1 168.8,74.1C168.5,74.1 168.2,74 167.9,73.9C167.6,73.8 167.4,73.6 167.2,73.4C167,73.1 166.8,72.8 166.7,72.4C166.6,72 166.5,71.5 166.5,70.9C166.5,70.7 166.5,70.5 166.5,70.3C166.5,70.1 166.5,69.9 166.6,69.7C166.6,69.4 166.7,69.1 166.8,68.6C166.9,68.1 167,67.6 167.1,67C167.2,66.4 167.3,65.7 167.5,65C167.6,64.3 167.8,63.5 168,62.7L166.1,62.7L166.4,61Z" style="fill:rgb(159,159,159);fill-rule:nonzero;"/>
                <path d="M177.6,60.7C177.6,61 177.6,61.4 177.5,61.8C177.4,62.3 177.4,62.8 177.3,63.3C177.2,63.8 177.1,64.4 177,65C176.9,65.6 176.8,66.2 176.7,66.8L176.3,69.2C176.2,69.7 176.1,70.2 176.1,70.7C176.1,71.2 176,71.7 176,72.2C176,72.5 176,72.9 176,73.2C176,73.5 176.1,73.8 176.1,74L174.1,74C174.1,73.7 174,73.3 174,72.9C174,72.3 174,71.7 174.1,71C174.2,70.3 174.3,69.6 174.4,68.9L174.8,66.9C174.9,66.4 175,65.9 175.1,65.3C175.2,64.7 175.3,64.2 175.4,63.6C175.5,63.1 175.6,62.5 175.6,62C175.7,61.5 175.7,61.1 175.7,60.7L177.6,60.7ZM176,56.8C176,56.5 176,56.3 176.1,56.1C176.2,55.9 176.3,55.6 176.4,55.5C176.5,55.3 176.7,55.2 176.9,55C177.1,54.9 177.3,54.8 177.5,54.8C177.7,54.8 177.8,54.8 177.9,54.9C178,55 178.2,55.1 178.3,55.2C178.4,55.3 178.5,55.5 178.5,55.7C178.6,55.9 178.6,56.1 178.6,56.3C178.6,56.6 178.6,56.8 178.5,57.1C178.4,57.3 178.3,57.6 178.2,57.7C178.1,57.9 177.9,58 177.7,58.1C177.5,58.2 177.3,58.3 177.1,58.3C176.9,58.3 176.8,58.3 176.7,58.2C176.6,58.1 176.5,58 176.4,57.9C176.3,57.8 176.2,57.6 176.2,57.4C176,57.2 176,57 176,56.8Z" style="fill:rgb(159,159,159);fill-rule:nonzero;"/>
                <path d="M179.3,69.4C179.3,68.7 179.4,67.9 179.5,67.2C179.6,66.5 179.8,65.8 180.1,65.1C180.3,64.4 180.7,63.8 181,63.3C181.4,62.7 181.8,62.2 182.2,61.8C182.7,61.4 183.2,61.1 183.7,60.8C184.2,60.5 184.8,60.4 185.4,60.4C186,60.4 186.5,60.5 186.9,60.7C187.4,60.9 187.8,61.2 188.1,61.7C188.4,62.1 188.7,62.6 188.9,63.2C189.1,63.8 189.2,64.5 189.2,65.3C189.2,66 189.1,66.8 189,67.5C188.9,68.2 188.7,68.9 188.4,69.6C188.2,70.3 187.9,70.9 187.5,71.4C187.1,72 186.7,72.5 186.3,72.9C185.9,73.3 185.4,73.6 184.8,73.9C184.3,74.1 183.7,74.2 183.1,74.2C182.5,74.2 182,74.1 181.6,73.9C181.1,73.7 180.7,73.4 180.4,72.9C180.1,72.5 179.8,72 179.6,71.4C179.4,70.8 179.3,70.1 179.3,69.4ZM185.1,62.5C184.5,62.5 184,62.7 183.5,63.1C183,63.5 182.6,64 182.3,64.6C182,65.2 181.7,65.9 181.5,66.7C181.3,67.5 181.2,68.2 181.2,68.9C181.2,69.4 181.3,69.9 181.4,70.3C181.5,70.7 181.7,71 181.9,71.3C182.1,71.6 182.3,71.8 182.6,71.9C182.9,72 183.2,72.1 183.5,72.1C183.9,72.1 184.3,72 184.6,71.8C184.9,71.6 185.3,71.4 185.5,71.1C185.8,70.8 186,70.4 186.3,70C186.5,69.6 186.7,69.1 186.9,68.7C187.1,68.2 187.2,67.7 187.3,67.2C187.4,66.7 187.4,66.2 187.4,65.7C187.4,65.2 187.3,64.7 187.2,64.3C187.1,63.9 186.9,63.5 186.7,63.3C186.5,63 186.3,62.8 186,62.6C185.7,62.6 185.4,62.5 185.1,62.5Z" style="fill:rgb(159,159,159);fill-rule:nonzero;"/>
                <path d="M197.9,73.9C197.9,73.8 197.9,73.6 197.8,73.4L197.8,72.1C197.8,71.8 197.8,71.5 197.9,71.2C197.9,70.9 198,70.6 198,70.3C198.1,69.9 198.1,69.6 198.2,69.2C198.3,68.8 198.3,68.4 198.4,68C198.5,67.6 198.6,67.2 198.6,66.8C198.7,66.4 198.7,66.1 198.8,65.8C198.8,65.5 198.9,65.2 198.9,65C198.9,64.2 198.8,63.6 198.5,63.3C198.3,62.9 197.9,62.8 197.5,62.8C197.3,62.8 197.1,62.9 196.8,63.1C196.5,63.3 196.3,63.5 196,63.9C195.7,64.2 195.4,64.6 195.2,65C194.9,65.4 194.6,65.9 194.4,66.3C194.1,66.8 193.9,67.2 193.7,67.7C193.5,68.2 193.3,68.7 193.2,69.1L192.3,74L190.5,74L192,66.1C192.1,65.8 192.1,65.5 192.1,65.1C192.1,64.7 192.2,64.3 192.2,63.9C192.2,63.5 192.3,63 192.3,62.6C192.3,62.1 192.3,61.7 192.3,61.3L192.3,60.8L194.1,60.8L194.1,62.3C194.1,62.6 194.1,63 194,63.3C194,63.6 193.9,64 193.9,64.3C193.9,64.6 193.8,64.9 193.8,65.1C194.1,64.4 194.5,63.8 194.9,63.3C195.3,62.7 195.7,62.2 196.1,61.8C196.5,61.4 196.9,61.1 197.4,60.8C197.8,60.6 198.3,60.4 198.7,60.4C199.5,60.4 200.1,60.7 200.5,61.4C200.9,62 201.1,62.9 201.1,64.1C201.1,64.3 201.1,64.6 201,65C201,65.4 200.9,65.8 200.8,66.2C200.7,66.6 200.6,67.1 200.6,67.5C200.5,68 200.4,68.4 200.3,68.8C200.2,69.2 200.1,69.6 200.1,69.9C200,70.2 200,70.5 200,70.7C200,71 199.9,71.3 199.9,71.6L199.9,73.2C199.9,73.4 199.9,73.6 200,73.8L197.9,73.8L197.9,73.9Z" style="fill:rgb(159,159,159);fill-rule:nonzero;"/>
            </g>
        </g>
        <g>
            <path d="M67.6,42.6C66.2,43.1 64.6,43.3 62.6,43.3C60.6,43.3 58.9,42.9 57.3,42.1C55.7,41.3 54.4,40.1 53.4,38.6C52.3,37.1 51.5,35.3 50.9,33.1C50.3,31 50,28.6 50,26C50,23.5 50.3,21.2 50.8,19C51.4,16.9 52.2,15.1 53.2,13.5C54.3,12 55.5,10.8 57,9.9C58.5,9 60.2,8.6 62,8.6C64,8.6 65.7,9 67.1,9.7C68.5,10.4 69.7,11.4 70.6,12.7L67.4,16.6C66.2,14.8 64.5,13.9 62.4,13.9C61.2,13.9 60.2,14.2 59.4,14.9C58.5,15.6 57.8,16.4 57.3,17.5C56.7,18.6 56.3,19.9 56,21.4C55.7,22.9 55.6,24.4 55.6,26C55.6,27.7 55.7,29.3 56,30.7C56.3,32.2 56.7,33.5 57.3,34.6C57.9,35.7 58.6,36.6 59.4,37.2C60.3,37.8 61.3,38.1 62.5,38.1C63.2,38.1 63.9,38 64.5,37.8C65.1,37.6 65.6,37.4 66,37.1L66,28.6L62,28.6L62,23.7L71.1,23.7L71.1,40.5C70.2,41.5 69,42.2 67.6,42.6Z" style="fill:rgb(159,159,159);fill-rule:nonzero;"/>
            <path d="M79.7,32.1C79.7,33 79.8,33.9 80,34.7C80.2,35.5 80.5,36.2 80.8,36.8C81.2,37.4 81.6,37.9 82.1,38.2C82.6,38.6 83.2,38.7 83.9,38.7C84.9,38.7 85.6,38.4 86.2,37.8C86.8,37.2 87.2,36.5 87.6,35.7L91.5,37.9C90.8,39.6 89.8,40.9 88.6,41.8C87.3,42.8 85.7,43.3 83.8,43.3C81,43.3 78.8,42.2 77.1,40C75.4,37.8 74.6,34.7 74.6,30.6C74.6,28.7 74.8,27 75.3,25.4C75.7,23.8 76.4,22.5 77.2,21.4C78,20.3 79,19.4 80.1,18.8C81.2,18.2 82.4,17.9 83.8,17.9C85.3,17.9 86.6,18.2 87.7,18.8C88.8,19.4 89.6,20.3 90.3,21.3C91,22.4 91.5,23.6 91.8,25.1C92.1,26.6 92.3,28.2 92.3,29.9L92.3,31.9L79.7,31.9L79.7,32.1ZM87,28.3C87,26.5 86.7,25.1 86.2,24C85.6,22.9 84.8,22.3 83.6,22.3C82.9,22.3 82.3,22.5 81.8,22.9C81.3,23.3 80.9,23.8 80.6,24.4C80.3,25 80.1,25.7 79.9,26.4C79.7,27.1 79.7,27.7 79.7,28.3L87,28.3Z" style="fill:rgb(159,159,159);fill-rule:nonzero;"/>
            <path d="M103,19.4C103.9,18.5 104.9,18 106.1,18C106.3,18 106.4,18 106.5,18C106.6,18 106.7,18 106.9,18.1L106.6,23.5C106.3,23.4 105.9,23.4 105.5,23.4C104.8,23.4 104.2,23.6 103.7,24C103.2,24.4 102.7,25 102.3,25.7C101.9,26.4 101.6,27.2 101.5,28C101.3,28.9 101.2,29.8 101.2,30.7L101.2,42.7L95.8,42.7L95.8,18.9L101,18.9L101,23.5L101.1,23.5C101.5,21.7 102.1,20.3 103,19.4Z" style="fill:rgb(159,159,159);fill-rule:nonzero;"/>
            <path d="M116.3,19.4C117.3,18.5 118.5,18.1 120.1,18.1C120.9,18.1 121.7,18.2 122.3,18.5C122.9,18.7 123.4,19.1 123.9,19.5C124.3,19.9 124.7,20.4 125,21C125.3,21.6 125.5,22.1 125.7,22.7L125.8,22.7C126,22.1 126.3,21.6 126.6,21C127,20.5 127.4,20 127.9,19.5C128.4,19.1 129,18.7 129.7,18.4C130.4,18.1 131.2,18 132,18C133.3,18 134.4,18.3 135.2,18.8C136,19.3 136.6,20.1 137,21C137.4,21.9 137.7,22.9 137.9,24.1C138.1,25.3 138.1,26.5 138.1,27.7L138.1,42.6L132.8,42.6L132.8,27.8C132.8,27.2 132.8,26.6 132.7,26C132.6,25.4 132.5,24.8 132.3,24.3C132.1,23.8 131.8,23.4 131.4,23.1C131,22.8 130.5,22.7 129.9,22.7C128.7,22.7 127.8,23.3 127.1,24.5C126.4,25.7 126,27.2 126,29L126,42.8L120.8,42.8L120.8,27.8C120.8,27.2 120.8,26.6 120.7,26C120.6,25.4 120.5,24.8 120.3,24.3C120.1,23.8 119.8,23.4 119.4,23.1C119,22.8 118.5,22.7 117.9,22.7C116.7,22.7 115.8,23.3 115.1,24.5C114.4,25.7 114.1,27.2 114.1,28.9L114.1,42.7L109,42.7L109,18.9L114.2,18.9L114.2,22.7L114.3,22.7C114.7,21.4 115.3,20.3 116.3,19.4Z" style="fill:rgb(159,159,159);fill-rule:nonzero;"/>
            <path d="M153,39.1C152.7,40.4 152,41.4 151.1,42.2C150.2,42.9 149,43.3 147.5,43.3C146.8,43.3 146.1,43.2 145.4,42.9C144.7,42.7 144,42.2 143.5,41.7C142.9,41.1 142.4,40.4 142.1,39.5C141.7,38.6 141.5,37.5 141.5,36.2C141.5,34.5 141.8,33.1 142.4,32.1C143,31 143.8,30.2 144.7,29.6C145.6,29 146.7,28.5 147.9,28.3C149.1,28.1 150.2,27.9 151.3,27.9L152.6,27.9L152.6,27.2C152.6,25.6 152.3,24.5 151.6,23.8C151,23.1 150.1,22.7 149.1,22.7C148.2,22.7 147.4,22.9 146.6,23.3C145.9,23.7 145.2,24.3 144.7,25L142.2,21.7C143.1,20.6 144.2,19.8 145.5,19.2C146.8,18.6 148.2,18.3 149.5,18.3C151,18.3 152.2,18.5 153.2,19C154.2,19.5 155,20.1 155.7,21C156.3,21.9 156.8,23 157,24.3C157.3,25.6 157.4,27.1 157.4,28.7L157.4,42.8L153,42.8L153,39.1ZM152.8,31.5L151.3,31.5C150.6,31.5 150,31.6 149.4,31.7C148.8,31.8 148.3,32 147.8,32.3C147.3,32.6 147,33 146.7,33.6C146.4,34.1 146.3,34.8 146.3,35.7C146.3,36.9 146.6,37.9 147.1,38.5C147.6,39.1 148.3,39.4 149,39.4C149.7,39.4 150.3,39.2 150.8,38.8C151.3,38.4 151.7,37.9 152,37.3C152.3,36.7 152.5,36 152.7,35.2C152.8,34.4 152.9,33.7 152.9,33L152.9,31.5L152.8,31.5Z" style="fill:rgb(159,159,159);fill-rule:nonzero;"/>
            <path d="M167.6,18.9L167.6,22.7L167.7,22.7C168.1,21.4 168.9,20.3 169.9,19.5C170.9,18.6 172.2,18.2 173.7,18.2C175,18.2 176.1,18.5 176.9,19C177.7,19.5 178.3,20.3 178.7,21.2C179.1,22.1 179.4,23.1 179.6,24.3C179.8,25.5 179.8,26.7 179.8,27.9L179.8,42.8L174.5,42.8L174.5,27.8C174.5,27.2 174.5,26.6 174.4,26C174.3,25.4 174.2,24.8 174,24.3C173.8,23.8 173.5,23.4 173.1,23.1C172.7,22.8 172.2,22.7 171.6,22.7C170.4,22.7 169.5,23.3 168.8,24.5C168.1,25.7 167.7,27.2 167.7,29L167.7,42.8L162.4,42.8L162.4,18.9L167.6,18.9Z" style="fill:rgb(159,159,159);fill-rule:nonzero;"/>
            <path d="M193.9,46C193.6,47.2 193.2,48.3 192.8,49.2C192.4,50.2 191.9,51 191.2,51.7C190.6,52.4 189.8,52.9 189,53.3C188.1,53.7 187.1,53.9 186,53.9C185.4,53.9 184.8,53.9 184.2,53.8C183.6,53.7 183.1,53.6 182.8,53.5L183.5,48.8C183.7,48.9 184.1,49 184.4,49.1C184.8,49.2 185.1,49.2 185.5,49.2C186.3,49.2 187,48.9 187.4,48.4C187.8,47.9 188.2,47.2 188.4,46.3L189.1,43.4L182.1,19L187.7,19L191.9,36.9L192,36.9L195.8,19L201.2,19L193.9,46Z" style="fill:rgb(159,159,159);fill-rule:nonzero;"/>
        </g>
    </g>
</svg>
