<?xml version="1.0" encoding="UTF-8" standalone="no"?>
<!DOCTYPE svg PUBLIC "-//W3C//DTD SVG 1.1//EN" "http://www.w3.org/Graphics/SVG/1.1/DTD/svg11.dtd">
<svg width="100%" height="100%" viewBox="0 0 300 80" version="1.1" xmlns="http://www.w3.org/2000/svg" xmlns:xlink="http://www.w3.org/1999/xlink" xml:space="preserve" xmlns:serif="http://www.serif.com/" style="fill-rule:evenodd;clip-rule:evenodd;stroke-linejoin:round;stroke-miterlimit:1.41421;">
    <g transform="matrix(0.827923,0,0,0.827923,1,7.99472)">
        <path d="M13.2,21.8L0,21.8L0,62.9L6.1,62.9L6.1,47.5L13.2,47.5C23.8,47.5 27.4,41.4 27.4,34.7C27.5,27.9 23.8,21.8 13.2,21.8ZM13.5,41.9L6.1,41.9L6.1,27.4L13.4,27.4C19.5,27.4 20.7,31.6 20.7,34.6C20.8,37.7 19.6,41.9 13.5,41.9Z" style="fill:rgb(159,159,159);fill-rule:nonzero;"/>
        <path d="M44.9,34.8C42.1,34.8 39.7,35.6 37.6,36.8L37.6,21.8L31.5,23.6L31.5,62.9L37.6,62.9L37.6,41.6C39.1,40.8 41.1,40 43.9,40C46.8,40 48.2,41.3 48.2,44.1L48.2,62.9L54.3,62.9L54.3,43.5C54.4,38.3 51.9,34.8 44.9,34.8Z" style="fill:rgb(159,159,159);fill-rule:nonzero;"/>
        <path d="M70.8,34.8C61,34.8 58.6,40.7 58.6,49.2C58.6,57.6 61,63.6 70.8,63.6C80.6,63.6 83,57.7 83,49.2C83,40.7 80.6,34.8 70.8,34.8ZM70.8,58.4C65.6,58.4 64.8,55.1 64.8,49.2C64.8,43.3 65.6,40 70.8,40C76,40 76.8,43.3 76.8,49.2C76.8,55 76,58.4 70.8,58.4Z" style="fill:rgb(159,159,159);fill-rule:nonzero;"/>
        <path d="M87.2,49.2C87.2,57.7 90.2,63.6 99.9,63.6C102.7,63.6 105.3,63.2 107.5,62.2L107.5,56.9C105.5,57.7 103.5,58.2 100.3,58.2C95,58.2 93.5,54.6 93.5,49.3C93.5,44 95,40.4 100.3,40.4C103.5,40.4 105.5,40.9 107.5,41.7L107.5,36.4C105.4,35.5 102.8,35 99.9,35C90.1,34.8 87.2,40.6 87.2,49.2Z" style="fill:rgb(159,159,159);fill-rule:nonzero;"/>
        <path d="M129.4,56.7C127.9,57.5 125.9,58.3 123.1,58.3C120.2,58.3 118.8,57 118.8,54.2L118.8,34.8L112.7,36.6L112.7,54.8C112.7,60.1 115.2,63.5 122.1,63.5C125.1,63.5 128.2,62.6 131,60.7L132,62.9L135.6,62.9L135.6,34.8L129.5,36.6L129.5,56.7L129.4,56.7Z" style="fill:rgb(159,159,159);fill-rule:nonzero;"/>
        <path d="M150.9,46.4C147.3,46.1 146.4,45.2 146.4,43.3C146.4,40.8 148.4,39.9 151.7,39.9C155.2,39.9 157.7,40.6 160.1,41.4L160.1,36.1C158,35.2 155.3,34.7 151.6,34.7C143.5,34.7 140.5,38.7 140.5,43.4C140.5,48.1 142.5,50.7 150.8,51.4C154.5,51.7 155.3,52.8 155.3,54.8C155.3,57.2 153.2,58.2 148.8,58.2C145.3,58.2 142.4,57.3 140.6,56.7L140.6,62C142.5,62.8 145.9,63.5 149.6,63.5C158.4,63.5 161.3,59.4 161.3,54.7C161.2,49.6 159.1,47.1 150.9,46.4Z" style="fill:rgb(159,159,159);fill-rule:nonzero;"/>
        <path d="M190.3,54.3L185,35.5L179.4,35.5L174.1,54.3L170.4,35.5L164.1,35.5L171.3,63.4L176.5,63.4L182.2,42.7L187.9,63.4L193.1,63.4L200.3,35.5L194,35.5L190.3,54.3Z" style="fill:rgb(159,159,159);fill-rule:nonzero;"/>
        <path d="M208.9,37.7L207.9,35.5L204.3,35.5L204.3,62.9L210.4,62.9L210.4,41.7C211.8,40.8 214.2,40.1 217.4,40.1C218.7,40.1 219.8,40.2 220.4,40.4L220.4,35.1C219.6,34.9 218.6,34.8 217.5,34.8C214,34.8 210.9,36 208.9,37.7Z" style="fill:rgb(159,159,159);fill-rule:nonzero;"/>
        <path d="M230.8,56.1L230.8,34.8L224.7,36.6L224.7,56.2C224.7,60.9 226.9,63.3 231.9,63.3C232.6,63.3 233.1,63.2 233.1,63.2L233.1,58.2C231.3,58.1 230.8,57.6 230.8,56.1Z" style="fill:rgb(159,159,159);fill-rule:nonzero;"/>
        <path d="M227.7,31.2C229.8,31.2 231.5,29.5 231.5,27.4C231.5,25.3 229.8,23.6 227.7,23.6C225.6,23.6 223.9,25.3 223.9,27.4C223.9,29.4 225.6,31.2 227.7,31.2Z" style="fill:rgb(159,159,159);fill-rule:nonzero;"/>
        <path d="M281,34.8C278.2,34.8 275.8,35.6 273.7,36.8L273.7,21.8L267.6,23.6L267.6,62.9L273.7,62.9L273.7,41.6C275.2,40.8 277.2,40 280,40C282.9,40 284.3,41.3 284.3,44.1L284.3,62.9L290.4,62.9L290.4,43.5C290.5,38.3 288,34.8 281,34.8Z" style="fill:rgb(159,159,159);fill-rule:nonzero;"/>
        <path d="M312.5,40.7L312.5,35.5L304.8,35.5L304.8,26.6L298.7,28.4L298.7,35.6L293.7,37L293.7,40.8L298.7,40.8L298.7,55C298.7,60.9 302.3,63.5 308.3,63.5C309.2,63.5 310.8,63.3 311.7,63.1L311.7,58.1C311,58.2 310.2,58.3 309.3,58.3C306.2,58.3 304.8,57 304.8,54.2L304.8,40.7L312.5,40.7Z" style="fill:rgb(159,159,159);fill-rule:nonzero;"/>
        <path d="M249.5,77.3C257,77.3 263.9,74.5 263.9,67.5C263.9,63 262,60.5 256.6,59.8L246.7,58.6C245.6,58.4 245.1,57.9 245.1,57C245.1,56.5 245.4,55.9 245.9,55.4C246.8,55.6 247.9,55.6 249.1,55.6C257.5,55.6 260.5,51.4 260.5,45.2C260.5,43.4 260.2,41.9 259.7,40.4L263.6,39.3L263.6,35.4L254,35.4C252.6,35 250.9,34.7 249,34.7C240.6,34.7 237.6,38.9 237.6,45.1C237.6,49.1 238.9,52.3 242,54C240.7,55 239.5,56.4 239.5,58.4C239.5,59.9 240.6,62.4 243.8,63C245.5,63.3 246.2,63.3 247.4,63.5C248.7,63.7 254.8,64.5 254.8,64.5C257,64.8 258,65.6 258,67.5C258,70.8 254.3,72.2 249.5,72.2C244.3,72.2 239.1,69 239.1,69L236.6,73.3C236.6,73.5 242,77.3 249.5,77.3ZM243.3,45.2C243.3,42.1 244.3,39.7 248.9,39.7C253.5,39.7 254.5,42.1 254.5,45.2C254.5,48.3 253.5,50.7 248.9,50.7C244.4,50.7 243.3,48.3 243.3,45.2Z" style="fill:rgb(159,159,159);fill-rule:nonzero;"/>
        <path d="M314.5,16.5C314.5,8.7 322.9,3.7 334.2,3.6C343.7,3.5 354.1,8.2 354.1,16.5C354.1,25.7 343.3,28.2 335.3,28.2C333.5,28.2 331.8,28.1 331,28C330.5,28 330.2,28.3 330.2,28.7C328.9,36.8 326.9,42.1 319.7,50.7C319.7,50.8 319.6,50.9 319.6,50.9C319.6,51.2 319.8,51.4 320,51.4C320.1,51.4 320.6,51.3 320.6,51.3C332.8,46.2 335,32.6 335,32.6C351,32.7 359.3,26.7 359.9,17C360.7,6.4 348.4,-0.2 334.3,0C320.2,0.2 312.2,7.1 312.2,16C312.2,21.1 315.5,24.9 318.1,26.5C319.2,27.2 320.2,27.6 320.7,27.4C322.4,26.7 314.5,25.4 314.5,16.5Z" style="fill:rgb(207,206,206);fill-rule:nonzero;"/>
    </g>
</svg>
