<?xml version="1.0" encoding="UTF-8" standalone="no"?>
<!DOCTYPE svg PUBLIC "-//W3C//DTD SVG 1.1//EN" "http://www.w3.org/Graphics/SVG/1.1/DTD/svg11.dtd">
<svg width="100%" height="100%" viewBox="0 0 300 80" version="1.1" xmlns="http://www.w3.org/2000/svg" xmlns:xlink="http://www.w3.org/1999/xlink" xml:space="preserve" xmlns:serif="http://www.serif.com/" style="fill-rule:evenodd;clip-rule:evenodd;stroke-linejoin:round;stroke-miterlimit:1.41421;">
    <g transform="matrix(1.72127,0,0,1.72127,45.1745,0.992099)">
        <path d="M34.2,25.4C33.4,23.9 32.2,22.6 30.8,21.6C29.3,20.6 27.7,19.7 26,19.2C24.2,18.6 22.3,18.1 20.3,17.6C18.7,17.2 17.3,16.9 16.1,16.6C15.1,16.4 14,16 13.1,15.6C12.4,15.3 11.8,14.9 11.3,14.3C10.9,13.8 10.6,13.1 10.7,12.4C10.7,11.2 11.3,10.2 12.4,9.5C13.5,8.8 15,8.4 16.9,8.4C18.9,8.4 20.5,8.8 21.7,9.7C22.9,10.6 23.6,11.9 23.8,13.5L34,13.5C33.9,11.5 33.4,9.5 32.5,7.6C31.6,6 30.4,4.6 28.9,3.5C27.3,2.4 25.5,1.5 23.6,1.1C21.5,0.5 19.3,0.3 17.1,0.3C14.8,0.3 12.6,0.5 10.4,1.1C8.4,1.6 6.6,2.4 4.9,3.6C3.4,4.6 2.2,6 1.3,7.7C0.4,9.3 0,11.3 0,13.6C0,15.8 0.5,17.7 1.4,19.2C2.3,20.7 3.5,21.9 4.9,22.9C6.4,23.9 8.1,24.7 9.8,25.2C11.6,25.8 13.5,26.3 15.4,26.7C16.9,27.1 18.2,27.4 19.4,27.7C20.4,27.9 21.4,28.3 22.3,28.8C23,29.1 23.6,29.6 24.1,30.3C24.5,30.9 24.8,31.7 24.7,32.4C24.7,33.1 24.5,33.9 24.1,34.5C23.7,35.1 23.2,35.6 22.5,35.9C21.8,36.3 21.1,36.5 20.3,36.7C19.5,36.9 18.6,36.9 17.7,36.9C15.1,36.9 13.2,36.4 11.8,35.5L8.6,44C9.1,44.2 9.5,44.3 10,44.4C12.5,45 15.2,45.4 17.8,45.3C20.1,45.3 22.5,45 24.7,44.4C26.7,43.8 28.6,42.9 30.3,41.7C31.9,40.5 33.1,39 34,37.3C34.9,35.4 35.4,33.4 35.4,31.3C35.4,28.9 35,26.9 34.2,25.4Z" style="fill:rgb(159,159,159);fill-rule:nonzero;"/>
        <path d="M36.6,1.2L46.3,1.2L46.3,23.8L55.4,13.4L66.7,13.4L55.9,24.9L68,44.1L56.6,44.1L49.2,31.5L46.3,34.6L46.3,44L36.6,44L36.6,1.2Z" style="fill:rgb(159,159,159);fill-rule:nonzero;"/>
        <rect x="69.1" y="13.3" width="9.8" height="30.8" style="fill:rgb(159,159,159);fill-rule:nonzero;"/>
        <circle cx="74" cy="5.1" r="5.1" style="fill:rgb(159,159,159);"/>
        <path d="M84.1,19.6L80.1,19.6L80.1,13.4L84.1,13.4L84.1,11.2C84.1,8.1 84.9,5.7 86.6,4.1C87.9,2.8 89.8,2 92.1,1.6C94.6,1.2 97.1,1.2 99.6,1.4L99.6,8.3C98.8,8.3 98,8.3 97.1,8.3C96.5,8.3 95.9,8.5 95.3,8.8C94.8,9 94.4,9.4 94.2,9.9C93.9,10.5 93.8,11.2 93.8,11.9L93.8,13.4L99.6,13.4L99.6,19.6L93.8,19.6L93.8,44.1L84,44.1L84,19.6L84.1,19.6Z" style="fill:rgb(159,159,159);fill-rule:nonzero;"/>
        <path d="M114.4,19.6L120,19.6L120,13.3L114.4,13.3L114.4,3.6L104.9,3.6L104.9,13.3L100.8,13.3L100.8,19.6L104.9,19.6L104.9,44.1L114.4,44.1L109.8,31.9L114.4,19.6Z" style="fill:rgb(159,159,159);fill-rule:nonzero;"/>
        <circle cx="118.1" cy="31.9" r="3.7" style="fill:rgb(159,159,159);"/>
    </g>
</svg>
