<?xml version="1.0" encoding="UTF-8" standalone="no"?>
<!DOCTYPE svg PUBLIC "-//W3C//DTD SVG 1.1//EN" "http://www.w3.org/Graphics/SVG/1.1/DTD/svg11.dtd">
<svg width="100%" height="100%" viewBox="0 0 300 80" version="1.1" xmlns="http://www.w3.org/2000/svg" xmlns:xlink="http://www.w3.org/1999/xlink" xml:space="preserve" xmlns:serif="http://www.serif.com/" style="fill-rule:evenodd;clip-rule:evenodd;stroke-linejoin:round;stroke-miterlimit:1.41421;">
    <g transform="matrix(1.11778,0,0,1.11778,1,18.419)">
        <path d="M217.2,6.2L212.7,6.2L201.2,32.3L206.4,32.3L209,26.2L220.7,26.2L223.3,32.3L228.7,32.3L217.2,6.2ZM218.8,21.6L210.9,21.6L214.9,12.4L218.8,21.6Z" style="fill:rgb(159,159,159);fill-rule:nonzero;"/>
        <path d="M157.5,6.4L147.8,6.4L147.8,32.3L157.5,32.3C166,32.3 171.2,26.6 171.2,19.3C171.2,12.9 166.7,6.4 157.5,6.4M157.5,27.6L152.8,27.6L152.8,10.9L157.5,10.9C162.7,10.9 166,14.4 166,19.3C166.1,24.1 162.8,27.6 157.5,27.6" style="fill:rgb(159,159,159);fill-rule:nonzero;"/>
        <path d="M103.5,16.6L97.3,6.4L91.4,6.4L101,21.6L101,32.2L106,32.2L106,21.4L115.6,6.4L109.8,6.4L103.5,16.6Z" style="fill:rgb(159,159,159);fill-rule:nonzero;"/>
        <path d="M81.8,32.4L89.4,6.4L84.2,6.4L79.4,24.1L73.9,6.3L69.1,6.3L63.5,24.1L58.7,6.4L53.4,6.4L61.1,32.4L65.5,32.4L71.3,13.9L77.3,32.4L81.8,32.4Z" style="fill:rgb(159,159,159);fill-rule:nonzero;"/>
        <path d="M136.2,23.4L123,6.4L118.5,6.4L118.5,32.2L123.4,32.2L123.4,14.7L137,32.2L141.1,32.2L141.1,19.3L141.1,6.4L136.2,6.4L136.2,23.4Z" style="fill:rgb(159,159,159);fill-rule:nonzero;"/>
        <path d="M197.7,32.2L197.7,19L197.7,6.4L192.7,6.4L192.7,16.9L181.1,16.9L181.1,6.4L176.1,6.4L176.1,32.2L181.1,32.2L181.1,21.5L192.7,21.5L192.7,32.2L197.7,32.2Z" style="fill:rgb(159,159,159);fill-rule:nonzero;"/>
        <path d="M244.4,18.1L236.8,6.4L231.7,6.4L231.7,32.2L236.6,32.2L236.6,14.7L244.1,26L244.5,26L252.1,14.7L252.1,32.2L257.1,32.2L257.1,17.9L257.1,6.4L251.9,6.4L244.4,18.1Z" style="fill:rgb(159,159,159);fill-rule:nonzero;"/>
        <path d="M260.6,9.4C260.6,7.7 261.9,6.4 263.6,6.4C265.3,6.4 266.6,7.7 266.6,9.4C266.6,11.1 265.3,12.4 263.6,12.4C262,12.4 260.6,11.1 260.6,9.4ZM266.3,9.4C266.3,7.9 265.2,6.7 263.7,6.6C262.2,6.6 261,7.7 260.9,9.2C260.9,9.3 260.9,9.3 260.9,9.4C260.9,10.9 262,12.1 263.5,12.2C265,12.2 266.2,11.1 266.3,9.6C266.3,9.5 266.3,9.5 266.3,9.4ZM262.4,7.7L263.8,7.7C264.2,7.7 264.5,7.8 264.8,8.1C265,8.3 265.1,8.5 265.1,8.8C265.1,9.2 264.8,9.7 264.4,9.8L265.2,11L264.4,11L263.7,10L263.1,10L263.1,11L262.4,11L262.4,7.7ZM263.8,9.3C264.2,9.3 264.4,9.1 264.4,8.8C264.4,8.5 264.2,8.3 263.8,8.3L263.1,8.3L263.1,9.2L263.8,9.3Z" style="fill:rgb(159,159,159);fill-rule:nonzero;"/>
        <path d="M0,0L0,38.6L41.8,38.6L41.8,0L0,0ZM17.6,10C17.9,10 18.1,9.9 18.2,9.6C18.7,8.6 19.7,8 20.8,8.1C21.9,8 22.9,8.7 23.4,9.6C23.5,9.8 23.7,10 24,10C25.5,10 26.7,11.1 26.7,11.7C26.7,12 26.5,12.2 26.1,12.2C25,12.4 24.4,12.8 23.5,14.2C22.5,15.7 21.1,17.8 21.1,18C21,18.2 20.9,18.2 20.8,18.2C20.7,18.2 20.7,18.2 20.5,18C20.4,17.9 19.1,15.8 18.1,14.2C17.2,12.8 16.6,12.4 15.5,12.2C15.2,12.1 14.9,12 14.9,11.7C14.9,11 16.2,10 17.6,10ZM13,12.8C14.4,12.8 15.9,13.4 17.1,15.3C17.7,16.2 19.8,19.5 19.8,19.6C19.8,19.6 19.9,19.7 19.9,19.8C19.9,19.9 19.9,19.9 19.8,20C19.8,20.1 18,22.8 18,22.8C18,22.9 17.9,22.9 17.8,22.9C17.7,22.9 17.6,22.8 17.6,22.8C17.6,22.7 14.3,17.5 13.6,16.4C12.9,15.3 12.1,14.5 10.7,14.5C10.4,14.5 10.3,14.4 10.3,14.2C10.4,13.8 11.1,12.8 13,12.8ZM17.9,30.5C17.1,30.5 16.3,30.1 15.8,29.3C15.8,29.3 10.2,20.5 9.5,19.3C8.5,17.7 8.2,17.2 7.3,17.2C6.9,17.2 6.9,17 6.9,16.8C6.9,16.3 7.7,15.5 9.2,15.5C10.3,15.5 11.6,15.9 12.8,17.7C12.8,17.7 15.6,22.1 17.6,25.3C17.7,25.4 17.7,25.5 17.9,25.5C18,25.5 18.1,25.4 18.2,25.3C19.2,23.7 24,16.1 24.7,15.1C25.9,13.2 27.4,12.6 28.8,12.6C30.7,12.6 31.4,13.6 31.4,14C31.4,14.2 31.3,14.3 31,14.3C29.7,14.3 28.8,15.1 28.2,16.2C27.5,17.3 20.6,28.4 20.1,29.2C19.6,30.1 18.8,30.5 17.9,30.5ZM34.4,17.3C33.5,17.3 33.2,17.8 32.2,19.4C31.5,20.6 25.9,29.4 25.9,29.4C25.5,30.1 24.7,30.6 23.8,30.6C23,30.6 22.3,30.2 21.8,29.6C21.7,29.5 21.7,29.4 21.7,29.3C21.7,29.2 21.8,29.1 21.8,29L28.9,17.9C30,16.1 31.3,15.7 32.5,15.7C34,15.7 34.8,16.5 34.8,17C34.8,17.1 34.7,17.3 34.4,17.3Z" style="fill:rgb(159,159,159);fill-rule:nonzero;"/>
        <path d="M32.5,15.6C31.4,15.6 30.1,16 28.9,17.8L21.8,29C21.7,29.1 21.7,29.2 21.7,29.3C21.7,29.4 21.8,29.5 21.8,29.6C22.3,30.2 23,30.6 23.8,30.6C24.6,30.6 25.4,30.2 25.9,29.4C25.9,29.4 31.5,20.6 32.2,19.4C33.2,17.8 33.5,17.3 34.4,17.3C34.8,17.3 34.8,17.1 34.8,16.9C34.8,16.4 34,15.6 32.5,15.6Z" style="fill:none;"/>
        <path d="M15.5,12.2C16.6,12.4 17.2,12.8 18.1,14.2C19.1,15.7 20.4,17.8 20.5,18C20.6,18.2 20.7,18.2 20.8,18.2C20.9,18.2 20.9,18.2 21.1,18C21.2,17.9 22.5,15.8 23.5,14.2C24.4,12.8 25,12.4 26.1,12.2C26.4,12.1 26.7,12 26.7,11.7C26.7,11.1 25.5,10 24,10C23.7,10 23.5,9.9 23.4,9.6C22.9,8.6 21.9,8 20.8,8.1C19.7,8.1 18.7,8.7 18.2,9.6C18.1,9.8 17.9,10 17.6,10C16.1,10 14.9,11.1 14.9,11.7C14.9,12 15.2,12.1 15.5,12.2Z" style="fill:none;"/>
        <path d="M10.8,14.5C12.1,14.5 13,15.3 13.7,16.4C14.4,17.5 17.6,22.7 17.7,22.8C17.7,22.9 17.8,22.9 17.9,22.9C18,22.9 18.1,22.8 18.1,22.8C18.2,22.7 19.9,20 19.9,20C19.9,20 20,19.9 20,19.8C20,19.7 20,19.7 19.9,19.6C19.9,19.5 17.8,16.3 17.2,15.3C16,13.4 14.5,12.8 13.1,12.8C11.2,12.8 10.5,13.8 10.5,14.2C10.4,14.4 10.5,14.5 10.8,14.5Z" style="fill:none;"/>
        <path d="M31,14.5C31.3,14.5 31.4,14.4 31.4,14.2C31.4,13.8 30.7,12.8 28.8,12.8C27.4,12.8 25.9,13.4 24.7,15.3C24.1,16.2 19.3,23.9 18.2,25.5C18.2,25.6 18.1,25.7 17.9,25.7C17.8,25.7 17.7,25.6 17.6,25.5C15.5,22.3 12.8,17.9 12.8,17.9C11.7,16.1 10.3,15.7 9.2,15.7C7.7,15.7 6.9,16.5 6.9,17C6.9,17.2 7,17.4 7.3,17.4C8.2,17.4 8.5,17.9 9.5,19.5C10.2,20.7 15.8,29.5 15.8,29.5C16.2,30.2 17,30.7 17.9,30.7C18.8,30.7 19.5,30.3 20,29.5C20.5,28.7 27.5,17.6 28.1,16.5C28.7,15.4 29.6,14.5 31,14.5Z" style="fill:none;"/>
    </g>
</svg>
